<?xml version="1.0" encoding="UTF-8"?>
<svg width="18px" height="18px" viewBox="0 0 18 18" version="1.1" xmlns="http://www.w3.org/2000/svg" xmlns:xlink="http://www.w3.org/1999/xlink">
    <!-- Generator: Sketch 53.2 (72643) - https://sketchapp.com -->
    <title>编辑 / add-group</title>
    <desc>Created with Sketch.</desc>
    <g id="编辑-/-add-group" stroke="none" stroke-width="1" fill="none" fill-rule="evenodd">
        <path d="M12.8108886,10 L13.3181818,10 C15.3515939,10 17,11.6484061 17,13.6818182 L17,14.75 C17,14.8880712 16.8880712,15 16.75,15 L14.75,15 L14.75,13.9090909 C14.75,12.3140535 13.9892947,10.8966883 12.8108886,10 L12.8108886,10 Z M11.780692,8.40497147 C12.5272185,7.76309591 13,6.81175997 13,5.75 C13,4.68824003 12.5272185,3.73690409 11.780692,3.09502853 C12.0099716,3.03306021 12.251125,3 12.5,3 C14.0187831,3 15.25,4.23121694 15.25,5.75 C15.25,7.26878306 14.0187831,8.5 12.5,8.5 C12.251125,8.5 12.0099716,8.46693979 11.780692,8.40497147 L11.780692,8.40497147 Z M8.68181818,10 L10.3181818,10 C12.3515939,10 14,11.6484061 14,13.6818182 L14,14.75 C14,14.8880712 13.8880712,15 13.75,15 L5.25,15 C5.11192881,15 5,14.8880712 5,14.75 L5,13.6818182 C5,11.6484061 6.64840615,10 8.68181818,10 Z M9.5,8.5 C7.98121694,8.5 6.75,7.26878306 6.75,5.75 C6.75,4.23121694 7.98121694,3 9.5,3 C11.0187831,3 12.25,4.23121694 12.25,5.75 C12.25,7.26878306 11.0187831,8.5 9.5,8.5 Z M3,8 L3,6.25061542 C3,6.11220434 3.11770248,6 3.24769449,6 L4.25230551,6 C4.3891034,6 4.5,6.11487532 4.5,6.25061542 L4.5,8 L6.24938458,8 C6.38779566,8 6.5,8.11770248 6.5,8.24769449 L6.5,9.25230551 C6.5,9.3891034 6.38512468,9.5 6.24938458,9.5 L4.5,9.5 L4.5,11.2493846 C4.5,11.3877957 4.38229752,11.5 4.25230551,11.5 L3.24769449,11.5 C3.1108966,11.5 3,11.3851247 3,11.2493846 L3,9.5 L1.25061542,9.5 C1.11220434,9.5 1,9.38229752 1,9.25230551 L1,8.24769449 C1,8.1108966 1.11487532,8 1.25061542,8 L3,8 Z" id="shape" fill="#1F1F1F"></path>
    </g>
</svg>