<?xml version="1.0" encoding="UTF-8"?>
<svg width="18px" height="18px" viewBox="0 0 18 18" version="1.1" xmlns="http://www.w3.org/2000/svg" xmlns:xlink="http://www.w3.org/1999/xlink">
    <!-- Generator: Sketch 53.2 (72643) - https://sketchapp.com -->
    <title>编辑 / add-person</title>
    <desc>Created with Sketch.</desc>
    <g id="编辑-/-add-person" stroke="none" stroke-width="1" fill="none" fill-rule="evenodd">
        <path d="M11.0909091,10 L12.9090909,10 C15.1684376,10 17,11.8315624 17,14.0909091 L17,14.75 C17,14.8880712 16.8880712,15 16.75,15 L7.25,15 C7.11192881,15 7,14.8880712 7,14.75 L7,14.0909091 C7,11.8315624 8.83156239,10 11.0909091,10 Z M11.75,8.5 C10.2312169,8.5 9,7.26878306 9,5.75 C9,4.23121694 10.2312169,3 11.75,3 C13.2687831,3 14.5,4.23121694 14.5,5.75 C14.5,7.26878306 13.2687831,8.5 11.75,8.5 Z M3,8 L3,6.25061542 C3,6.11220434 3.11770248,6 3.24769449,6 L4.25230551,6 C4.3891034,6 4.5,6.11487532 4.5,6.25061542 L4.5,8 L6.24938458,8 C6.38779566,8 6.5,8.11770248 6.5,8.24769449 L6.5,9.25230551 C6.5,9.3891034 6.38512468,9.5 6.24938458,9.5 L4.5,9.5 L4.5,11.2493846 C4.5,11.3877957 4.38229752,11.5 4.25230551,11.5 L3.24769449,11.5 C3.1108966,11.5 3,11.3851247 3,11.2493846 L3,9.5 L1.25061542,9.5 C1.11220434,9.5 1,9.38229752 1,9.25230551 L1,8.24769449 C1,8.1108966 1.11487532,8 1.25061542,8 L3,8 Z" id="shape" fill="#1F1F1F"></path>
    </g>
</svg>