<?xml version="1.0" encoding="UTF-8"?>
<svg width="18px" height="18px" viewBox="0 0 18 18" version="1.1" xmlns="http://www.w3.org/2000/svg" xmlns:xlink="http://www.w3.org/1999/xlink" style="background: #FFFFFF;">
    <!-- Generator: Sketch 63.1 (92452) - https://sketch.com -->
    <title>编辑 / add-circle-dotlined</title>
    <desc>Created with Sketch.</desc>
    <g id="add-circle-dotlined" stroke="none" stroke-width="1" fill="none" fill-rule="evenodd">
        <rect fill="#FFFFFF" opacity="0" x="0" y="0" width="18" height="18"></rect>
        <path d="M10.7575546,14.7388922 L11.1959178,16.1734087 C10.6006142,16.3554176 9.97383954,16.4653559 9.32576511,16.4930523 L9,16.5 L8.79642154,16.4972905 L8.59418263,16.4892078 L8.67407077,14.9913367 C8.78224983,14.9971044 8.8909143,15 9,15 C9.50304618,15 9.99662596,14.938413 10.4734958,14.8181024 L10.7575546,14.7388922 Z M5.51737765,13.8865501 C6.02663768,14.2503107 6.58883341,14.5321079 7.18525091,14.7210846 L7.48622483,14.8077877 L7.10952997,16.2597178 C6.32416091,16.0557794 5.58880623,15.727766 4.92564084,15.2978525 L4.64591151,15.1074297 L5.51737765,13.8865501 Z M13.5814902,12.8745133 L14.7262588,13.8437938 C14.2114105,14.4518286 13.6014614,14.9767714 12.9193751,15.3956587 L12.6227027,15.5686217 L11.8973211,14.2556778 C12.4457785,13.9525202 12.9438671,13.5647262 13.3728464,13.1083451 L13.5814902,12.8745133 Z M3.43406997,11.2459461 C3.66873406,11.8267941 3.99368338,12.3668628 4.39527926,12.8469155 L4.60240128,13.0818516 L3.50368719,14.1030409 C2.96364266,13.5216446 2.51472377,12.8544329 2.17965251,12.1241277 L2.04308706,11.8073432 L3.43406997,11.2459461 Z M9.75,5 L9.75,8.25 L13,8.25 L13,9.75 L9.749,9.75 L9.75,13 L8.25,13 L8.249,9.75 L5,9.75 L5,8.25 L8.25,8.25 L8.25,5 L9.75,5 Z M14.9521261,9.76284671 L16.4402887,9.95092126 C16.337654,10.7620789 16.1054599,11.5328469 15.7650952,12.2418366 L15.6126643,12.5418447 L14.2909628,11.8325455 C14.585846,11.2831689 14.7931124,10.691113 14.9044751,10.0736283 L14.9521261,9.76284671 Z M1.621803,7.64654354 L3.09756506,7.91510737 C3.03285366,8.27003783 3,8.63255045 3,9 C3,9.23488624 3.01342463,9.4677585 3.04001553,9.69792885 L3.08974428,10.0410719 L1.61217561,10.2995114 C1.55687595,9.98294393 1.521427,9.65955256 1.50715875,9.3306673 L1.5,9 L1.50778019,8.65530775 C1.51811656,8.4268075 1.53867762,8.20097086 1.5690167,7.97824451 L1.621803,7.64654354 Z M15.8186614,5.87220007 C16.1449058,6.58225183 16.3635033,7.35201665 16.4535521,8.16059286 L16.4842132,8.50944079 L14.9873085,8.6057547 C14.9464927,7.97412741 14.8076086,7.36138238 14.5778694,6.78382193 L14.4554619,6.49804922 L15.8186614,5.87220007 Z M3.50368719,3.89695913 L4.60240813,4.91814107 C4.17558229,5.37771722 3.82315082,5.90053258 3.55875755,6.46734257 L3.43396059,6.75432469 L2.04308706,6.19265679 C2.3451667,5.44478866 2.76433998,4.75676797 3.2778849,4.15131672 L3.50368719,3.89695913 Z M13.050115,2.68649669 C13.7233525,3.11927391 14.3228598,3.65679343 14.8256193,4.27603766 L15.0350973,4.54636449 L13.8285345,5.43754718 C13.4556767,4.93322547 13.0060594,4.48975176 12.4977521,4.12429276 L12.2387912,3.94814396 L13.050115,2.68649669 Z M7.11957952,1.73768009 L7.4944455,3.19008345 C6.8868585,3.34696556 6.31027688,3.59852732 5.78340654,3.93393979 L5.52420058,4.10858345 L4.65379698,2.88694616 C5.2965976,2.42911014 6.01468734,2.07012694 6.78588124,1.83218154 L7.11957952,1.73768009 Z M9,1.5 L9.35139454,1.50808634 C10.0501419,1.54031336 10.7239292,1.66815628 11.3599744,1.87883322 L11.6747926,1.99101534 L11.1398895,3.39239991 C10.5601154,3.17099198 9.94733612,3.04084669 9.31672267,3.00818085 L9,3 L8.83308963,3.00234675 L8.66686685,3.0090517 L8.58520424,1.51127628 L8.75726895,1.50385357 L9,1.5 Z" id="Shape" fill="#000000" fill-rule="nonzero"></path>
    </g>
</svg>