<?xml version="1.0" encoding="UTF-8"?>
<svg width="18px" height="18px" viewBox="0 0 18 18" version="1.1" xmlns="http://www.w3.org/2000/svg" xmlns:xlink="http://www.w3.org/1999/xlink">
    <!-- Generator: Sketch 53.2 (72643) - https://sketchapp.com -->
    <title>编辑 / add</title>
    <desc>Created with Sketch.</desc>
    <g id="编辑-/-add" stroke="none" stroke-width="1" fill="none" fill-rule="evenodd">
        <path d="M8,8 L8,3.50034732 C8,3.22401312 8.21403503,3 8.50468445,3 L9.49531555,3 C9.77404508,3 10,3.22900057 10,3.50034732 L10,8 L14.4996527,8 C14.7759869,8 15,8.21403503 15,8.50468445 L15,9.49531555 C15,9.77404508 14.7709994,10 14.4996527,10 L10,10 L10,14.4996527 C10,14.7759869 9.78596497,15 9.49531555,15 L8.50468445,15 C8.22595492,15 8,14.7709994 8,14.4996527 L8,10 L3.50034732,10 C3.22401312,10 3,9.78596497 3,9.49531555 L3,8.50468445 C3,8.22595492 3.22900057,8 3.50034732,8 L8,8 Z" id="shape" fill="#1F1F1F"></path>
    </g>
</svg>