<?xml version="1.0" encoding="UTF-8"?>
<svg width="18px" height="18px" viewBox="0 0 18 18" version="1.1" xmlns="http://www.w3.org/2000/svg" xmlns:xlink="http://www.w3.org/1999/xlink">
    <!-- Generator: Sketch 53.2 (72643) - https://sketchapp.com -->
    <title>编辑 / adjust</title>
    <desc>Created with Sketch.</desc>
    <g id="编辑-/-adjust" stroke="none" stroke-width="1" fill="none" fill-rule="evenodd">
        <path d="M6.5,13 L15.006259,13 C15.2789446,13 15.5,13.2213302 15.5,13.5078316 L15.5,13.9921684 C15.5,14.2726361 15.2743607,14.5 15.006259,14.5 L6.5,14.5 L6.5,14.9985353 C6.5,15.2754866 6.28596497,15.5 5.99531555,15.5 L5.00468445,15.5 C4.72595492,15.5 4.5,15.2703552 4.5,14.9985353 L4.5,14.5 L2.99374104,14.5 C2.72105539,14.5 2.5,14.2786698 2.5,13.9921684 L2.5,13.5078316 C2.5,13.2273639 2.72563934,13 2.99374104,13 L4.5,13 L4.5,12.5014647 C4.5,12.2245134 4.71403503,12 5.00468445,12 L5.99531555,12 C6.27404508,12 6.5,12.2296448 6.5,12.5014647 L6.5,13 Z M10.5,8.5 L10.5,8.00146466 C10.5,7.72451338 10.714035,7.5 11.0046844,7.5 L11.9953156,7.5 C12.2740451,7.5 12.5,7.72964478 12.5,8.00146466 L12.5,8.5 L15.006259,8.5 C15.2789446,8.5 15.5,8.72133017 15.5,9.00783157 L15.5,9.49216843 C15.5,9.77263606 15.2743607,10 15.006259,10 L12.5,10 L12.5,10.4985353 C12.5,10.7754866 12.285965,11 11.9953156,11 L11.0046844,11 C10.7259549,11 10.5,10.7703552 10.5,10.4985353 L10.5,10 L2.99374104,10 C2.72105539,10 2.5,9.77866983 2.5,9.49216843 L2.5,9.00783157 C2.5,8.72736394 2.72563934,8.5 2.99374104,8.5 L10.5,8.5 Z M6.5,4 L15.006259,4 C15.2789446,4 15.5,4.22133017 15.5,4.50783157 L15.5,4.99216843 C15.5,5.27263606 15.2743607,5.5 15.006259,5.5 L6.5,5.5 L6.5,5.99853534 C6.5,6.27548662 6.28596497,6.5 5.99531555,6.5 L5.00468445,6.5 C4.72595492,6.5 4.5,6.27035522 4.5,5.99853534 L4.5,5.5 L2.99374104,5.5 C2.72105539,5.5 2.5,5.27866983 2.5,4.99216843 L2.5,4.50783157 C2.5,4.22736394 2.72563934,4 2.99374104,4 L4.5,4 L4.5,3.50146466 C4.5,3.22451338 4.71403503,3 5.00468445,3 L5.99531555,3 C6.27404508,3 6.5,3.22964478 6.5,3.50146466 L6.5,4 Z" id="shape" fill="#1F1F1F"></path>
    </g>
</svg>