<?xml version="1.0" encoding="UTF-8"?>
<svg width="18px" height="18px" viewBox="0 0 18 18" version="1.1" xmlns="http://www.w3.org/2000/svg" xmlns:xlink="http://www.w3.org/1999/xlink">
    <!-- Generator: Sketch 53.2 (72643) - https://sketchapp.com -->
    <title>工具 / app-outlined</title>
    <desc>Created with Sketch.</desc>
    <g id="工具-/-app-outlined" stroke="none" stroke-width="1" fill="none" fill-rule="evenodd">
        <path d="M5,2 L13,2 C14.6568542,2 16,3.34314575 16,5 L16,13 C16,14.6568542 14.6568542,16 13,16 L5,16 C3.34314575,16 2,14.6568542 2,13 L2,5 C2,3.34314575 3.34314575,2 5,2 Z M14.5,5.5 C14.5,4.3954305 13.6045695,3.5 12.5,3.5 L5.5,3.5 C4.3954305,3.5 3.5,4.3954305 3.5,5.5 L3.5,12.5 C3.5,13.6045695 4.3954305,14.5 5.5,14.5 L12.5,14.5 C13.6045695,14.5 14.5,13.6045695 14.5,12.5 L14.5,5.5 Z M8.37,9.5 L8.37,5.5 L9.62,5.5 L9.62,9.5 L11.7529297,9.5 C11.8799031,9.5 11.9277867,9.58424891 11.838707,9.6881752 L9.16129303,12.8118248 C9.07415771,12.9134827 8.93027675,12.9112613 8.84426877,12.8017966 L6.40573123,9.69820338 C6.31797791,9.58651733 6.36061715,9.5 6.49707031,9.5 L8.37,9.5 Z" id="shape" fill="#1F1F1F"></path>
    </g>
</svg>