<?xml version="1.0" encoding="UTF-8"?>
<svg width="18px" height="18px" viewBox="0 0 18 18" version="1.1" xmlns="http://www.w3.org/2000/svg" xmlns:xlink="http://www.w3.org/1999/xlink">
    <!-- Generator: Sketch 53.2 (72643) - https://sketchapp.com -->
    <title>工具 / app</title>
    <desc>Created with Sketch.</desc>
    <g id="工具-/-app" stroke="none" stroke-width="1" fill="none" fill-rule="evenodd">
        <path d="M5.5,2.5 L12.5,2.5 C14.1568542,2.5 15.5,3.84314575 15.5,5.5 L15.5,12.5 C15.5,14.1568542 14.1568542,15.5 12.5,15.5 L5.5,15.5 C3.84314575,15.5 2.5,14.1568542 2.5,12.5 L2.5,5.5 C2.5,3.84314575 3.84314575,2.5 5.5,2.5 Z M8.37,9.5 L6.49707031,9.5 C6.36061715,9.5 6.31797791,9.58651733 6.40573123,9.69820338 L8.84426877,12.8017966 C8.93027675,12.9112613 9.07415771,12.9134827 9.16129303,12.8118248 L11.838707,9.6881752 C11.9277867,9.58424891 11.8799031,9.5 11.7529297,9.5 L9.62,9.5 L9.62,5.5 L8.37,5.5 L8.37,9.5 L8.37,9.5 Z" id="shape" fill="#1F1F1F"></path>
    </g>
</svg>