<?xml version="1.0" encoding="UTF-8"?>
<svg width="18px" height="18px" viewBox="0 0 18 18" version="1.1" xmlns="http://www.w3.org/2000/svg" xmlns:xlink="http://www.w3.org/1999/xlink">
    <!-- Generator: Sketch 53.2 (72643) - https://sketchapp.com -->
    <title>导航 / arrow-forward</title>
    <desc>Created with Sketch.</desc>
    <g id="导航-/-arrow-forward" stroke="none" stroke-width="1" fill="none" fill-rule="evenodd">
        <path d="M12.6398133,9.75 L3.50123084,9.75 C3.22975063,9.75 3,9.52263606 3,9.24216843 L3,8.75783157 C3,8.47133017 3.22440869,8.25 3.50123084,8.25 L12.6376291,8.25 L9.14369048,4.75606139 C8.94835977,4.56073069 8.95485018,4.23662721 9.14717369,4.04323095 L9.48781046,3.70069417 C9.68506488,3.50233949 10.0082488,3.50465962 10.1990054,3.69523018 L15.150551,8.64194682 C15.276819,8.7680917 15.3223806,8.94407991 15.2842562,9.10748826 C15.2658043,9.20123149 15.2210245,9.28983259 15.150551,9.36023739 L10.1990054,14.306954 C10.0034777,14.502291 9.68013397,14.4948863 9.48781046,14.30149 L9.14717369,13.9589533 C8.94991926,13.7605986 8.95312607,13.4366872 9.14369048,13.2461228 L12.6398133,9.75 Z" id="shape" fill="#1F1F1F"></path>
    </g>
</svg>