<?xml version="1.0" encoding="UTF-8"?>
<svg width="18px" height="18px" viewBox="0 0 18 18" version="1.1" xmlns="http://www.w3.org/2000/svg" xmlns:xlink="http://www.w3.org/1999/xlink">
    <!-- Generator: Sketch 53.2 (72643) - https://sketchapp.com -->
    <title>导航 / arrow-left-first</title>
    <desc>Created with Sketch.</desc>
    <g id="导航-/-arrow-left-first" stroke="none" stroke-width="1" fill="none" fill-rule="evenodd">
        <path d="M5.5,4 L6,4 C6.27614237,4 6.5,4.22385763 6.5,4.5 L6.5,13.5 C6.5,13.7761424 6.27614237,14 6,14 L5.5,14 C5.22385763,14 5,13.7761424 5,13.5 L5,4.5 C5,4.22385763 5.22385763,4 5.5,4 Z M8.017514,9.12376418 C7.97260409,8.95541428 8.01757139,8.77104751 8.14890467,8.6398606 L12.3890677,4.40442319 C12.580461,4.21324316 12.9052018,4.20939052 13.102525,4.40767644 L13.4432805,4.75009447 C13.6356711,4.94342368 13.6412739,5.26841481 13.4447773,5.46491136 L9.90859656,9.00109211 L13.4447773,12.5372729 C13.6359645,12.72846 13.6406037,13.0538038 13.4432805,13.2520897 L13.102525,13.5945078 C12.9101345,13.787837 12.5857761,13.7942502 12.3890677,13.597761 L8.14890467,9.36232362 C8.08199075,9.29548427 8.037981,9.21224335 8.017514,9.12376418 Z" id="shape" fill="#1F1F1F"></path>
    </g>
</svg>