<?xml version="1.0" encoding="UTF-8"?>
<svg width="18px" height="18px" viewBox="0 0 18 18" version="1.1" xmlns="http://www.w3.org/2000/svg" xmlns:xlink="http://www.w3.org/1999/xlink">
    <!-- Generator: Sketch 53.2 (72643) - https://sketchapp.com -->
    <title>导航 / arrow-right-last</title>
    <desc>Created with Sketch.</desc>
    <g id="导航-/-arrow-right-last" stroke="none" stroke-width="1" fill="none" fill-rule="evenodd">
        <path d="M12,4 L12.5,4 C12.7761424,4 13,4.22385763 13,4.5 L13,13.5 C13,13.7761424 12.7761424,14 12.5,14 L12,14 C11.7238576,14 11.5,13.7761424 11.5,13.5 L11.5,4.5 C11.5,4.22385763 11.7238576,4 12,4 Z M9.97980374,9.12376418 C9.95933675,9.21224335 9.915327,9.29548427 9.84841308,9.36232362 L5.60825008,13.597761 C5.41154165,13.7942502 5.08718328,13.787837 4.89479273,13.5945078 L4.55403721,13.2520897 C4.35671401,13.0538038 4.36135326,12.72846 4.55254045,12.5372729 L8.08872119,9.00109211 L4.55254045,5.46491136 C4.35604389,5.26841481 4.36164665,4.94342368 4.55403721,4.75009447 L4.89479273,4.40767644 C5.09211592,4.20939052 5.41685675,4.21324316 5.60825008,4.40442319 L9.84841308,8.6398606 C9.97974636,8.77104751 10.0247137,8.95541428 9.97980374,9.12376418 Z" id="last-page" fill="#1F1F1F"></path>
    </g>
</svg>