<?xml version="1.0" encoding="UTF-8"?>
<svg width="18px" height="18px" viewBox="0 0 18 18" version="1.1" xmlns="http://www.w3.org/2000/svg" xmlns:xlink="http://www.w3.org/1999/xlink">
    <!-- Generator: Sketch 53.2 (72643) - https://sketchapp.com -->
    <title>导航 / arrow-left-double</title>
    <desc>Created with Sketch.</desc>
    <g id="导航-/-arrow-left-double" stroke="none" stroke-width="1" fill="none" fill-rule="evenodd">
        <path d="M9.03518921,9.17919268 C8.96304922,8.99704122 9.00235042,8.78562384 9.14827629,8.6398606 L13.3884393,4.40442319 C13.5798326,4.21324316 13.9045735,4.20939052 14.1018966,4.40767644 L14.4426522,4.75009447 C14.6350427,4.94342368 14.6406455,5.26841481 14.4441489,5.46491136 L10.9109123,8.99814796 L14.4441489,12.5313846 C14.6353361,12.7225717 14.6399754,13.0479155 14.4426522,13.2462015 L14.1018966,13.5886195 C13.9095061,13.7819487 13.5851477,13.7883619 13.3884393,13.5918727 L9.14827629,9.35643533 C9.09707453,9.30529063 9.05928347,9.24454259 9.03518921,9.17919268 Z M3.03518921,9.17919268 C2.96304922,8.99704122 3.00235042,8.78562384 3.14827629,8.6398606 L7.3884393,4.40442319 C7.57983262,4.21324316 7.90457345,4.20939052 8.10189665,4.40767644 L8.44265216,4.75009447 C8.63504272,4.94342368 8.64064548,5.26841481 8.44414892,5.46491136 L4.91091233,8.99814796 L8.44414892,12.5313846 C8.63533611,12.7225717 8.63997536,13.0479155 8.44265216,13.2462015 L8.10189665,13.5886195 C7.90950609,13.7819487 7.58514772,13.7883619 7.3884393,13.5918727 L3.14827629,9.35643533 C3.09707453,9.30529063 3.05928347,9.24454259 3.03518921,9.17919268 Z" id="shape" fill="#1F1F1F"></path>
    </g>
</svg>