<?xml version="1.0" encoding="UTF-8"?>
<svg width="18px" height="18px" viewBox="0 0 18 18" version="1.1" xmlns="http://www.w3.org/2000/svg" xmlns:xlink="http://www.w3.org/1999/xlink">
    <!-- Generator: Sketch 53.2 (72643) - https://sketchapp.com -->
    <title>导航 / arrow-back</title>
    <desc>Created with Sketch.</desc>
    <g id="导航-/-arrow-back" stroke="none" stroke-width="1" fill="none" fill-rule="evenodd">
        <path d="M5.65906029,8.25 L14.4987692,8.25 C14.7755913,8.25 15,8.47133017 15,8.75783157 L15,9.24216843 C15,9.52263606 14.7702494,9.75 14.4987692,9.75 L5.65687607,9.75 L9.1529989,13.2461228 C9.34356331,13.4366872 9.34677011,13.7605986 9.14951568,13.9589533 L8.80887892,14.30149 C8.61655541,14.4948863 8.29321167,14.502291 8.09768398,14.306954 L3.14613839,9.36023739 C3.07566486,9.28983259 3.03088505,9.20123149 3.01243319,9.10748826 C2.97430872,8.94407991 3.01987037,8.7680917 3.14613839,8.64194682 L8.09768398,3.69523018 C8.28844057,3.50465962 8.61162449,3.50233949 8.80887892,3.70069417 L9.14951568,4.04323095 C9.34183919,4.23662721 9.3483296,4.56073069 9.1529989,4.75606139 L5.65906029,8.25 Z" id="shape" fill="#1F1F1F"></path>
    </g>
</svg>