<?xml version="1.0" encoding="UTF-8"?>
<svg width="18px" height="18px" viewBox="0 0 18 18" version="1.1" xmlns="http://www.w3.org/2000/svg" xmlns:xlink="http://www.w3.org/1999/xlink">
    <!-- Generator: Sketch 53.2 (72643) - https://sketchapp.com -->
    <title>导航 / arrow-right-double</title>
    <desc>Created with Sketch.</desc>
    <g id="导航-/-arrow-right-double" stroke="none" stroke-width="1" fill="none" fill-rule="evenodd">
        <path d="M15.5540562,9.17919268 C15.5299619,9.24454259 15.4921708,9.30529063 15.4409691,9.35643533 L11.2008061,13.5918727 C11.0040976,13.7883619 10.6797393,13.7819487 10.4873487,13.5886195 L10.1465932,13.2462015 C9.94927,13.0479155 9.95390925,12.7225717 10.1450964,12.5313846 L13.678333,8.99814796 L10.1450964,5.46491136 C9.94859988,5.26841481 9.95420264,4.94342368 10.1465932,4.75009447 L10.4873487,4.40767644 C10.6846719,4.20939052 11.0094127,4.21324316 11.2008061,4.40442319 L15.4409691,8.6398606 C15.5868949,8.78562384 15.6261961,8.99704122 15.5540562,9.17919268 Z M9.55405615,9.17919268 C9.52996189,9.24454259 9.49217083,9.30529063 9.44096907,9.35643533 L5.20080607,13.5918727 C5.00409764,13.7883619 4.67973927,13.7819487 4.48734871,13.5886195 L4.1465932,13.2462015 C3.94927,13.0479155 3.95390925,12.7225717 4.14509644,12.5313846 L7.67833304,8.99814796 L4.14509644,5.46491136 C3.94859988,5.26841481 3.95420264,4.94342368 4.1465932,4.75009447 L4.48734871,4.40767644 C4.68467191,4.20939052 5.00941274,4.21324316 5.20080607,4.40442319 L9.44096907,8.6398606 C9.58689494,8.78562384 9.62619614,8.99704122 9.55405615,9.17919268 Z" id="shape" fill="#1F1F1F"></path>
    </g>
</svg>