<?xml version="1.0" encoding="UTF-8"?>
<svg width="18px" height="18px" viewBox="0 0 18 18" version="1.1" xmlns="http://www.w3.org/2000/svg" xmlns:xlink="http://www.w3.org/1999/xlink">
    <!-- Generator: Sketch 53.2 (72643) - https://sketchapp.com -->
    <title>图表 / bar-chart-square</title>
    <desc>Created with Sketch.</desc>
    <g id="图表-/-bar-chart-square" stroke="none" stroke-width="1" fill="none" fill-rule="evenodd">
        <path d="M2,3 L16,3 C16.2761424,3 16.5,3.22385763 16.5,3.5 L16.5,15.5 C16.5,15.7761424 16.2761424,16 16,16 L2,16 C1.72385763,16 1.5,15.7761424 1.5,15.5 L1.5,3.5 C1.5,3.22385763 1.72385763,3 2,3 Z M2.75,4.25 L2.75,14.75 L15.25,14.75 L15.25,4.25 L2.75,4.25 Z M4.25,6.25 L8.25,6.25 L8.25,7.75 L4.25,7.75 L4.25,6.25 Z M4.25,8.75 L10.25,8.75 L10.25,10.25 L4.25,10.25 L4.25,8.75 Z M4.25,11.25 L13.25,11.25 L13.25,12.75 L4.25,12.75 L4.25,11.25 Z" id="shape" fill="#1F1F1F"></path>
    </g>
</svg>