<?xml version="1.0" encoding="UTF-8"?>
<svg width="18px" height="18px" viewBox="0 0 18 18" version="1.1" xmlns="http://www.w3.org/2000/svg" xmlns:xlink="http://www.w3.org/1999/xlink">
    <!-- Generator: Sketch 53.2 (72643) - https://sketchapp.com -->
    <title>图表 / bar-chart-outlined</title>
    <desc>Created with Sketch.</desc>
    <g id="图表-/-bar-chart-outlined" stroke="none" stroke-width="1" fill="none" fill-rule="evenodd">
        <path d="M1.5,14.5 L1.5,3.5 C1.5,3.22385763 1.72385763,3 2,3 L10,3 C10.2761424,3 10.5,3.22385763 10.5,3.5 L10.5,6.5 L13,6.5 C13.2761424,6.5 13.5,6.72385763 13.5,7 L13.5,10 L16,10 C16.2761424,10 16.5,10.2238576 16.5,10.5 L16.5,14.5 C16.5,14.7761424 16.2761424,15 16,15 L2,15 C1.72385763,15 1.5,14.7761424 1.5,14.5 Z M9,4.5 L3,4.5 L3,6.5 L9,6.5 L9,4.5 Z M12,8 L3,8 L3,10 L12,10 L12,8 Z M15,11.5 L3,11.5 L3,13.5 L15,13.5 L15,11.5 Z" id="shape" fill="#1F1F1F"></path>
    </g>
</svg>