<?xml version="1.0" encoding="UTF-8"?>
<svg width="18px" height="18px" viewBox="0 0 18 18" version="1.1" xmlns="http://www.w3.org/2000/svg" xmlns:xlink="http://www.w3.org/1999/xlink">
    <!-- Generator: Sketch 53.2 (72643) - https://sketchapp.com -->
    <title>工具 / bell-outlined</title>
    <desc>Created with Sketch.</desc>
    <g id="工具-/-bell-outlined" stroke="none" stroke-width="1" fill="none" fill-rule="evenodd">
        <path d="M10,3.11150821 C12.0039887,3.56623738 13.5,5.35841261 13.5,7.5 L13.5,12 L14.487868,12.987868 C14.6050253,13.1050253 14.6050253,13.2949747 14.487868,13.412132 C14.4316071,13.4683929 14.3553009,13.5 14.2757359,13.5 L3.72426407,13.5 C3.55857864,13.5 3.42426407,13.3656854 3.42426407,13.2 C3.42426407,13.1204351 3.45587112,13.0441289 3.51213203,12.987868 L4.47071068,12.0292893 C4.48946432,12.0105357 4.5,11.9851003 4.5,11.9585786 L4.5,7.5 C4.5,5.35841261 5.9960113,3.56623738 8,3.11150821 L8,1.95 C8,1.83954305 8.08954305,1.75 8.2,1.75 L9.8,1.75 C9.91045695,1.75 10,1.83954305 10,1.95 L10,3.11150821 L10,3.11150821 Z M9,4.5 C7.34314575,4.5 6,5.84314575 6,7.5 L6,12 L12,12 L12,7.5 C12,5.84314575 10.6568542,4.5 9,4.5 Z M6.25,14.25 L11.25,14.25 C11.25,15.0784271 10.5784271,15.75 9.75,15.75 L7.75,15.75 C6.92157288,15.75 6.25,15.0784271 6.25,14.25 Z" id="shape" fill="#1F1F1F"></path>
    </g>
</svg>