<?xml version="1.0" encoding="UTF-8"?>
<svg width="18px" height="18px" viewBox="0 0 18 18" version="1.1" xmlns="http://www.w3.org/2000/svg" xmlns:xlink="http://www.w3.org/1999/xlink">
    <!-- Generator: Sketch 53.2 (72643) - https://sketchapp.com -->
    <title>工具 / bulb-outlined</title>
    <desc>Created with Sketch.</desc>
    <g id="工具-/-bulb-outlined" stroke="none" stroke-width="1" fill="none" fill-rule="evenodd">
        <path d="M6.75,12.0202077 C4.8342496,11.1602683 3.5,9.23594951 3.5,7 C3.5,3.96243388 5.96243388,1.5 9,1.5 C12.0375661,1.5 14.5,3.96243388 14.5,7 C14.5,9.23594951 13.1657504,11.1602683 11.25,12.0202077 L11.25,13.8 C11.25,13.9104569 11.1604569,14 11.05,14 L6.95,14 C6.83954305,14 6.75,13.9104569 6.75,13.8 L6.75,12.0202077 Z M8.25,10.9298021 L8.25,12.75 L9.75,12.75 L9.75,10.9298021 C11.6006455,10.5787471 13,8.95279195 13,7 C13,4.790861 11.209139,3 9,3 C6.790861,3 5,4.790861 5,7 C5,8.95279195 6.39935449,10.5787471 8.25,10.9298021 Z M6.95,15 L11.05,15 C11.1604569,15 11.25,15.0895431 11.25,15.2 L11.25,16 C11.25,16.2761424 11.0261424,16.5 10.75,16.5 L7.25,16.5 C6.97385763,16.5 6.75,16.2761424 6.75,16 L6.75,15.2 C6.75,15.0895431 6.83954305,15 6.95,15 Z" id="shape" fill="#1F1F1F"></path>
    </g>
</svg>