<?xml version="1.0" encoding="UTF-8"?>
<svg width="18px" height="18px" viewBox="0 0 18 18" version="1.1" xmlns="http://www.w3.org/2000/svg" xmlns:xlink="http://www.w3.org/1999/xlink">
    <!-- Generator: Sketch 53.2 (72643) - https://sketchapp.com -->
    <title>工具 / bulb</title>
    <desc>Created with Sketch.</desc>
    <g id="工具-/-bulb" stroke="none" stroke-width="1" fill="none" fill-rule="evenodd">
        <path d="M7,12.1250597 C4.95132157,11.3249906 3.5,9.33198245 3.5,7 C3.5,3.96243388 5.96243388,1.5 9,1.5 C12.0375661,1.5 14.5,3.96243388 14.5,7 C14.5,9.33198245 13.0486784,11.3249906 11,12.1250597 L11,13.8 C11,13.9104569 10.9104569,14 10.8,14 L7.2,14 C7.08954305,14 7,13.9104569 7,13.8 L7,12.1250597 L7,12.1250597 Z M7.2,15 L10.8,15 C10.9104569,15 11,15.0895431 11,15.2 L11,16 C11,16.2761424 10.7761424,16.5 10.5,16.5 L7.5,16.5 C7.22385763,16.5 7,16.2761424 7,16 L7,15.2 C7,15.0895431 7.08954305,15 7.2,15 Z" id="shape" fill="#1F1F1F"></path>
    </g>
</svg>