<?xml version="1.0" encoding="UTF-8"?>
<svg width="18px" height="18px" viewBox="0 0 18 18" version="1.1" xmlns="http://www.w3.org/2000/svg" xmlns:xlink="http://www.w3.org/1999/xlink">
    <!-- Generator: Sketch 53.2 (72643) - https://sketchapp.com -->
    <title>工具 / button</title>
    <desc>Created with Sketch.</desc>
    <g id="工具-/-button" stroke="none" stroke-width="1" fill="none" fill-rule="evenodd">
        <path d="M3,4 L15,4 C16.1045695,4 17,4.8954305 17,6 L17,12 C17,13.1045695 16.1045695,14 15,14 L3,14 C1.8954305,14 1,13.1045695 1,12 L1,6 C1,4.8954305 1.8954305,4 3,4 Z M8.25,7.25 L8.25,6 L6.5,6 C4.84314575,6 3.5,7.34314575 3.5,9 C3.5,10.6568542 4.84314575,12 6.5,12 L8.25,12 L8.25,10.75 L6.5,10.75 C5.53350169,10.75 4.75,9.96649831 4.75,9 C4.75,8.03350169 5.53350169,7.25 6.5,7.25 L8.25,7.25 Z M9.75,10.75 L9.75,12 L11.5,12 C13.1568542,12 14.5,10.6568542 14.5,9 C14.5,7.34314575 13.1568542,6 11.5,6 L9.75,6 L9.75,7.25 L11.5,7.25 C12.4664983,7.25 13.25,8.03350169 13.25,9 C13.25,9.96649831 12.4664983,10.75 11.5,10.75 L9.75,10.75 Z M6.5,8.38 L6.5,9.63 L11.5,9.63 L11.5,8.38 L6.5,8.38 Z" id="shape" fill="#1F1F1F"></path>
    </g>
</svg>