<?xml version="1.0" encoding="UTF-8"?>
<svg width="18px" height="18px" viewBox="0 0 18 18" version="1.1" xmlns="http://www.w3.org/2000/svg" xmlns:xlink="http://www.w3.org/1999/xlink">
    <!-- Generator: Sketch 53.2 (72643) - https://sketchapp.com -->
    <title>工具 / button-outlined</title>
    <desc>Created with Sketch.</desc>
    <g id="工具-/-button-outlined" stroke="none" stroke-width="1" fill="none" fill-rule="evenodd">
        <path d="M3,4 L15,4 C16.1045695,4 17,4.8954305 17,6 L17,12 C17,13.1045695 16.1045695,14 15,14 L3,14 C1.8954305,14 1,13.1045695 1,12 L1,6 C1,4.8954305 1.8954305,4 3,4 Z M3.5,5.5 C2.94771525,5.5 2.5,5.94771525 2.5,6.5 L2.5,11.5 C2.5,12.0522847 2.94771525,12.5 3.5,12.5 L14.5,12.5 C15.0522847,12.5 15.5,12.0522847 15.5,11.5 L15.5,6.5 C15.5,5.94771525 15.0522847,5.5 14.5,5.5 L3.5,5.5 Z M8.25,7.75 L6.5,7.75 C5.80964406,7.75 5.25,8.30964406 5.25,9 C5.25,9.69035594 5.80964406,10.25 6.5,10.25 L8.25,10.25 L8.25,11.5 L6.5,11.5 C5.11928813,11.5 4,10.3807119 4,9 C4,7.61928813 5.11928813,6.5 6.5,6.5 L8.25,6.5 L8.25,7.75 Z M9.75,10.25 L11.5,10.25 C12.1903559,10.25 12.75,9.69035594 12.75,9 C12.75,8.30964406 12.1903559,7.75 11.5,7.75 L9.75,7.75 L9.75,6.5 L11.5,6.5 C12.8807119,6.5 14,7.61928813 14,9 C14,10.3807119 12.8807119,11.5 11.5,11.5 L9.75,11.5 L9.75,10.25 Z M6.5,8.38 L11.5,8.38 L11.5,9.63 L6.5,9.63 L6.5,8.38 Z" id="shape" fill="#1F1F1F"></path>
    </g>
</svg>