<?xml version="1.0" encoding="UTF-8"?>
<svg width="18px" height="18px" viewBox="0 0 18 18" version="1.1" xmlns="http://www.w3.org/2000/svg" xmlns:xlink="http://www.w3.org/1999/xlink">
    <!-- Generator: Sketch 53.2 (72643) - https://sketchapp.com -->
    <title>生活 / cake</title>
    <desc>Created with Sketch.</desc>
    <g id="生活-/-cake" stroke="none" stroke-width="1" fill="none" fill-rule="evenodd">
        <path d="M8.25,8 L8.25,5.75 C8.25,5.61192881 8.36192881,5.5 8.5,5.5 L9.5,5.5 C9.63807119,5.5 9.75,5.61192881 9.75,5.75 L9.75,8 L14.5,8 C15.0522847,8 15.5,8.44771525 15.5,9 L15.5,14.5 L16.75,14.5 C16.8880712,14.5 17,14.6119288 17,14.75 L17,15.75 C17,15.8880712 16.8880712,16 16.75,16 L1.25,16 C1.11192881,16 1,15.8880712 1,15.75 L1,14.75 C1,14.6119288 1.11192881,14.5 1.25,14.5 L2.5,14.5 L2.5,9 C2.5,8.44771525 2.94771525,8 3.5,8 L8.25,8 Z M4,10.5 L4,12 L14,12 L14,10.5 L4,10.5 Z M8.99998159,2.5 L9.74964633,3.40078534 C10.0942151,3.81481375 10.0379069,4.42977826 9.62387854,4.77434704 C9.4486717,4.92016024 9.2279266,5 8.99998159,5 C8.46132849,5 8.02466388,4.56333539 8.02466388,4.02468229 C8.02466388,3.79673728 8.10450365,3.57599218 8.25031685,3.40078534 L8.99998159,2.5 Z" id="shape" fill="#1F1F1F"></path>
    </g>
</svg>