<?xml version="1.0" encoding="UTF-8"?>
<svg width="18px" height="18px" viewBox="0 0 18 18" version="1.1" xmlns="http://www.w3.org/2000/svg" xmlns:xlink="http://www.w3.org/1999/xlink">
    <!-- Generator: Sketch 53.2 (72643) - https://sketchapp.com -->
    <title>工具 / calculator-outlined</title>
    <desc>Created with Sketch.</desc>
    <g id="工具-/-calculator-outlined" stroke="none" stroke-width="1" fill="none" fill-rule="evenodd">
        <path d="M3,1 L15,1 C15.5522847,1 16,1.44771525 16,2 L16,16 C16,16.5522847 15.5522847,17 15,17 L3,17 C2.44771525,17 2,16.5522847 2,16 L2,2 C2,1.44771525 2.44771525,1 3,1 Z M3.5,2.5 L3.5,15.5 L14.5,15.5 L14.5,2.5 L3.5,2.5 Z M5,10.5 L6.5,10.5 L6.5,12 L5,12 L5,10.5 Z M5,8 L6.5,8 L6.5,9.5 L5,9.5 L5,8 Z M5,3.5 L13,3.5 L13,7 L5,7 L5,3.5 Z M6.25,4.75 L6.25,5.75 L11.75,5.75 L11.75,4.75 L6.25,4.75 Z M5,13 L6.5,13 L6.5,14.5 L5,14.5 L5,13 Z M8.25,10.5 L9.75,10.5 L9.75,12 L8.25,12 L8.25,10.5 Z M8.25,8 L9.75,8 L9.75,9.5 L8.25,9.5 L8.25,8 Z M8.25,13 L9.75,13 L9.75,14.5 L8.25,14.5 L8.25,13 Z M11.5,10.5 L13,10.5 L13,12 L11.5,12 L11.5,10.5 Z M11.5,8 L13,8 L13,9.5 L11.5,9.5 L11.5,8 Z M11.5,13 L13,13 L13,14.5 L11.5,14.5 L11.5,13 Z" id="shape" fill="#1F1F1F"></path>
    </g>
</svg>