<?xml version="1.0" encoding="UTF-8"?>
<svg width="18px" height="18px" viewBox="0 0 18 18" version="1.1" xmlns="http://www.w3.org/2000/svg" xmlns:xlink="http://www.w3.org/1999/xlink">
    <!-- Generator: Sketch 53.2 (72643) - https://sketchapp.com -->
    <title>工具 / calculator</title>
    <desc>Created with Sketch.</desc>
    <g id="工具-/-calculator" stroke="none" stroke-width="1" fill="none" fill-rule="evenodd">
        <path d="M3.5,1 L14.5,1 C15.0522847,1 15.5,1.44771525 15.5,2 L15.5,16 C15.5,16.5522847 15.0522847,17 14.5,17 L3.5,17 C2.94771525,17 2.5,16.5522847 2.5,16 L2.5,2 C2.5,1.44771525 2.94771525,1 3.5,1 Z M4.5,10.5 L4.5,12 L6,12 L6,10.5 L4.5,10.5 Z M4.5,13.5 L4.5,15 L6,15 L6,13.5 L4.5,13.5 Z M8.25,10.5 L8.25,12 L9.75,12 L9.75,10.5 L8.25,10.5 Z M8.25,13.5 L8.25,15 L9.75,15 L9.75,13.5 L8.25,13.5 Z M12,10.5 L12,12 L13.5,12 L13.5,10.5 L12,10.5 Z M12,13.5 L12,15 L13.5,15 L13.5,13.5 L12,13.5 Z M4.5,7.5 L4.5,9 L6,9 L6,7.5 L4.5,7.5 Z M4.5,3 L4.5,6 L13.5,6 L13.5,3 L4.5,3 Z M8.25,7.5 L8.25,9 L9.75,9 L9.75,7.5 L8.25,7.5 Z M12,7.5 L12,9 L13.5,9 L13.5,7.5 L12,7.5 Z" id="shape" fill="#1F1F1F"></path>
    </g>
</svg>