<?xml version="1.0" encoding="UTF-8"?>
<svg width="18px" height="18px" viewBox="0 0 18 18" version="1.1" xmlns="http://www.w3.org/2000/svg" xmlns:xlink="http://www.w3.org/1999/xlink">
    <!-- Generator: Sketch 53.2 (72643) - https://sketchapp.com -->
    <title>工具 / calendar-outlined</title>
    <desc>Created with Sketch.</desc>
    <g id="工具-/-calendar-outlined" stroke="none" stroke-width="1" fill="none" fill-rule="evenodd">
        <path d="M3.5,6.5 L14.5,6.5 L14.5,5.5 L3.5,5.5 L3.5,6.5 Z M3.5,8 L3.5,14.5 L14.5,14.5 L14.5,8 L3.5,8 Z M13.5,4 L14.9931545,4 C15.5492199,4 16,4.45576096 16,5.00247329 L16,14.9975267 C16,15.5511774 15.5500512,16 14.9931545,16 L3.00684547,16 C2.45078007,16 2,15.544239 2,14.9975267 L2,5.00247329 C2,4.44882258 2.44994876,4 3.00684547,4 L4.5,4 L4.5,2.25577831 C4.5,2.11451585 4.61770248,2 4.74769449,2 L5.75230551,2 C5.8891034,2 6,2.11394024 6,2.25577831 L6,4 L12,4 L12,2.25577831 C12,2.11451585 12.1177025,2 12.2476945,2 L13.2523055,2 C13.3891034,2 13.5,2.11394024 13.5,2.25577831 L13.5,4 Z M5.25,9.25 L6.75,9.25 L6.75,10.75 L5.25,10.75 L5.25,9.25 Z M8.25,9.25 L9.75,9.25 L9.75,10.75 L8.25,10.75 L8.25,9.25 Z M11.25,9.25 L12.75,9.25 L12.75,10.75 L11.25,10.75 L11.25,9.25 Z M5.25,12 L6.75,12 L6.75,13.5 L5.25,13.5 L5.25,12 Z M8.25,12 L9.75,12 L9.75,13.5 L8.25,13.5 L8.25,12 Z M11.25,12 L12.75,12 L12.75,13.5 L11.25,13.5 L11.25,12 Z" id="shape" fill="#1F1F1F"></path>
    </g>
</svg>