<?xml version="1.0" encoding="UTF-8"?>
<svg width="18px" height="18px" viewBox="0 0 18 18" version="1.1" xmlns="http://www.w3.org/2000/svg" xmlns:xlink="http://www.w3.org/1999/xlink">
    <!-- Generator: Sketch 53.2 (72643) - https://sketchapp.com -->
    <title>生活 / camera</title>
    <desc>Created with Sketch.</desc>
    <g id="生活-/-camera" stroke="none" stroke-width="1" fill="none" fill-rule="evenodd">
        <path d="M6,4 L6.85355339,3.14644661 C6.94732158,3.05267842 7.07449854,3 7.20710678,3 L10.7928932,3 C10.9255015,3 11.0526784,3.05267842 11.1464466,3.14644661 L12,4 L15,4 C15.5522847,4 16,4.44771525 16,5 L16,14 C16,14.5522847 15.5522847,15 15,15 L3,15 C2.44771525,15 2,14.5522847 2,14 L2,5 C2,4.44771525 2.44771525,4 3,4 L6,4 Z M9,12.5 C10.6568542,12.5 12,11.1568542 12,9.5 C12,7.84314575 10.6568542,6.5 9,6.5 C7.34314575,6.5 6,7.84314575 6,9.5 C6,11.1568542 7.34314575,12.5 9,12.5 Z M9,11 C8.17157288,11 7.5,10.3284271 7.5,9.5 C7.5,8.67157288 8.17157288,8 9,8 C9.82842712,8 10.5,8.67157288 10.5,9.5 C10.5,10.3284271 9.82842712,11 9,11 Z" id="shape" fill="#1F1F1F"></path>
    </g>
</svg>