<?xml version="1.0" encoding="UTF-8"?>
<svg width="18px" height="18px" viewBox="0 0 18 18" version="1.1" xmlns="http://www.w3.org/2000/svg" xmlns:xlink="http://www.w3.org/1999/xlink">
    <!-- Generator: Sketch 53.2 (72643) - https://sketchapp.com -->
    <title>编辑 / cancel</title>
    <desc>Created with Sketch.</desc>
    <g id="编辑-/-cancel" stroke="none" stroke-width="1" fill="none" fill-rule="evenodd">
        <path d="M9,7.58578644 L12.1817349,4.40405151 C12.3771327,4.20865373 12.6868795,4.20159816 12.8923997,4.40711833 L13.5928817,5.1076003 C13.7899732,5.30469184 13.7878196,5.62639395 13.5959485,5.81826507 L10.4142136,9 L13.5959485,12.1817349 C13.7913463,12.3771327 13.7984018,12.6868795 13.5928817,12.8923997 L12.8923997,13.5928817 C12.6953082,13.7899732 12.3736061,13.7878196 12.1817349,13.5959485 L9,10.4142136 L5.81826507,13.5959485 C5.62286729,13.7913463 5.31312047,13.7984018 5.1076003,13.5928817 L4.40711833,12.8923997 C4.21002679,12.6953082 4.21218039,12.3736061 4.40405151,12.1817349 L7.58578644,9 L4.40405151,5.81826507 C4.20865373,5.62286729 4.20159816,5.31312047 4.40711833,5.1076003 L5.1076003,4.40711833 C5.30469184,4.21002679 5.62639395,4.21218039 5.81826507,4.40405151 L9,7.58578644 Z" id="shape" fill="#1F1F1F"></path>
    </g>
</svg>