<?xml version="1.0" encoding="UTF-8"?>
<svg width="18px" height="18px" viewBox="0 0 18 18" version="1.1" xmlns="http://www.w3.org/2000/svg" xmlns:xlink="http://www.w3.org/1999/xlink">
    <!-- Generator: Sketch 53.2 (72643) - https://sketchapp.com -->
    <title>编辑 / cancel-circle-outlined</title>
    <desc>Created with Sketch.</desc>
    <g id="编辑-/-cancel-circle-outlined" stroke="none" stroke-width="1" fill="none" fill-rule="evenodd">
        <path d="M9,7.93933983 L10.9445436,5.99479618 L12.0052038,7.05545635 L10.0606602,9 L12.0052038,10.9445436 L10.9445436,12.0052038 L9,10.0606602 L7.05545635,12.0052038 L5.99479618,10.9445436 L7.93933983,9 L5.99479618,7.05545635 L7.05545635,5.99479618 L9,7.93933983 L9,7.93933983 Z M9,14.5 C12.0375661,14.5 14.5,12.0375661 14.5,9 C14.5,5.96243388 12.0375661,3.5 9,3.5 C5.96243388,3.5 3.5,5.96243388 3.5,9 C3.5,12.0375661 5.96243388,14.5 9,14.5 Z M9,16 C5.13400675,16 2,12.8659932 2,9 C2,5.13400675 5.13400675,2 9,2 C12.8659932,2 16,5.13400675 16,9 C16,12.8659932 12.8659932,16 9,16 Z" id="shape" fill="#1F1F1F"></path>
    </g>
</svg>