<?xml version="1.0" encoding="UTF-8"?>
<svg width="18px" height="18px" viewBox="0 0 18 18" version="1.1" xmlns="http://www.w3.org/2000/svg" xmlns:xlink="http://www.w3.org/1999/xlink">
    <!-- Generator: Sketch 53.2 (72643) - https://sketchapp.com -->
    <title>生活 / car</title>
    <desc>Created with Sketch.</desc>
    <g id="生活-/-car" stroke="none" stroke-width="1" fill="none" fill-rule="evenodd">
        <path d="M2,9 L1.5,9 C1.22385763,9 1,8.77614237 1,8.5 L1,8 C1,7.72385763 1.22385763,7.5 1.5,7.5 L2.5,7.5 L3.88603796,3.34188612 C3.95409498,3.13771505 4.14516441,3 4.36037961,3 L13.6396204,3 C13.8548356,3 14.045905,3.13771505 14.113962,3.34188612 L15.5,7.5 L16.5,7.5 C16.7761424,7.5 17,7.72385763 17,8 L17,8.5 C17,8.77614237 16.7761424,9 16.5,9 L16,9 L16,14 C16,14.5522847 15.5522847,15 15,15 L14.5,15 C13.9477153,15 13.5,14.5522847 13.5,14 L4.5,14 C4.5,14.5522847 4.05228475,15 3.5,15 L3,15 C2.44771525,15 2,14.5522847 2,14 L2,9 Z M5,4.5 L4,7.5 L14,7.5 L13,4.5 L5,4.5 Z M6,9.75 C5.44771525,9.75 5,10.1977153 5,10.75 C5,11.3022847 5.44771525,11.75 6,11.75 C6.55228475,11.75 7,11.3022847 7,10.75 C7,10.1977153 6.55228475,9.75 6,9.75 Z M12,9.75 C11.4477153,9.75 11,10.1977153 11,10.75 C11,11.3022847 11.4477153,11.75 12,11.75 C12.5522847,11.75 13,11.3022847 13,10.75 C13,10.1977153 12.5522847,9.75 12,9.75 Z" id="shape" fill="#1F1F1F"></path>
    </g>
</svg>