<?xml version="1.0" encoding="UTF-8"?>
<svg width="18px" height="18px" viewBox="0 0 18 18" version="1.1" xmlns="http://www.w3.org/2000/svg" xmlns:xlink="http://www.w3.org/1999/xlink">
    <!-- Generator: Sketch 53.2 (72643) - https://sketchapp.com -->
    <title>生活 / catering</title>
    <desc>Created with Sketch.</desc>
    <g id="生活-/-catering" stroke="none" stroke-width="1" fill="none" fill-rule="evenodd">
        <path d="M13.25,11 L14.5,11 C14.7761424,11 15,11.2238576 15,11.5 L15,16 C15,16.2761424 14.7761424,16.5 14.5,16.5 L10.5,16.5 C10.2238576,16.5 10,16.2761424 10,16 L10,11.5 C10,11.2238576 10.2238576,11 10.5,11 L11.75,11 L11.75,9.15548689 C10.4560796,8.82245479 9.5,7.64787957 9.5,6.25 L9.5,5.5 C9.5,3.84314575 10.8431458,2.5 12.5,2.5 C14.1568542,2.5 15.5,3.84314575 15.5,5.5 L15.5,6.25 C15.5,7.64787957 14.5439204,8.82245479 13.25,9.15548689 L13.25,11 Z M6.5,9 L6.5,11 L7.75,11 C8.02614237,11 8.25,11.2238576 8.25,11.5 L8.25,16 C8.25,16.2761424 8.02614237,16.5 7.75,16.5 L3.75,16.5 C3.47385763,16.5 3.25,16.2761424 3.25,16 L3.25,11.5 C3.25,11.2238576 3.47385763,11 3.75,11 L5,11 L5,9 L4.5,9 C3.67157288,9 3,8.32842712 3,7.5 L3,3.25 C3,2.83578644 3.33578644,2.5 3.75,2.5 C4.16421356,2.5 4.5,2.83578644 4.5,3.25 L4.5,7.5 L5,7.5 L5,3.25 C5,2.83578644 5.33578644,2.5 5.75,2.5 C6.16421356,2.5 6.5,2.83578644 6.5,3.25 L6.5,7.5 L7,7.5 L7,3.25 C7,2.83578644 7.33578644,2.5 7.75,2.5 C8.16421356,2.5 8.5,2.83578644 8.5,3.25 L8.5,7.5 C8.5,8.32842712 7.82842712,9 7,9 L6.5,9 Z" id="shape" fill="#1F1F1F"></path>
    </g>
</svg>