<?xml version="1.0" encoding="UTF-8"?>
<svg width="18px" height="18px" viewBox="0 0 18 18" version="1.1" xmlns="http://www.w3.org/2000/svg" xmlns:xlink="http://www.w3.org/1999/xlink">
    <!-- Generator: Sketch 53.2 (72643) - https://sketchapp.com -->
    <title>生活 / city-outlined</title>
    <desc>Created with Sketch.</desc>
    <g id="生活-/-city-outlined" stroke="none" stroke-width="1" fill="none" fill-rule="evenodd">
        <path d="M2.5,14.5 L2.5,3 C2.5,2.72385763 2.72385763,2.5 3,2.5 L10,2.5 C10.2761424,2.5 10.5,2.72385763 10.5,3 L10.5,4.5 L15,4.5 C15.2761424,4.5 15.5,4.72385763 15.5,5 L15.5,14.5 L16.25,14.5 C16.3880712,14.5 16.5,14.6119288 16.5,14.75 L16.5,15.75 C16.5,15.8880712 16.3880712,16 16.25,16 L1.75,16 C1.61192881,16 1.5,15.8880712 1.5,15.75 L1.5,14.75 C1.5,14.6119288 1.61192881,14.5 1.75,14.5 L2.5,14.5 Z M10.5,14.5 L14,14.5 L14,6 L10.5,6 L10.5,14.5 Z M9,14.5 L9,4 L4,4 L4,14.5 L9,14.5 Z M6.5,5 L7.75,5 L7.75,6.25 L6.5,6.25 L6.5,5 Z M6.5,7.5 L7.75,7.5 L7.75,8.75 L6.5,8.75 L6.5,7.5 Z M11.5,7.5 L12.75,7.5 L12.75,8.75 L11.5,8.75 L11.5,7.5 Z M6.5,10 L7.75,10 L7.75,11.25 L6.5,11.25 L6.5,10 Z M11.5,10 L12.75,10 L12.75,11.25 L11.5,11.25 L11.5,10 Z" id="shape" fill="#1F1F1F"></path>
    </g>
</svg>