<?xml version="1.0" encoding="UTF-8"?>
<svg width="18px" height="18px" viewBox="0 0 18 18" version="1.1" xmlns="http://www.w3.org/2000/svg" xmlns:xlink="http://www.w3.org/1999/xlink">
    <!-- Generator: Sketch 56.2 (81672) - https://sketch.com -->
    <title>工具 / code-sand-box</title>
    <desc>Created with Sketch.</desc>
    <g id="图标-/-工具-/-code-sand-box" stroke="none" stroke-width="1" fill="none" fill-rule="evenodd">
        <path d="M8.25,9.76098075 L3.5,6.59431408 L3.5,9.19292626 L6,10.8595929 L6,13.32 L8.25,14.58 L8.25,9.76098075 Z M9.75,9.76098075 L9.75,14.58 L12,13.32 L12,10.8595929 L14.5,9.19292626 L14.5,6.59431408 L9.75,9.76098075 Z M11.464445,4.09927506 L9,5.85959293 L6.53555499,4.09927506 L4.32145169,5.3391729 L9,8.45820511 L13.6785483,5.3391729 L11.464445,4.09927506 Z M9.48860337,1.27361789 L15.4886034,4.63361789 C15.8044101,4.81046965 16,5.14417026 16,5.5061239 L16,12.213062 C16,12.5750156 15.8044101,12.9087162 15.4886034,13.085568 L9.48860337,16.445568 C9.18504626,16.6155599 8.81495374,16.6155599 8.51139663,16.445568 L2.51139663,13.085568 C2.1955899,12.9087162 2,12.5750156 2,12.213062 L2,5.5061239 C2,5.14417026 2.1955899,4.81046965 2.51139663,4.63361789 L8.51139663,1.27361789 C8.81495374,1.10362591 9.18504626,1.10362591 9.48860337,1.27361789 Z" id="形状" fill="#000000"></path>
    </g>
</svg>