<?xml version="1.0" encoding="UTF-8"?>
<svg width="18px" height="18px" viewBox="0 0 18 18" version="1.1" xmlns="http://www.w3.org/2000/svg" xmlns:xlink="http://www.w3.org/1999/xlink">
    <!-- Generator: Sketch 54.1 (76490) - https://sketchapp.com -->
    <title>工具 / code</title>
    <desc>Created with Sketch.</desc>
    <g id="工具-/-code" stroke="none" stroke-width="1" fill="none" fill-rule="evenodd">
        <path d="M5.23563426,6.56727395 L1.8332887,9.45494495 L5.19082778,11.8974956 C5.52990563,12.1441688 5.6010141,12.6138873 5.349653,12.9466413 C5.09829189,13.2793953 4.61964655,13.3491776 4.28056869,13.1025044 L0.412181667,10.2883209 C0.352138167,10.2446403 0.297174062,10.1946094 0.248281358,10.1391312 C-0.119861367,9.72140216 -0.0732280941,9.08989318 0.352439687,8.72861638 L4.23576221,5.43272605 C4.55501304,5.16176845 5.03764597,5.19609112 5.31375301,5.50938787 C5.58986005,5.82268462 5.5548851,6.29631635 5.23563426,6.56727395 Z M12.7643657,6.56727395 C12.4451149,6.29631635 12.4101399,5.82268462 12.686247,5.50938787 C12.962354,5.19609112 13.444987,5.16176845 13.7642378,5.43272605 L17.6475603,8.72861638 C18.0732281,9.08989318 18.1198614,9.72140216 17.7517186,10.1391312 C17.7028259,10.1946094 17.6478618,10.2446403 17.5878183,10.2883209 L13.7194313,13.1025044 C13.3803535,13.3491776 12.9017081,13.2793953 12.650347,12.9466413 C12.3989859,12.6138873 12.4700944,12.1441688 12.8091722,11.8974956 L16.1667113,9.45494495 L12.7643657,6.56727395 Z M10.0462427,3.99072098 C10.1894385,3.60204654 10.6206046,3.40304681 11.009279,3.54624266 C11.3979535,3.68943851 11.5969532,4.12060457 11.4537573,4.50927902 L7.95375734,14.009279 C7.81056149,14.3979535 7.37939543,14.5969532 6.99072098,14.4537573 C6.60204654,14.3105615 6.40304681,13.8793954 6.54624266,13.490721 L10.0462427,3.99072098 Z" id="shape" fill="#1F1F1F"></path>
    </g>
</svg>