<?xml version="1.0" encoding="UTF-8"?>
<svg width="18px" height="18px" viewBox="0 0 18 18" version="1.1" xmlns="http://www.w3.org/2000/svg" xmlns:xlink="http://www.w3.org/1999/xlink">
    <!-- Generator: Sketch 53.2 (72643) - https://sketchapp.com -->
    <title>工具 / computer</title>
    <desc>Created with Sketch.</desc>
    <g id="工具-/-computer" stroke="none" stroke-width="1" fill="none" fill-rule="evenodd">
        <path d="M8,14.25 L8,13 L3,13 C2.44771525,13 2,12.5522847 2,12 L2,3.5 C2,2.94771525 2.44771525,2.5 3,2.5 L15,2.5 C15.5522847,2.5 16,2.94771525 16,3.5 L16,12 C16,12.5522847 15.5522847,13 15,13 L10,13 L10,14.25 L11.75,14.25 C11.8880712,14.25 12,14.3619288 12,14.5 L12,15.25 C12,15.3880712 11.8880712,15.5 11.75,15.5 L6.25,15.5 C6.11192881,15.5 6,15.3880712 6,15.25 L6,14.5 C6,14.3619288 6.11192881,14.25 6.25,14.25 L8,14.25 Z M3.5,4 L3.5,11 L14.5,11 L14.5,4 L3.5,4 Z" id="shape" fill="#1F1F1F"></path>
    </g>
</svg>