<?xml version="1.0" encoding="UTF-8"?>
<svg width="18px" height="18px" viewBox="0 0 18 18" version="1.1" xmlns="http://www.w3.org/2000/svg" xmlns:xlink="http://www.w3.org/1999/xlink">
    <!-- Generator: Sketch 53.2 (72643) - https://sketchapp.com -->
    <title>编辑 / cut</title>
    <desc>Created with Sketch.</desc>
    <g id="编辑-/-cut" stroke="none" stroke-width="1" fill="none" fill-rule="evenodd">
        <path d="M12.9266017,4.5 L14.7530483,2.67355339 C14.9483105,2.47829124 15.264893,2.47829124 15.4601551,2.67355339 L15.8137085,3.02710678 C16.0089706,3.22236893 16.0089706,3.53895142 15.8137085,3.73421356 L14,5.54792206 L14,13 L16.0095215,13 C16.2804053,13 16.5,13.2213302 16.5,13.5078316 L16.5,13.9921684 C16.5,14.2726361 16.2849426,14.5 16.0095215,14.5 L14,14.5 L14,16.5095215 C14,16.7804053 13.7786698,17 13.4921684,17 L13.0078316,17 C12.7273639,17 12.5,16.7849426 12.5,16.5095215 L12.5,14.5 L4.50964952,14.5 C4.22817786,14.5 4,14.2723472 4,13.9903505 L4,6 L1.99047852,6 C1.71959471,6 1.5,5.77866983 1.5,5.49216843 L1.5,5.00783157 C1.5,4.72736394 1.71505737,4.5 1.99047852,4.5 L4,4.5 L4,2.49047852 C4,2.21959471 4.22133017,2 4.50783157,2 L4.99216843,2 C5.27263606,2 5.5,2.21505737 5.5,2.49047852 L5.5,4.5 L12.9266017,4.5 Z M11.4266017,6 L5.5,6 L5.5,11.9266017 L11.4266017,6 Z M12.5,7.04792206 L6.54792206,13 L12.5,13 L12.5,7.04792206 L12.5,7.04792206 Z" id="shape" fill="#1F1F1F"></path>
    </g>
</svg>