<?xml version="1.0" encoding="UTF-8"?>
<svg width="18px" height="18px" viewBox="0 0 18 18" version="1.1" xmlns="http://www.w3.org/2000/svg" xmlns:xlink="http://www.w3.org/1999/xlink">
    <!-- Generator: Sketch 53.2 (72643) - https://sketchapp.com -->
    <title>生活 / diamond-outlined</title>
    <desc>Created with Sketch.</desc>
    <g id="生活-/-diamond-outlined" stroke="none" stroke-width="1" fill="none" fill-rule="evenodd">
        <path d="M7.68119757,13.1995337 L5.87971464,8.25 L4.12449749,8.25 L7.68119757,13.1995337 L7.68119757,13.1995337 Z M7.4759813,8.25 L8.99520389,12.4240298 L10.5144265,8.25 L7.4759813,8.25 L7.4759813,8.25 Z M10.3506831,13.0855879 L13.8255025,8.25 L12.1106931,8.25 L10.3506831,13.0855879 Z M8.01490629,15.3027323 L7.95533371,15.2810496 L7.96813278,15.2458845 L1.72360916,7.65638652 C1.58948354,7.4933723 1.57218822,7.2636847 1.68039013,7.08242338 L4.56880031,2.24371914 C4.65902819,2.09256816 4.82209229,2 4.9981255,2 L13.0018745,2 C13.1779077,2 13.3409718,2.09256816 13.4311997,2.24371914 L16.3196099,7.08242338 C16.4278118,7.2636847 16.4105165,7.4933723 16.2763908,7.65638652 L9.38610616,16.0307325 C9.21065508,16.2439731 8.89555826,16.2746075 8.68231772,16.0991564 C8.65735118,16.0786143 8.63443593,16.0556991 8.61389384,16.0307325 L8.01490629,15.3027323 L8.01490629,15.3027323 Z M7.40409897,3.5 L5.83214286,3.5 L3.84035714,6.75 L5.52771059,6.75 L7.40409897,3.5 Z M7.2597614,6.75 L10.7459754,6.75 L9.00286842,3.73085008 L7.2597614,6.75 L7.2597614,6.75 Z M10.6016379,3.5 L12.4780262,6.75 L14.1096429,6.75 L12.1178571,3.5 L10.6016379,3.5 Z" id="shape" fill="#1F1F1F"></path>
    </g>
</svg>