<?xml version="1.0" encoding="UTF-8"?>
<svg width="18px" height="18px" viewBox="0 0 18 18" version="1.1" xmlns="http://www.w3.org/2000/svg" xmlns:xlink="http://www.w3.org/1999/xlink">
    <!-- Generator: Sketch 53.2 (72643) - https://sketchapp.com -->
    <title>生活 / dish-outlined</title>
    <desc>Created with Sketch.</desc>
    <g id="生活-/-dish-outlined" stroke="none" stroke-width="1" fill="none" fill-rule="evenodd">
        <path d="M1.75,13.5 L16.25,13.5 C16.3880712,13.5 16.5,13.6119288 16.5,13.75 L16.5,14.75 C16.5,14.8880712 16.3880712,15 16.25,15 L1.75,15 C1.61192881,15 1.5,14.8880712 1.5,14.75 L1.5,13.75 C1.5,13.6119288 1.61192881,13.5 1.75,13.5 Z M8.25,5.54280179 L8.25,4.75 C8.25,4.33578644 8.58578644,4 9,4 C9.41421356,4 9.75,4.33578644 9.75,4.75 L9.75,5.54280179 C12.9865787,5.91465094 15.5,8.66380497 15.5,12 L15.5,12.25 C15.5,12.3880712 15.3880712,12.5 15.25,12.5 L2.75,12.5 C2.61192881,12.5 2.5,12.3880712 2.5,12.25 L2.5,12 C2.5,8.66380497 5.0134213,5.91465094 8.25,5.54280179 Z M13.75,11 C13.75,8.94865664 11.4973199,7 9,7 C6.50268009,7 4.25,8.94865664 4.25,11 C4.25,11.002754 13.75,11.002754 13.75,11 Z" id="shape" fill="#1F1F1F"></path>
    </g>
</svg>