<?xml version="1.0" encoding="UTF-8"?>
<svg width="18px" height="18px" viewBox="0 0 18 18" version="1.1" xmlns="http://www.w3.org/2000/svg" xmlns:xlink="http://www.w3.org/1999/xlink">
    <!-- Generator: Sketch 53.2 (72643) - https://sketchapp.com -->
    <title>编辑 / download</title>
    <desc>Created with Sketch.</desc>
    <g id="编辑-/-download" stroke="none" stroke-width="1" fill="none" fill-rule="evenodd">
        <path d="M3.5,14.5 L14.5,14.5 L14.5,6.5 L12.75,6.5 C12.6119288,6.5 12.5,6.38807119 12.5,6.25 L12.5,5.25 C12.5,5.11192881 12.6119288,5 12.75,5 L14.5,5 L15.5,5 C15.7761424,5 16,5.22385763 16,5.5 L16,15.5 C16,15.7761424 15.7761424,16 15.5,16 L2.5,16 C2.22385763,16 2,15.7761424 2,15.5 L2,5.5 C2,5.22385763 2.22385763,5 2.5,5 L5.25,5 C5.38807119,5 5.5,5.11192881 5.5,5.25 L5.5,6.25 C5.5,6.38807119 5.38807119,6.5 5.25,6.5 L3.5,6.5 L3.5,14.5 Z M11.9367205,8.39212043 L9.30996782,11.6974002 C9.1379926,11.9137991 8.85882549,11.9139624 8.68672049,11.6974002 L6.05996782,8.39212043 C5.8879926,8.17572159 5.97484881,8 6.25425646,8 L8.24834416,8 L8.24834416,2.34348657 C8.24834416,2.1921081 8.35924076,2.08952066 8.49603865,2.08952066 L9.50064967,2.08952066 C9.63064167,2.08952066 9.74834416,2.20322507 9.74834416,2.34348657 L9.74834416,8 L11.7424319,8 C12.0176313,8 12.1088255,8.1755583 11.9367205,8.39212043 Z" id="shape" fill="#1F1F1F"></path>
    </g>
</svg>