<?xml version="1.0" encoding="UTF-8"?>
<svg width="18px" height="18px" viewBox="0 0 18 18" version="1.1" xmlns="http://www.w3.org/2000/svg" xmlns:xlink="http://www.w3.org/1999/xlink">
    <!-- Generator: Sketch 57 (83077) - https://sketch.com -->
    <title>编辑 / draggable</title>
    <desc>Created with Sketch.</desc>
    <g id="编辑-/-draggable" stroke="none" stroke-width="1" fill="none" fill-rule="evenodd">
        <path d="M6.5,13 C7.32842712,13 8,13.6715729 8,14.5 C8,15.3284271 7.32842712,16 6.5,16 C5.67157288,16 5,15.3284271 5,14.5 C5,13.6715729 5.67157288,13 6.5,13 Z M11.5,13 C12.3284271,13 13,13.6715729 13,14.5 C13,15.3284271 12.3284271,16 11.5,16 C10.6715729,16 10,15.3284271 10,14.5 C10,13.6715729 10.6715729,13 11.5,13 Z M6.5,7.5 C7.32842712,7.5 8,8.17157288 8,9 C8,9.82842712 7.32842712,10.5 6.5,10.5 C5.67157288,10.5 5,9.82842712 5,9 C5,8.17157288 5.67157288,7.5 6.5,7.5 Z M11.5,7.5 C12.3284271,7.5 13,8.17157288 13,9 C13,9.82842712 12.3284271,10.5 11.5,10.5 C10.6715729,10.5 10,9.82842712 10,9 C10,8.17157288 10.6715729,7.5 11.5,7.5 Z M6.5,2 C7.32842712,2 8,2.67157288 8,3.5 C8,4.32842712 7.32842712,5 6.5,5 C5.67157288,5 5,4.32842712 5,3.5 C5,2.67157288 5.67157288,2 6.5,2 Z M11.5,2 C12.3284271,2 13,2.67157288 13,3.5 C13,4.32842712 12.3284271,5 11.5,5 C10.6715729,5 10,4.32842712 10,3.5 C10,2.67157288 10.6715729,2 11.5,2 Z" id="形状结合" fill="#1F1F1F"></path>
    </g>
</svg>