<?xml version="1.0" encoding="UTF-8"?>
<svg width="18px" height="18px" viewBox="0 0 18 18" version="1.1" xmlns="http://www.w3.org/2000/svg" xmlns:xlink="http://www.w3.org/1999/xlink">
    <!-- Generator: Sketch 53.2 (72643) - https://sketchapp.com -->
    <title>生活 / drink</title>
    <desc>Created with Sketch.</desc>
    <g id="生活-/-drink" stroke="none" stroke-width="1" fill="none" fill-rule="evenodd">
        <path d="M12.15,6 L13.5,4.5 L4.5,4.5 L5.85,6 L12.15,6 Z M9.75,11 L9.75,14.5 L13.25,14.5 C13.3880712,14.5 13.5,14.6119288 13.5,14.75 L13.5,15.75 C13.5,15.8880712 13.3880712,16 13.25,16 L4.75,16 C4.61192881,16 4.5,15.8880712 4.5,15.75 L4.5,14.75 C4.5,14.6119288 4.61192881,14.5 4.75,14.5 L8.25,14.5 L8.25,11 L2.62550172,4.64187151 C2.54463792,4.55046026 2.5,4.43262952 2.5,4.31058457 L2.5,3.5 C2.5,3.22385763 2.72385763,3 3,3 L15,3 C15.2761424,3 15.5,3.22385763 15.5,3.5 L15.5,4.31058457 C15.5,4.43262952 15.4553621,4.55046026 15.3744983,4.64187151 L9.75,11 L9.75,11 Z" id="shape" fill="#1F1F1F"></path>
    </g>
</svg>