<?xml version="1.0" encoding="UTF-8"?>
<svg width="18px" height="18px" viewBox="0 0 18 18" version="1.1" xmlns="http://www.w3.org/2000/svg" xmlns:xlink="http://www.w3.org/1999/xlink">
    <!-- Generator: Sketch 53.2 (72643) - https://sketchapp.com -->
    <title>编辑 / edit-outlined</title>
    <desc>Created with Sketch.</desc>
    <g id="编辑-/-edit-outlined" stroke="none" stroke-width="1" fill="none" fill-rule="evenodd">
        <path d="M13.2950227,6.09619408 L14.3556828,5.03553391 L12.9414693,3.62132034 L11.8808091,4.68198052 L13.2950227,6.09619408 L13.2950227,6.09619408 Z M12.2343625,7.15685425 L10.8201489,5.74264069 L4.45618789,12.1066017 L4.1026345,13.8743687 L5.87040146,13.5208153 L12.2343625,7.15685425 Z M13.648576,2.20710678 L15.7698964,4.32842712 C16.1604207,4.71895142 16.1604207,5.3521164 15.7698964,5.74264069 L6.57528925,14.9372478 L2.92719643,15.2669993 C2.81718797,15.276943 2.71994756,15.1958244 2.71000388,15.085816 C2.70892113,15.0738373 2.70892113,15.0617854 2.71000388,15.0498067 L3.03975535,11.4017139 L12.2343625,2.20710678 C12.6248868,1.81658249 13.2580518,1.81658249 13.648576,2.20710678 Z" id="shape" fill="#1F1F1F"></path>
    </g>
</svg>