<?xml version="1.0" encoding="UTF-8"?>
<svg width="18px" height="18px" viewBox="0 0 18 18" version="1.1" xmlns="http://www.w3.org/2000/svg" xmlns:xlink="http://www.w3.org/1999/xlink">
    <!-- Generator: Sketch 53.2 (72643) - https://sketchapp.com -->
    <title>生活 / education</title>
    <desc>Created with Sketch.</desc>
    <g id="生活-/-education" stroke="none" stroke-width="1" fill="none" fill-rule="evenodd">
        <path d="M3.5,2 L14.5,2 C14.7761424,2 15,2.22385763 15,2.5 L15,15.5 C15,15.7761424 14.7761424,16 14.5,16 L3.5,16 C3.22385763,16 3,15.7761424 3,15.5 L3,2.5 C3,2.22385763 3.22385763,2 3.5,2 Z M8.5,3.5 L8.5,8.92225027 C8.5,8.96487808 8.52979258,8.98281198 8.56654358,8.96160947 L10.5,7.84615385 L12.4334564,8.96160947 C12.4775391,8.98704177 12.5,8.96519026 12.5,8.92225027 L12.5,3.5 L8.5,3.5 Z" id="shape" fill="#1F1F1F"></path>
    </g>
</svg>