<?xml version="1.0" encoding="UTF-8"?>
<svg width="18px" height="18px" viewBox="0 0 18 18" version="1.1" xmlns="http://www.w3.org/2000/svg" xmlns:xlink="http://www.w3.org/1999/xlink">
    <!-- Generator: Sketch 53.2 (72643) - https://sketchapp.com -->
    <title>生活 / female</title>
    <desc>Created with Sketch.</desc>
    <g id="生活-/-female" stroke="none" stroke-width="1" fill="none" fill-rule="evenodd">
        <path d="M9.75,10.4379183 L9.75,11.503885 L11.75,11.503885 C12.0261424,11.503885 12.25,11.7277426 12.25,12.003885 L12.25,12.503885 C12.25,12.7800274 12.0261424,13.003885 11.75,13.003885 L9.75,13.003885 L9.75,15.5038849 C9.75,15.7800273 9.52614237,16.0038849 9.25,16.0038849 L8.75,16.0038849 C8.47385763,16.0038849 8.25,15.7800273 8.25,15.5038849 L8.25,13.003885 L6.25,13.003885 C5.97385763,13.003885 5.75,12.7800274 5.75,12.503885 L5.75,12.003885 C5.75,11.7277426 5.97385763,11.503885 6.25,11.503885 L8.25,11.503885 L8.25,10.4379183 C6.26049181,10.0836851 4.75,8.34518212 4.75,6.25388489 C4.75,3.90667471 6.65278981,2.00388489 9,2.00388489 C11.3472102,2.00388489 13.25,3.90667471 13.25,6.25388489 C13.25,8.34518212 11.7395082,10.0836851 9.75,10.4379183 L9.75,10.4379183 Z M9,9.00388489 C10.5187831,9.00388489 11.75,7.77266796 11.75,6.25388489 C11.75,4.73510183 10.5187831,3.50388489 9,3.50388489 C7.48121694,3.50388489 6.25,4.73510183 6.25,6.25388489 C6.25,7.77266796 7.48121694,9.00388489 9,9.00388489 Z" id="shape" fill="#1F1F1F"></path>
    </g>
</svg>