<?xml version="1.0" encoding="UTF-8"?>
<svg width="18px" height="18px" viewBox="0 0 18 18" version="1.1" xmlns="http://www.w3.org/2000/svg" xmlns:xlink="http://www.w3.org/1999/xlink">
    <!-- Generator: Sketch 53.2 (72643) - https://sketchapp.com -->
    <title>图表 / figure-ring-square</title>
    <desc>Created with Sketch.</desc>
    <g id="图表-/-figure-ring-square" stroke="none" stroke-width="1" fill="none" fill-rule="evenodd">
        <path d="M2,3 L16,3 C16.2761424,3 16.5,3.22385763 16.5,3.5 L16.5,15.5 C16.5,15.7761424 16.2761424,16 16,16 L2,16 C1.72385763,16 1.5,15.7761424 1.5,15.5 L1.5,3.5 C1.5,3.22385763 1.72385763,3 2,3 Z M2.75,4.25 L2.75,14.75 L15.25,14.75 L15.25,4.25 L2.75,4.25 Z M9.25,13 C7.45507456,13 6,11.5449254 6,9.75 L9.25,9.75 L9.25,6.5 C11.0449254,6.5 12.5,7.95507456 12.5,9.75 C12.5,11.5449254 11.0449254,13 9.25,13 Z M9.25,11.5 C10.2164983,11.5 11,10.7164983 11,9.75 C11,8.78350169 10.2164983,8 9.25,8 L9.25,9.75 L7.5,9.75 C7.5,10.7164983 8.28350169,11.5 9.25,11.5 Z M8.1484375,9 L8.5,9 L8.5,7.5 C7.67157288,7.5 7,8.17157288 7,9 L5.5,9 C5.5,7.34314575 6.84314575,6 8.5,6 L8.5,9 L8.14843859,9 L8.1484375,9 Z" id="shape" fill="#1F1F1F"></path>
    </g>
</svg>