<?xml version="1.0" encoding="UTF-8"?>
<svg width="18px" height="18px" viewBox="0 0 18 18" version="1.1" xmlns="http://www.w3.org/2000/svg" xmlns:xlink="http://www.w3.org/1999/xlink">
    <!-- Generator: Sketch 53.2 (72643) - https://sketchapp.com -->
    <title>图表 / figure-ring</title>
    <desc>Created with Sketch.</desc>
    <g id="图表-/-figure-ring" stroke="none" stroke-width="1" fill="none" fill-rule="evenodd">
        <path d="M9.5,15.5 C6.1862915,15.5 3.5,12.8137085 3.5,9.5 L9.5,9.5 L9.5,3.5 C12.8137085,3.5 15.5,6.1862915 15.5,9.5 C15.5,12.8137085 12.8137085,15.5 9.5,15.5 Z M9.5,12.5 C7.84314575,12.5 6.5,11.1568542 6.5,9.5 L9.5,9.5 L9.5,6.5 C11.1568542,6.5 12.5,7.84314575 12.5,9.5 C12.5,11.1568542 11.1568542,12.5 9.5,12.5 Z M8,5.54147922 C6.74374757,5.75223844 5.75223844,6.74374757 5.54147922,8 L2.5,8 C2.5,4.96243388 4.96243388,2.5 8,2.5 L8,5.54147922 L8,5.54147922 Z" id="shape" fill="#1F1F1F"></path>
    </g>
</svg>