<?xml version="1.0" encoding="UTF-8"?>
<svg width="18px" height="18px" viewBox="0 0 18 18" version="1.1" xmlns="http://www.w3.org/2000/svg" xmlns:xlink="http://www.w3.org/1999/xlink">
    <!-- Generator: Sketch 53.2 (72643) - https://sketchapp.com -->
    <title>工具 / file-outlined</title>
    <desc>Created with Sketch.</desc>
    <g id="工具-/-file-outlined" stroke="none" stroke-width="1" fill="none" fill-rule="evenodd">
        <path d="M3,14.9230769 L3,3.07692308 C3,2.21538462 3.21727273,2 4.09,2 L10.7540694,2 C10.880064,2 11.0769511,2.07695106 11.171875,2.171875 L14.828125,5.828125 C14.9164543,5.91645432 15,6.11525409 15,6.25742722 L15,14.9230769 C15,15.7846154 14.7827273,16 13.91,16 L4.09,16 C3.21727273,16 3,15.7846154 3,14.9230769 Z M11,4.25 L11,6 L12.75,6 L11,4.25 Z M9.5,3.5 L4.5,3.5 L4.5,14.5 L13.5,14.5 L13.5,7.5 L9.5,7.5 L9.5,3.5 Z" id="shape" fill="#1F1F1F"></path>
    </g>
</svg>