<?xml version="1.0" encoding="UTF-8"?>
<svg width="18px" height="18px" viewBox="0 0 18 18" version="1.1" xmlns="http://www.w3.org/2000/svg" xmlns:xlink="http://www.w3.org/1999/xlink">
    <!-- Generator: Sketch 53.2 (72643) - https://sketchapp.com -->
    <title>编辑 / filp</title>
    <desc>Created with Sketch.</desc>
    <g id="编辑-/-filp" stroke="none" stroke-width="1" fill="none" fill-rule="evenodd">
        <path d="M9.75,14 L12,14 L12,15.5 L9.75,15.5 L9.75,16.5018424 C9.75,16.7769673 9.52866983,17 9.24216843,17 L8.75783157,17 C8.47736394,17 8.25,16.7808871 8.25,16.5018424 L8.25,15.5 L2.49042702,15.5 C2.21957165,15.5 2,15.2830391 2,14.9945034 L2,3.50549656 C2,3.22631852 2.22244081,3 2.49042702,3 L8.25,3 L8.25,1.99815755 C8.25,1.72303273 8.47133017,1.5 8.75783157,1.5 L9.24216843,1.5 C9.52263606,1.5 9.75,1.71911287 9.75,1.99815755 L9.75,3 L12,3 L12,4.5 L9.75,4.5 L9.75,14 Z M8.25,14 L8.25,4.5 L3.5,4.5 L3.5,14 L8.25,14 Z M13.5,3 L15.4940877,3 C15.7734953,3 16,3.22133017 16,3.50783157 L16,4.5 L13.5,4.5 L13.5,3 Z M13.5,14 L16,14 L16,14.9921684 C16,15.2726361 15.7692871,15.5 15.4940877,15.5 L13.5,15.5 L13.5,14 Z M14.5,6 L16,6 L16,8.5 L14.5,8.5 L14.5,6 Z M14.5,10 L16,10 L16,12.5 L14.5,12.5 L14.5,10 Z" id="shape" fill="#1F1F1F"></path>
    </g>
</svg>