<?xml version="1.0" encoding="UTF-8"?>
<svg width="18px" height="18px" viewBox="0 0 18 18" version="1.1" xmlns="http://www.w3.org/2000/svg" xmlns:xlink="http://www.w3.org/1999/xlink">
    <!-- Generator: Sketch 53.2 (72643) - https://sketchapp.com -->
    <title>编辑 / filter-outlined</title>
    <desc>Created with Sketch.</desc>
    <g id="编辑-/-filter-outlined" stroke="none" stroke-width="1" fill="none" fill-rule="evenodd">
        <path d="M7,10.0119048 L3.16048551,5.2353659 C3.06738281,5.11954171 3,4.92395626 3,4.78609576 L3,3.49278964 C3,3.21785709 3.22401312,3 3.50034732,3 L14.4996527,3 C14.7709994,3 15,3.22062944 15,3.49278964 L15,4.78609576 C15,4.92626544 14.9281482,5.12510136 14.8395145,5.2353659 L11,10.0119048 L11,14.2473794 C11,14.6630403 10.6589622,15 10.2476306,15 L7.7523694,15 C7.33684726,15 7,14.65625 7,14.2473794 L7,10.0119048 Z M8.5,9.5 L8.5,13.5 L9.5,13.5 L9.5,9.5 L13.2469969,4.78283115 L13.2469969,4.5 L4.74627284,4.5 L4.74627284,4.78283115 L8.5,9.5 Z" id="shape" fill="#1F1F1F"></path>
    </g>
</svg>