<?xml version="1.0" encoding="UTF-8"?>
<svg width="18px" height="18px" viewBox="0 0 18 18" version="1.1" xmlns="http://www.w3.org/2000/svg" xmlns:xlink="http://www.w3.org/1999/xlink">
    <!-- Generator: Sketch 53.2 (72643) - https://sketchapp.com -->
    <title>编辑 / fix-outlined</title>
    <desc>Created with Sketch.</desc>
    <g id="编辑-/-fix-outlined" stroke="none" stroke-width="1" fill="none" fill-rule="evenodd">
        <path d="M15.0104076,7.03731257 L13.2763959,8.77132428 L9.74086202,5.23579037 L11.472914,3.50373842 C10.589128,3.51270103 9.70808942,3.85434942 9.03375524,4.52868359 C7.78695914,5.77547969 7.67746234,7.72890299 8.70526485,9.09981467 L3.73045438,14.0746251 L4.43756116,14.7817319 L9.41237163,9.80692146 C10.7832833,10.834724 12.7367066,10.7252272 13.9835027,9.47843106 C14.6578328,8.80410093 14.9994812,7.92306884 15.0084477,7.03928823 L15.0104076,7.03731257 Z M16.3417841,5.70593611 C16.4439772,6.09212501 16.3634247,5.80346048 16.3733856,5.84548065 C16.7602402,7.47743335 16.317166,9.26608813 15.0441629,10.5390912 C13.5943684,11.9888857 11.4757521,12.3622278 9.68149594,11.6591175 L4.79198489,16.5486285 C4.59624207,16.7443714 4.28549264,16.7509837 4.09074048,16.5562316 L1.95595472,14.4214458 C1.76441095,14.229902 1.77159227,13.9121669 1.96355776,13.7202014 L6.85306882,8.83069036 C6.14995849,7.03643419 6.52330058,4.91781792 7.97309507,3.46802342 C9.27697844,2.16414005 11.1360325,1.73979161 12.7993807,2.17727171 L12.8062502,2.1704022 C13.0875944,2.25245081 13.3467496,2.34675545 13.5837159,2.45331613 C13.7953486,2.5484846 14.0003161,2.65839003 14.1986184,2.78303242 C14.2144437,2.79297935 14.2380861,2.80811092 14.2695456,2.82842712 L12.0036037,5.09436902 C11.9254989,5.17247388 11.9254989,5.29910687 12.0036037,5.37721173 L13.1349746,6.50858258 C13.2130794,6.58668744 13.3397124,6.58668744 13.4178173,6.50858258 L15.6837592,4.24264069 C15.7703565,4.32923796 15.8711672,4.50051197 15.9861915,4.7564627 C16.1012157,5.01241343 16.2197466,5.32890456 16.3417841,5.70593611 L16.3417841,5.70593611 Z" id="shape" fill="#1F1F1F"></path>
    </g>
</svg>