<?xml version="1.0" encoding="UTF-8"?>
<svg width="18px" height="18px" viewBox="0 0 18 18" version="1.1" xmlns="http://www.w3.org/2000/svg" xmlns:xlink="http://www.w3.org/1999/xlink">
    <!-- Generator: Sketch 53.2 (72643) - https://sketchapp.com -->
    <title>编辑 / fix</title>
    <desc>Created with Sketch.</desc>
    <g id="编辑-/-fix" stroke="none" stroke-width="1" fill="none" fill-rule="evenodd">
        <path d="M9.88055568,11.1298899 L4.39706441,16.6133812 C4.20132159,16.809124 3.89008056,16.8152448 3.69234778,16.617512 L2.27161325,15.1967775 C2.07815182,15.0033161 2.08377857,14.6840264 2.27574407,14.4920609 L7.75923534,9.0085696 C6.96018067,7.33587798 7.25338048,5.27178377 8.63883476,3.88632949 C9.41411289,3.11105136 10.4042832,2.68018233 11.4188796,2.59075444 C11.9768104,2.54157766 12.719739,2.64713539 13.0831586,2.75248043 C13.4465782,2.85782547 13.5885975,3.06153724 13.6027244,3.10851203 C13.6168512,3.15548682 13.4887461,3.27905881 13.4887461,3.27905881 L11.2551653,5.51263962 C11.1724176,5.59538732 11.1760241,5.71641203 11.2528943,5.79328219 L13.0958431,7.63623103 C13.1738296,7.71421754 13.2983612,7.71208441 13.3764857,7.63395997 L15.6100665,5.40037916 C15.6100665,5.40037916 15.7364209,5.27130323 15.7806133,5.28640092 C15.8101677,5.29649777 16.0445347,5.5219152 16.147359,5.81668088 C16.2501834,6.11144656 16.2986654,6.48374429 16.3167611,6.82337125 C16.3823947,8.05520658 15.94349,9.30959628 15.0027958,10.2502905 C13.6173415,11.6357448 11.5532473,11.9289446 9.88055568,11.1298899 L9.88055568,11.1298899 Z" id="shape" fill="#1F1F1F"></path>
    </g>
</svg>