<?xml version="1.0" encoding="UTF-8"?>
<svg width="18px" height="18px" viewBox="0 0 18 18" version="1.1" xmlns="http://www.w3.org/2000/svg" xmlns:xlink="http://www.w3.org/1999/xlink">
    <!-- Generator: Sketch 53.2 (72643) - https://sketchapp.com -->
    <title>编辑 / format-align-center</title>
    <desc>Created with Sketch.</desc>
    <g id="编辑-/-format-align-center" stroke="none" stroke-width="1" fill="none" fill-rule="evenodd">
        <path d="M6.00342274,4 L11.9965773,4 C12.2670975,4 12.5,4.22595492 12.5,4.50468445 L12.5,5.49531555 C12.5,5.78596497 12.27461,6 11.9965773,6 L6.00342274,6 C5.73290253,6 5.5,5.77404508 5.5,5.49531555 L5.5,4.50468445 C5.5,4.21403503 5.72539004,4 6.00342274,4 Z M6.00342274,12 L11.9965773,12 C12.2670975,12 12.5,12.2259549 12.5,12.5046844 L12.5,13.4953156 C12.5,13.785965 12.27461,14 11.9965773,14 L6.00342274,14 C5.73290253,14 5.5,13.7740451 5.5,13.4953156 L5.5,12.5046844 C5.5,12.214035 5.72539004,12 6.00342274,12 Z M3.50034732,8 L14.4996527,8 C14.7709994,8 15,8.22595492 15,8.50468445 L15,9.49531555 C15,9.78596497 14.7759869,10 14.4996527,10 L3.50034732,10 C3.22900057,10 3,9.77404508 3,9.49531555 L3,8.50468445 C3,8.21403503 3.22401312,8 3.50034732,8 Z" id="shape" fill="#1F1F1F"></path>
    </g>
</svg>