<?xml version="1.0" encoding="UTF-8"?>
<svg width="18px" height="18px" viewBox="0 0 18 18" version="1.1" xmlns="http://www.w3.org/2000/svg" xmlns:xlink="http://www.w3.org/1999/xlink">
    <!-- Generator: Sketch 53.2 (72643) - https://sketchapp.com -->
    <title>编辑 / format-align-left</title>
    <desc>Created with Sketch.</desc>
    <g id="编辑-/-format-align-left" stroke="none" stroke-width="1" fill="none" fill-rule="evenodd">
        <path d="M3.50342274,4 L9.49657726,4 C9.76709747,4 10,4.22595492 10,4.50468445 L10,5.49531555 C10,5.78596497 9.77460996,6 9.49657726,6 L3.50342274,6 C3.23290253,6 3,5.77404508 3,5.49531555 L3,4.50468445 C3,4.21403503 3.22539004,4 3.50342274,4 Z M3.50034732,8 L14.4996527,8 C14.7709994,8 15,8.22595492 15,8.50468445 L15,9.49531555 C15,9.78596497 14.7759869,10 14.4996527,10 L3.50034732,10 C3.22900057,10 3,9.77404508 3,9.49531555 L3,8.50468445 C3,8.21403503 3.22401312,8 3.50034732,8 Z M3.50034732,12 L14.4996527,12 C14.7709994,12 15,12.2259549 15,12.5046844 L15,13.4953156 C15,13.785965 14.7759869,14 14.4996527,14 L3.50034732,14 C3.22900057,14 3,13.7740451 3,13.4953156 L3,12.5046844 C3,12.214035 3.22401312,12 3.50034732,12 Z" id="shape" fill="#1F1F1F"></path>
    </g>
</svg>