<?xml version="1.0" encoding="UTF-8"?>
<svg width="18px" height="18px" viewBox="0 0 18 18" version="1.1" xmlns="http://www.w3.org/2000/svg" xmlns:xlink="http://www.w3.org/1999/xlink">
    <!-- Generator: Sketch 53.2 (72643) - https://sketchapp.com -->
    <title>生活 / furniture-outlined</title>
    <desc>Created with Sketch.</desc>
    <g id="生活-/-furniture-outlined" stroke="none" stroke-width="1" fill="none" fill-rule="evenodd">
        <path d="M13.5,6 L13.5,4.5 C13.5,3.94771525 13.0522847,3.5 12.5,3.5 L5.5,3.5 C4.94771525,3.5 4.5,3.94771525 4.5,4.5 L4.5,6 C5.32842712,6 6,6.67157288 6,7.5 L6,9 L12,9 L12,7.5 C12,6.67157288 12.6715729,6 13.5,6 L13.5,6 Z M3,6 L3,4 C3,2.8954305 3.8954305,2 5,2 L13,2 C14.1045695,2 15,2.8954305 15,4 L15,6 L15.5,6 C16.3284271,6 17,6.67157288 17,7.5 L17,13.5 C17,14.3284271 16.3284271,15 15.5,15 L15,15 L15,15.5 C15,15.7761424 14.7761424,16 14.5,16 L12.5,16 C12.2238576,16 12,15.7761424 12,15.5 L12,15 L6,15 L6,15.5 C6,15.7761424 5.77614237,16 5.5,16 L3.5,16 C3.22385763,16 3,15.7761424 3,15.5 L3,15 L2.5,15 C1.67157288,15 1,14.3284271 1,13.5 L1,7.5 C1,6.67157288 1.67157288,6 2.5,6 L3,6 Z M6,10.5 L6,13.5 L12,13.5 L12,10.5 L6,10.5 Z M14,7.5 C13.7238576,7.5 13.5,7.72385763 13.5,8 L13.5,13 C13.5,13.2761424 13.7238576,13.5 14,13.5 L15,13.5 C15.2761424,13.5 15.5,13.2761424 15.5,13 L15.5,8 C15.5,7.72385763 15.2761424,7.5 15,7.5 L14,7.5 Z M3,7.5 C2.72385763,7.5 2.5,7.72385763 2.5,8 L2.5,13 C2.5,13.2761424 2.72385763,13.5 3,13.5 L4,13.5 C4.27614237,13.5 4.5,13.2761424 4.5,13 L4.5,8 C4.5,7.72385763 4.27614237,7.5 4,7.5 L3,7.5 Z" id="shape" fill="#1F1F1F"></path>
    </g>
</svg>