<?xml version="1.0" encoding="UTF-8"?>
<svg width="18px" height="18px" viewBox="0 0 18 18" version="1.1" xmlns="http://www.w3.org/2000/svg" xmlns:xlink="http://www.w3.org/1999/xlink">
    <!-- Generator: Sketch 53.2 (72643) - https://sketchapp.com -->
    <title>生活 / game-outlined</title>
    <desc>Created with Sketch.</desc>
    <g id="生活-/-game-outlined" stroke="none" stroke-width="1" fill="none" fill-rule="evenodd">
        <path d="M8.25,5.5 L8.25,3.25 C8.25,3.11192881 8.36192881,3 8.5,3 L9.5,3 C9.63807119,3 9.75,3.11192881 9.75,3.25 L9.75,5.5 L16,5.5 C16.5522847,5.5 17,5.94771525 17,6.5 L17,14 C17,14.5522847 16.5522847,15 16,15 L2,15 C1.44771525,15 1,14.5522847 1,14 L1,6.5 C1,5.94771525 1.44771525,5.5 2,5.5 L8.25,5.5 Z M2.5,7 L2.5,13.5 L15.5,13.5 L15.5,7 L2.5,7 Z M13,10 C12.4477153,10 12,9.55228475 12,9 C12,8.44771525 12.4477153,8 13,8 C13.5522847,8 14,8.44771525 14,9 C14,9.55228475 13.5522847,10 13,10 Z M11.25,12.5 C10.6977153,12.5 10.25,12.0522847 10.25,11.5 C10.25,10.9477153 10.6977153,10.5 11.25,10.5 C11.8022847,10.5 12.25,10.9477153 12.25,11.5 C12.25,12.0522847 11.8022847,12.5 11.25,12.5 Z M5.25,9.5 L5.25,8.25 L6.75,8.25 L6.75,9.5 L8,9.5 L8,11 L6.75,11 L6.75,12.25 L5.25,12.25 L5.25,11 L4,11 L4,9.5 L5.25,9.5 Z" id="shape" fill="#1F1F1F"></path>
    </g>
</svg>