<?xml version="1.0" encoding="UTF-8"?>
<svg width="18px" height="18px" viewBox="0 0 18 18" version="1.1" xmlns="http://www.w3.org/2000/svg" xmlns:xlink="http://www.w3.org/1999/xlink">
    <!-- Generator: Sketch 53.2 (72643) - https://sketchapp.com -->
    <title>生活 / gender</title>
    <desc>Created with Sketch.</desc>
    <g id="生活-/-gender" stroke="none" stroke-width="1" fill="none" fill-rule="evenodd">
        <path d="M12,9.92498641 C10.2883198,9.57753366 9,8.06421843 9,6.25 C9,4.17893219 10.6789322,2.5 12.75,2.5 C14.8210678,2.5 16.5,4.17893219 16.5,6.25 C16.5,8.06421843 15.2116802,9.57753366 13.5,9.92498641 L13.5,10.9961151 L15.25,10.9961151 C15.5261424,10.9961151 15.75,11.2199727 15.75,11.4961151 L15.75,11.9961151 C15.75,12.2722575 15.5261424,12.4961151 15.25,12.4961151 L13.5,12.4961151 L13.5,15.4961151 C13.5,15.7722575 13.2761424,15.9961151 13,15.9961151 L12.5,15.9961151 C12.2238576,15.9961151 12,15.7722575 12,15.4961151 L12,12.4961151 L10.25,12.4961151 C9.97385763,12.4961151 9.75,12.2722575 9.75,11.9961151 L9.75,11.4961151 C9.75,11.2199727 9.97385763,10.9961151 10.25,10.9961151 L12,10.9961151 L12,9.92498641 Z M12.75,8.49611511 C13.9926407,8.49611511 15,7.48875579 15,6.24611511 C15,5.00347442 13.9926407,3.99611511 12.75,3.99611511 C11.5073593,3.99611511 10.5,5.00347442 10.5,6.24611511 C10.5,7.48875579 11.5073593,8.49611511 12.75,8.49611511 Z M6,8.57889848 C7.71168024,8.92635123 9,10.4396665 9,12.2538849 C9,14.3249527 7.32106781,16.0038849 5.25,16.0038849 C3.17893219,16.0038849 1.5,14.3249527 1.5,12.2538849 C1.5,10.4396665 2.78831976,8.92635123 4.5,8.57889848 L4.5,5.03635557 L3.05716769,6.43711118 C2.85440565,6.63396016 2.5398076,6.62591886 2.3417107,6.43156025 L2.03353719,6.12920228 C1.83509256,5.9345025 1.83458276,5.62221133 2.03162184,5.43091841 L4.53716094,2.99844726 C4.55008406,2.98232978 4.56413986,2.96677389 4.5793203,2.95187992 L4.88749473,2.64952103 C4.95446295,2.58381657 5.03527113,2.54004081 5.12052425,2.51822765 C5.29203515,2.47076055 5.48217047,2.51650992 5.6177415,2.64952258 L5.925915,2.95188054 C5.94086335,2.96654679 5.95468856,2.98188029 5.96739081,2.99777904 L8.47361769,5.43091774 C8.67637988,5.62776685 8.66979901,5.9348437 8.47170152,6.12920291 L8.16352709,6.43156179 C7.96508186,6.62626216 7.64510799,6.62840661 7.44806877,6.43711358 L6,5.03127431 L6,8.57889848 Z M5.25,14.5 C6.49264069,14.5 7.5,13.4926407 7.5,12.25 C7.5,11.0073593 6.49264069,10 5.25,10 C4.00735931,10 3,11.0073593 3,12.25 C3,13.4926407 4.00735931,14.5 5.25,14.5 Z" id="shape" fill="#1F1F1F"></path>
    </g>
</svg>