<?xml version="1.0" encoding="UTF-8"?>
<svg width="18px" height="18px" viewBox="0 0 18 18" version="1.1" xmlns="http://www.w3.org/2000/svg" xmlns:xlink="http://www.w3.org/1999/xlink">
    <!-- Generator: Sketch 53.2 (72643) - https://sketchapp.com -->
    <title>生活 / happy</title>
    <desc>Created with Sketch.</desc>
    <g id="生活-/-happy" stroke="none" stroke-width="1" fill="none" fill-rule="evenodd">
        <path d="M9,16.5 C4.85786438,16.5 1.5,13.1421356 1.5,9 C1.5,4.85786438 4.85786438,1.5 9,1.5 C13.1421356,1.5 16.5,4.85786438 16.5,9 C16.5,13.1421356 13.1421356,16.5 9,16.5 Z M9,15 C12.3137085,15 15,12.3137085 15,9 C15,5.6862915 12.3137085,3 9,3 C5.6862915,3 3,5.6862915 3,9 C3,12.3137085 5.6862915,15 9,15 Z M6.25,8.25 C5.69771525,8.25 5.25,7.80228475 5.25,7.25 C5.25,6.69771525 5.69771525,6.25 6.25,6.25 C6.80228475,6.25 7.25,6.69771525 7.25,7.25 C7.25,7.80228475 6.80228475,8.25 6.25,8.25 Z M11.5,8.25 C10.9477153,8.25 10.5,7.80228475 10.5,7.25 C10.5,6.69771525 10.9477153,6.25 11.5,6.25 C12.0522847,6.25 12.5,6.69771525 12.5,7.25 C12.5,7.80228475 12.0522847,8.25 11.5,8.25 Z M9,13.5 C6.790861,13.5 5,11.709139 5,9.5 L13,9.5 C13,11.709139 11.209139,13.5 9,13.5 Z" id="shape" fill="#1F1F1F"></path>
    </g>
</svg>