<?xml version="1.0" encoding="UTF-8"?>
<svg width="18px" height="18px" viewBox="0 0 18 18" version="1.1" xmlns="http://www.w3.org/2000/svg" xmlns:xlink="http://www.w3.org/1999/xlink">
    <!-- Generator: Sketch 53.2 (72643) - https://sketchapp.com -->
    <title>生活 / heart-outlined</title>
    <desc>Created with Sketch.</desc>
    <g id="生活-/-heart-outlined" stroke="none" stroke-width="1" fill="none" fill-rule="evenodd">
        <path d="M14.7483162,7.64394724 L14.7483329,7.59268801 C14.7497203,7.54446884 14.7497203,7.54446884 14.75,7.49591738 C14.75,5.97958517 13.5189789,4.75 12,4.75 C11.0236906,4.75 10.136969,5.26147111 9.64219397,6.08163865 L9,7.14617632 L8.35780603,6.08163865 C7.86303102,5.26147111 6.9763094,4.75 6,4.75 C4.48102111,4.75 3.25,5.97958517 3.25,7.49591738 C3.25027973,7.54446884 3.25027973,7.54446884 3.2516838,7.64394724 C3.25028557,7.69374375 3.25028557,7.69374375 3.25,7.74562576 C3.25,9.58640374 4.86090041,11.6384946 8.17500583,13.8311649 L8.60146387,14.0996723 C8.84612563,14.2537128 9.15754086,14.2534126 9.40190011,14.0989018 C9.6901774,13.9166212 9.88654546,13.7903551 9.98639381,13.7232286 C12.3825174,12.1123511 13.8676533,10.5724171 14.4575309,9.13885616 C14.6537667,8.66195057 14.75,8.19894145 14.75,7.74562576 C14.7497144,7.69374375 14.7497144,7.69374375 14.7483162,7.64394724 Z M16.25,7.74562576 C16.25,8.3999435 16.1136398,9.05601586 15.8446884,9.70963983 C15.1220376,11.4658752 13.4429916,13.2068743 10.8232796,14.9680668 C10.7082958,15.0453687 10.5032567,15.1772103 10.2035521,15.3667165 C9.47047483,15.8302486 8.53623888,15.8311491 7.80225822,15.3690305 C7.44687039,15.1452705 7.44687039,15.1452705 7.36159313,15.0913531 C3.65603247,12.6399444 1.75,10.2118912 1.75,7.74562576 C1.75041894,7.66894293 1.75041894,7.66894293 1.75255997,7.64443469 C1.75042864,7.57035193 1.75042864,7.57035193 1.75,7.49591738 C1.75,5.15076588 3.65298564,3.25 6,3.25 C7.14849218,3.25 8.21806782,3.70926406 9,4.48791152 C9.78193218,3.70926406 10.8515078,3.25 12,3.25 C14.3470144,3.25 16.25,5.15076588 16.25,7.49591738 C16.2496274,7.56061738 16.2495787,7.56907885 16.2481726,7.61883805 C16.2495879,7.67019623 16.2496346,7.67874631 16.25,7.74562576 Z" id="shape" fill="#1F1F1F"></path>
    </g>
</svg>