<?xml version="1.0" encoding="UTF-8"?>
<svg width="18px" height="18px" viewBox="0 0 18 18" version="1.1" xmlns="http://www.w3.org/2000/svg" xmlns:xlink="http://www.w3.org/1999/xlink">
    <!-- Generator: Sketch 53.2 (72643) - https://sketchapp.com -->
    <title>生活 / heart</title>
    <desc>Created with Sketch.</desc>
    <g id="生活-/-heart" stroke="none" stroke-width="1" fill="none" fill-rule="evenodd">
        <path d="M15.9977239,7.39691222 C15.9992413,7.44171717 16,7.48733003 16,7.53375082 C16,8.13016882 15.8747573,8.73275116 15.6242719,9.34149784 C14.9175259,11.0590804 13.2137356,12.8257368 10.5129011,14.6414668 C10.3897763,14.7242417 10.1528388,14.8763621 9.80208868,15.0978282 C9.31345748,15.4063532 8.69104795,15.4067507 8.20202315,15.0988499 L8.20203271,15.0988347 L7.68119927,14.7709065 C3.89373309,12.2653133 2,9.85292806 2,7.53375082 C2,7.48733003 2.00075871,7.44171717 2.00227613,7.39691222 C2.00076285,7.35307243 2,7.30904225 2,7.2648341 C2,5.18557364 3.6875421,3.5 5.76923077,3.5 C7.14032892,3.5 8.34044,4.23122876 9,5.32455337 C9.65956,4.23122876 10.8596711,3.5 12.2307692,3.5 C14.3124579,3.5 16,5.18557364 16,7.2648341 C16,7.30904225 15.9992371,7.35307243 15.9977239,7.39691222 L15.9977239,7.39691222 Z" id="shape" fill="#1F1F1F"></path>
    </g>
</svg>