<?xml version="1.0" encoding="UTF-8"?>
<svg width="18px" height="18px" viewBox="0 0 18 18" version="1.1" xmlns="http://www.w3.org/2000/svg" xmlns:xlink="http://www.w3.org/1999/xlink">
    <!-- Generator: Sketch 53.2 (72643) - https://sketchapp.com -->
    <title>反馈 / help-circle</title>
    <desc>Created with Sketch.</desc>
    <g id="反馈-/-help-circle" stroke="none" stroke-width="1" fill="none" fill-rule="evenodd">
        <path d="M9,16 C5.13400675,16 2,12.8659932 2,9 C2,5.13400675 5.13400675,2 9,2 C12.8659932,2 16,5.13400675 16,9 C16,12.8659932 12.8659932,16 9,16 Z M8.25,13.5 L9.75,13.5 L9.75,12 L8.25,12 L8.25,13.5 Z M9.7534603,10.5 C9.7534603,10.296 9.9654603,10.136 10.7534603,9.5 C11.4734603,8.919 12.2534603,8.453 12.2534603,7.25 C12.2534603,6.365 11.9324603,5.672 11.3744603,5.221 C10.8064603,4.761 10.1504603,4.5 9.2534603,4.5 C8.1944603,4.5 7.3804603,4.85 6.8174603,5.439 C6.1704603,6.115 6.2534603,6.838 6.2534603,7.5 L7.7534603,7.5 L7.7534603,7.221 C7.7534603,6.939 7.8094603,6.513 8.2534603,6.221 C8.4674603,6.08 8.8584603,6.004 9.2544603,6 C9.6354603,5.996 10.0194603,6.06 10.2534603,6.221 C10.7234603,6.546 10.7534603,6.895 10.7534603,7.25 C10.7534603,7.638 10.4174603,8.013 9.7534603,8.5 C8.7474603,9.238 8.2534603,9.518 8.2534603,10 L8.2534603,11 L9.7554603,11 C9.7554603,10.756 9.7534603,10.752 9.7534603,10.5 Z" id="shape" fill="#1F1F1F"></path>
    </g>
</svg>