<?xml version="1.0" encoding="UTF-8"?>
<svg width="18px" height="18px" viewBox="0 0 18 18" version="1.1" xmlns="http://www.w3.org/2000/svg" xmlns:xlink="http://www.w3.org/1999/xlink">
    <!-- Generator: Sketch 53.2 (72643) - https://sketchapp.com -->
    <title>图表 / histogram-square </title>
    <desc>Created with Sketch.</desc>
    <g id="图表-/-histogram-square-" stroke="none" stroke-width="1" fill="none" fill-rule="evenodd">
        <path d="M2,3 L16,3 C16.2761424,3 16.5,3.22385763 16.5,3.5 L16.5,15.5 C16.5,15.7761424 16.2761424,16 16,16 L2,16 C1.72385763,16 1.5,15.7761424 1.5,15.5 L1.5,3.5 C1.5,3.22385763 1.72385763,3 2,3 Z M2.75,4.25 L2.75,14.75 L15.25,14.75 L15.25,4.25 L2.75,4.25 Z M4.75,10 L6.75,10 L6.75,13 L4.75,13 L4.75,10 Z M8,6 L10,6 L10,13 L8,13 L8,6 Z M11.25,8 L13.25,8 L13.25,13 L11.25,13 L11.25,8 Z" id="shape" fill="#1F1F1F"></path>
    </g>
</svg>