<?xml version="1.0" encoding="UTF-8"?>
<svg width="18px" height="18px" viewBox="0 0 18 18" version="1.1" xmlns="http://www.w3.org/2000/svg" xmlns:xlink="http://www.w3.org/1999/xlink">
    <!-- Generator: Sketch 53.2 (72643) - https://sketchapp.com -->
    <title>图表 / histogram</title>
    <desc>Created with Sketch.</desc>
    <g id="图表-/-histogram" stroke="none" stroke-width="1" fill="none" fill-rule="evenodd">
        <path d="M2.25,9 L3.75,9 C4.02614237,9 4.25,9.22385763 4.25,9.5 L4.25,13.5 C4.25,13.7761424 4.02614237,14 3.75,14 L2.25,14 C1.97385763,14 1.75,13.7761424 1.75,13.5 L1.75,9.5 C1.75,9.22385763 1.97385763,9 2.25,9 Z M6.25,4 L7.75,4 C8.02614237,4 8.25,4.22385763 8.25,4.5 L8.25,13.5 C8.25,13.7761424 8.02614237,14 7.75,14 L6.25,14 C5.97385763,14 5.75,13.7761424 5.75,13.5 L5.75,4.5 C5.75,4.22385763 5.97385763,4 6.25,4 Z M10.25,7 L11.75,7 C12.0261424,7 12.25,7.22385763 12.25,7.5 L12.25,13.5 C12.25,13.7761424 12.0261424,14 11.75,14 L10.25,14 C9.97385763,14 9.75,13.7761424 9.75,13.5 L9.75,7.5 C9.75,7.22385763 9.97385763,7 10.25,7 Z M14.25,10 L15.75,10 C16.0261424,10 16.25,10.2238576 16.25,10.5 L16.25,13.5 C16.25,13.7761424 16.0261424,14 15.75,14 L14.25,14 C13.9738576,14 13.75,13.7761424 13.75,13.5 L13.75,10.5 C13.75,10.2238576 13.9738576,10 14.25,10 Z" id="shape" fill="#1F1F1F"></path>
    </g>
</svg>