<?xml version="1.0" encoding="UTF-8"?>
<svg width="18px" height="18px" viewBox="0 0 18 18" version="1.1" xmlns="http://www.w3.org/2000/svg" xmlns:xlink="http://www.w3.org/1999/xlink">
    <!-- Generator: Sketch 53.2 (72643) - https://sketchapp.com -->
    <title>图表 / histogram-outlined</title>
    <desc>Created with Sketch.</desc>
    <g id="图表-/-histogram-outlined" stroke="none" stroke-width="1" fill="none" fill-rule="evenodd">
        <path d="M13.5,9.5 L16.5,9.5 C16.7761424,9.5 17,9.72385763 17,10 L17,14 C17,14.2761424 16.7761424,14.5 16.5,14.5 L2,14.5 C1.72385763,14.5 1.5,14.2761424 1.5,14 L1.5,9 C1.5,8.72385763 1.72385763,8.5 2,8.5 L5,8.5 L5,4 C5,3.72385763 5.22385763,3.5 5.5,3.5 L9.5,3.5 C9.77614237,3.5 10,3.72385763 10,4 L10,6.5 L13,6.5 C13.2761424,6.5 13.5,6.72385763 13.5,7 L13.5,9.5 Z M3,10 L3,13 L5,13 L5,10 L3,10 Z M6.5,5 L6.5,13 L8.5,13 L8.5,5 L6.5,5 Z M10,8 L10,13 L12,13 L12,8 L10,8 Z M13.5,10.75 L13.5,13 L15.5,13 L15.5,10.75 L13.5,10.75 Z" id="shape" fill="#1F1F1F"></path>
    </g>
</svg>