<?xml version="1.0" encoding="UTF-8"?>
<svg width="18px" height="18px" viewBox="0 0 18 18" version="1.1" xmlns="http://www.w3.org/2000/svg" xmlns:xlink="http://www.w3.org/1999/xlink">
    <!-- Generator: Sketch 53.2 (72643) - https://sketchapp.com -->
    <title>工具 / image-outlined</title>
    <desc>Created with Sketch.</desc>
    <g id="工具-/-image-outlined" stroke="none" stroke-width="1" fill="none" fill-rule="evenodd">
        <path d="M14.5,11.6448788 L12.5474343,9.69231316 L9.9077603,12.3319872 L9.90694202,12.3404127 L6.24288104,8.67635177 L3.5,11.4192328 L3.5,14 L14.5,14 L14.5,11.6448788 Z M14.5,9.87711189 L14.5,4 L3.5,4 L3.5,9.65146586 L6.24187861,6.90958725 L6.24288104,6.91058969 L6.24388348,6.90958725 L9.90313837,10.5688421 L11.6635508,8.80842968 L11.66,8.80487884 L12.5438835,7.92099537 L14.5,9.87711189 Z M2.5,2.5 L15.5,2.5 C15.7761424,2.5 16,2.72385763 16,3 L16,15 C16,15.2761424 15.7761424,15.5 15.5,15.5 L2.5,15.5 C2.22385763,15.5 2,15.2761424 2,15 L2,3 C2,2.72385763 2.22385763,2.5 2.5,2.5 Z M8.75,7.25 C8.19771525,7.25 7.75,6.80228475 7.75,6.25 C7.75,5.69771525 8.19771525,5.25 8.75,5.25 C9.30228475,5.25 9.75,5.69771525 9.75,6.25 C9.75,6.80228475 9.30228475,7.25 8.75,7.25 Z" id="shape" fill="#1F1F1F"></path>
    </g>
</svg>