<?xml version="1.0" encoding="UTF-8"?>
<svg width="18px" height="18px" viewBox="0 0 18 18" version="1.1" xmlns="http://www.w3.org/2000/svg" xmlns:xlink="http://www.w3.org/1999/xlink">
    <!-- Generator: Sketch 53.2 (72643) - https://sketchapp.com -->
    <title>工具 / image</title>
    <desc>Created with Sketch.</desc>
    <g id="工具-/-image" stroke="none" stroke-width="1" fill="none" fill-rule="evenodd">
        <path d="M2.5,2.5 L15.5,2.5 C15.7761424,2.5 16,2.72385763 16,3 L16,15 C16,15.2761424 15.7761424,15.5 15.5,15.5 L2.5,15.5 C2.22385763,15.5 2,15.2761424 2,15 L2,3 C2,2.72385763 2.22385763,2.5 2.5,2.5 Z M8.75,7.25 C9.30228475,7.25 9.75,6.80228475 9.75,6.25 C9.75,5.69771525 9.30228475,5.25 8.75,5.25 C8.19771525,5.25 7.75,5.69771525 7.75,6.25 C7.75,6.80228475 8.19771525,7.25 8.75,7.25 Z M3.5,10.5 L3.5,14 L14.5,14 L14.5,10.5 L12.5,9 L10.0048769,11 L6.5,8 L3.5,10.5 Z" id="shape" fill="#1F1F1F"></path>
    </g>
</svg>