<?xml version="1.0" encoding="UTF-8"?>
<svg width="18px" height="18px" viewBox="0 0 18 18" version="1.1" xmlns="http://www.w3.org/2000/svg" xmlns:xlink="http://www.w3.org/1999/xlink">
    <!-- Generator: Sketch 53.2 (72643) - https://sketchapp.com -->
    <title>编辑 / import</title>
    <desc>Created with Sketch.</desc>
    <g id="编辑-/-import" stroke="none" stroke-width="1" fill="none" fill-rule="evenodd">
        <path d="M14.5,14.5 L14.5,3.5 L5.5,3.5 L5.5,5.25 C5.5,5.38807119 5.38807119,5.5 5.25,5.5 L4.25,5.5 C4.11192881,5.5 4,5.38807119 4,5.25 L4,2.5 C4,2.22385763 4.22385763,2 4.5,2 L15.5,2 C15.7761424,2 16,2.22385763 16,2.5 L16,15.5 C16,15.7761424 15.7761424,16 15.5,16 L4.5,16 C4.22385763,16 4,15.7761424 4,15.5 L4,12.75 C4,12.6119288 4.11192881,12.5 4.25,12.5 L5.25,12.5 C5.38807119,12.5 5.5,12.6119288 5.5,12.75 L5.5,14.5 L14.5,14.5 Z M8.39221191,5.82299805 L11.8577881,8.67700195 C12.0781312,8.85846096 12.0744007,9.14461115 11.8577881,9.32299805 L8.39221191,12.177002 C8.17186883,12.358461 8,12.2741758 8,11.9956076 L8,9.75 L2.2578125,9.75 C2.10414124,9.75 2,9.6391034 2,9.50230551 L2,8.49769449 C2,8.36770248 2.11542659,8.25 2.2578125,8.25 L8,8.25 L8,6.00439239 C8,5.71578789 8.17559926,5.64461115 8.39221191,5.82299805 Z" id="shape" fill="#1F1F1F"></path>
    </g>
</svg>