<?xml version="1.0" encoding="UTF-8"?>
<svg width="18px" height="18px" viewBox="0 0 18 18" version="1.1" xmlns="http://www.w3.org/2000/svg" xmlns:xlink="http://www.w3.org/1999/xlink">
    <!-- Generator: Sketch 53.2 (72643) - https://sketchapp.com -->
    <title>生活 / iphonex-outlined</title>
    <desc>Created with Sketch.</desc>
    <g id="生活-/-iphonex-outlined" stroke="none" stroke-width="1" fill="none" fill-rule="evenodd">
        <path d="M5.5,1 L12.5,1 C13.6045695,1 14.5,1.8954305 14.5,3 L14.5,15 C14.5,16.1045695 13.6045695,17 12.5,17 L5.5,17 C4.3954305,17 3.5,16.1045695 3.5,15 L3.5,3 C3.5,1.8954305 4.3954305,1 5.5,1 Z M5.75,2.5 C5.33578644,2.5 5,2.83578644 5,3.25 L5,14.75 C5,15.1642136 5.33578644,15.5 5.75,15.5 L12.25,15.5 C12.6642136,15.5 13,15.1642136 13,14.75 L13,3.25 C13,2.83578644 12.6642136,2.5 12.25,2.5 L5.75,2.5 Z M6.5,2.5 L11.5,2.5 L11.5,3 C11.5,3.27614237 11.2761424,3.5 11,3.5 L7,3.5 C6.72385763,3.5 6.5,3.27614237 6.5,3 L6.5,2.5 Z M7,13.5 L11,13.5 C11.2761424,13.5 11.5,13.7238576 11.5,14 L11.5,14.25 C11.5,14.5261424 11.2761424,14.75 11,14.75 L7,14.75 C6.72385763,14.75 6.5,14.5261424 6.5,14.25 L6.5,14 C6.5,13.7238576 6.72385763,13.5 7,13.5 Z" id="shape" fill="#1F1F1F"></path>
    </g>
</svg>