<?xml version="1.0" encoding="UTF-8"?>
<svg width="18px" height="18px" viewBox="0 0 18 18" version="1.1" xmlns="http://www.w3.org/2000/svg" xmlns:xlink="http://www.w3.org/1999/xlink">
    <!-- Generator: Sketch 53.2 (72643) - https://sketchapp.com -->
    <title>工具 / key-outlined</title>
    <desc>Created with Sketch.</desc>
    <g id="工具-/-key-outlined" stroke="none" stroke-width="1" fill="none" fill-rule="evenodd">
        <path d="M14.5,6.75 L16.4903342,6.75 C16.7718148,6.75 17,6.96704435 17,7.24877232 L17,10.7512277 C17,11.026692 16.7775269,11.25 16.4903342,11.25 L9.93434664,11.25 C9.13230832,12.7384274 7.55928688,13.75 5.75,13.75 C3.12664744,13.75 1,11.6233526 1,9 C1,6.37664744 3.12664744,4.25 5.75,4.25 C7.55928688,4.25 9.13230832,5.26157256 9.93434664,6.75 L10.5,6.75 L10.5,6.00468445 C10.5,5.72595492 10.7150574,5.5 10.9904785,5.5 L14.0095215,5.5 C14.2804053,5.5 14.5,5.71403503 14.5,6.00468445 L14.5,6.75 Z M8.91303408,8.25 C8.57445218,6.81665 7.28679082,5.75 5.75,5.75 C3.95507456,5.75 2.5,7.20507456 2.5,9 C2.5,10.7949254 3.95507456,12.25 5.75,12.25 C7.28679082,12.25 8.57445218,11.18335 8.91303408,9.75 L15.5,9.75 L15.5,8.25 L13,8.25 L13,7 L12,7 L12,8.25 L8.91303408,8.25 L8.91303408,8.25 Z M4.75,9.75 C4.33578644,9.75 4,9.41421356 4,9 C4,8.58578644 4.33578644,8.25 4.75,8.25 C5.16421356,8.25 5.5,8.58578644 5.5,9 C5.5,9.41421356 5.16421356,9.75 4.75,9.75 Z" id="shape" fill="#1F1F1F"></path>
    </g>
</svg>