<?xml version="1.0" encoding="UTF-8"?>
<svg width="18px" height="18px" viewBox="0 0 18 18" version="1.1" xmlns="http://www.w3.org/2000/svg" xmlns:xlink="http://www.w3.org/1999/xlink">
    <!-- Generator: Sketch 53.2 (72643) - https://sketchapp.com -->
    <title>工具 / key</title>
    <desc>Created with Sketch.</desc>
    <g id="工具-/-key" stroke="none" stroke-width="1" fill="none" fill-rule="evenodd">
        <path d="M14,7.5 L16.4903342,7.5 C16.7718148,7.5 17,7.7157526 17,7.99538898 L17,10.004611 C17,10.2782068 16.7775269,10.5 16.4903342,10.5 L10.2582968,10.5 C9.63033276,12.3882883 7.84918879,13.75 5.75,13.75 C3.12664744,13.75 1,11.6233526 1,9 C1,6.37664744 3.12664744,4.25 5.75,4.25 C7.84918879,4.25 9.63033276,5.6117117 10.2582968,7.5 L12,7.5 L12,6.49538898 C12,6.2217932 12.214035,6 12.5046844,6 L13.4953156,6 C13.7740451,6 14,6.2157526 14,6.49538898 L14,7.5 Z M4.5,10 C5.05228475,10 5.5,9.55228475 5.5,9 C5.5,8.44771525 5.05228475,8 4.5,8 C3.94771525,8 3.5,8.44771525 3.5,9 C3.5,9.55228475 3.94771525,10 4.5,10 Z" id="shape" fill="#1F1F1F"></path>
    </g>
</svg>