<?xml version="1.0" encoding="UTF-8"?>
<svg width="18px" height="18px" viewBox="0 0 18 18" version="1.1" xmlns="http://www.w3.org/2000/svg" xmlns:xlink="http://www.w3.org/1999/xlink">
    <!-- Generator: Sketch 53.2 (72643) - https://sketchapp.com -->
    <title>生活 / law</title>
    <desc>Created with Sketch.</desc>
    <g id="生活-/-law" stroke="none" stroke-width="1" fill="none" fill-rule="evenodd">
        <path d="M9.75,4 L15,4 C15.2761424,4 15.5,4.22385763 15.5,4.5 L15.5,5 C15.5,5.27614237 15.2761424,5.5 15,5.5 L14.12,5.5 L14.12,9.5 L15.75,9.5 C15.8880712,9.5 16,9.61192881 16,9.75 L16,11 C16,11.8284271 15.3284271,12.5 14.5,12.5 L12.5,12.5 C11.6715729,12.5 11,11.8284271 11,11 L11,9.75 C11,9.61192881 11.1119288,9.5 11.25,9.5 L12.87,9.5 L12.87,5.5 L9.75,5.5 L9.75,14 L13,14 C13.2761424,14 13.5,14.2238576 13.5,14.5 L13.5,15.5 C13.5,15.7761424 13.2761424,16 13,16 L5,16 C4.72385763,16 4.5,15.7761424 4.5,15.5 L4.5,14.5 C4.5,14.2238576 4.72385763,14 5,14 L8.25,14 L8.25,5.5 L5.12,5.5 L5.12,9.5 L6.75,9.5 C6.88807119,9.5 7,9.61192881 7,9.75 L7,11 C7,11.8284271 6.32842712,12.5 5.5,12.5 L3.5,12.5 C2.67157288,12.5 2,11.8284271 2,11 L2,9.75 C2,9.61192881 2.11192881,9.5 2.25,9.5 L3.87,9.5 L3.87,5.5 L3,5.5 C2.72385763,5.5 2.5,5.27614237 2.5,5 L2.5,4.5 C2.5,4.22385763 2.72385763,4 3,4 L8.25,4 L8.25,2.75 C8.25,2.33578644 8.58578644,2 9,2 C9.41421356,2 9.75,2.33578644 9.75,2.75 L9.75,4 Z" id="shape" fill="#1F1F1F"></path>
    </g>
</svg>