<?xml version="1.0" encoding="UTF-8"?>
<svg width="18px" height="18px" viewBox="0 0 18 18" version="1.1" xmlns="http://www.w3.org/2000/svg" xmlns:xlink="http://www.w3.org/1999/xlink">
    <!-- Generator: Sketch 53.2 (72643) - https://sketchapp.com -->
    <title>图表 / line-chart</title>
    <desc>Created with Sketch.</desc>
    <g id="图表-/-line-chart" stroke="none" stroke-width="1" fill="none" fill-rule="evenodd">
        <path d="M11.7916768,9.18889132 L13.5349827,6.95756157 C13.3547841,6.68242786 13.25,6.35345075 13.25,6 C13.25,5.03350169 14.0335017,4.25 15,4.25 C15.9664983,4.25 16.75,5.03350169 16.75,6 C16.75,6.96649831 15.9664983,7.75 15,7.75 C14.7507231,7.75 14.5136194,7.6978803 14.2989917,7.60394381 L12.5196003,9.88146102 C12.6661982,10.1373973 12.75,10.4339122 12.75,10.75 C12.75,11.7164983 11.9664983,12.5 11,12.5 C10.0335017,12.5 9.25,11.7164983 9.25,10.75 C9.25,10.5156107 9.29608009,10.291984 9.37967529,10.0876848 L7.91231519,8.62032471 C7.70801603,8.70391991 7.48438931,8.75 7.25,8.75 C7.00272126,8.75 6.76742136,8.69871253 6.55415741,8.60619471 L4.44381903,11.5108263 C4.636972,11.7922164 4.75,12.1329087 4.75,12.5 C4.75,13.4664983 3.96649831,14.25 3,14.25 C2.03350169,14.25 1.25,13.4664983 1.25,12.5 C1.25,11.5335017 2.03350169,10.75 3,10.75 C3.2355665,10.75 3.46026204,10.7965441 3.66539193,10.8809377 L5.78705525,7.96071863 C5.60558785,7.68494598 5.5,7.35480367 5.5,7 C5.5,6.03350169 6.28350169,5.25 7.25,5.25 C8.21649831,5.25 9,6.03350169 9,7 C9,7.3666894 8.88721939,7.70703748 8.69445322,7.98824918 L10.0117508,9.30554678 C10.2929625,9.11278061 10.6333106,9 11,9 C11.2849244,9 11.5539451,9.06809217 11.7916768,9.18889132 L11.7916768,9.18889132 Z" id="shape" fill="#1F1F1F"></path>
    </g>
</svg>