<?xml version="1.0" encoding="UTF-8"?>
<svg width="18px" height="18px" viewBox="0 0 18 18" version="1.1" xmlns="http://www.w3.org/2000/svg" xmlns:xlink="http://www.w3.org/1999/xlink">
    <!-- Generator: Sketch 53.2 (72643) - https://sketchapp.com -->
    <title>图表 / line-chart-square</title>
    <desc>Created with Sketch.</desc>
    <g id="图表-/-line-chart-square" stroke="none" stroke-width="1" fill="none" fill-rule="evenodd">
        <path d="M15.25,8.62361163 L15.25,4.25 L2.75,4.25 L2.75,9.1830127 L4.68640059,10.3009941 C4.90505106,10.1133669 5.1892864,10 5.5,10 C5.80135064,10 6.07779475,10.1066375 6.29365554,10.2842357 L8.02152491,8.98219279 C8.00739201,8.90695577 8,8.82934113 8,8.75 C8,8.05964406 8.55964406,7.5 9.25,7.5 C9.94035594,7.5 10.5,8.05964406 10.5,8.75 C10.5,8.82981569 10.4925193,8.90788417 10.4782208,8.98354255 L11.6682904,9.81683825 C11.8892437,9.61976773 12.1806352,9.5 12.5,9.5 C12.7909612,9.5 13.0587037,9.59941136 13.2711148,9.76612152 L15.25,8.62361163 L15.25,8.62361163 Z M15.25,9.77831216 L13.7457979,10.6467637 C13.748581,10.6808078 13.75,10.7152382 13.75,10.75 C13.75,11.4403559 13.1903559,12 12.5,12 C11.8096441,12 11.25,11.4403559 11.25,10.75 L11.2500109,10.7447304 L9.91400566,9.80924947 C9.7216159,9.93010606 9.49397025,10 9.25,10 C9.00594432,10 8.77822468,9.93005711 8.58579226,9.80912249 L6.74874311,11.1934383 C6.74957808,11.2121877 6.75,11.2310446 6.75,11.25 C6.75,11.9403559 6.19035594,12.5 5.5,12.5 C4.80964406,12.5 4.25,11.9403559 4.25,11.25 C4.25,11.2346719 4.25027589,11.2194083 4.25082298,11.2042138 L2.75,10.3377132 L2.75,14.75 L15.25,14.75 L15.25,9.77831216 Z M2,3 L16,3 C16.2761424,3 16.5,3.22385763 16.5,3.5 L16.5,15.5 C16.5,15.7761424 16.2761424,16 16,16 L2,16 C1.72385763,16 1.5,15.7761424 1.5,15.5 L1.5,3.5 C1.5,3.22385763 1.72385763,3 2,3 Z" id="shape" fill="#1F1F1F"></path>
    </g>
</svg>