<?xml version="1.0" encoding="UTF-8"?>
<svg width="18px" height="18px" viewBox="0 0 18 18" version="1.1" xmlns="http://www.w3.org/2000/svg" xmlns:xlink="http://www.w3.org/1999/xlink">
    <!-- Generator: Sketch 53.2 (72643) - https://sketchapp.com -->
    <title>图表 / line-chart-outlined</title>
    <desc>Created with Sketch.</desc>
    <g id="图表-/-line-chart-outlined" stroke="none" stroke-width="1" fill="none" fill-rule="evenodd">
        <path d="M11.7461964,8.89384419 L13.3430307,7.12038013 C13.1264892,6.80075445 13,6.41514879 13,6 C13,4.8954305 13.8954305,4 15,4 C16.1045695,4 17,4.8954305 17,6 C17,7.1045695 16.1045695,8 15,8 C14.7668652,8 14.543047,7.96011036 14.3349985,7.88678391 L12.7024662,9.69989473 C12.8911226,10.0051013 13,10.3648358 13,10.75 C13,11.8545695 12.1045695,12.75 11,12.75 C9.8954305,12.75 9,11.8545695 9,10.75 C9,10.4591578 9.06208129,10.1828154 9.17371528,9.9335015 L7.98259909,8.74238531 C7.69239172,8.90639672 7.35712697,9 7,9 C6.8337266,9 6.67219229,8.97970957 6.51773804,8.94146968 L4.63626352,11.3496472 C4.86542601,11.6750097 5,12.0717891 5,12.5 C5,13.6045695 4.1045695,14.5 3,14.5 C1.8954305,14.5 1,13.6045695 1,12.5 C1,11.3954305 1.8954305,10.5 3,10.5 C3.22149981,10.5 3.43458964,10.5360075 3.63373533,10.6024883 L5.45550357,8.27073124 C5.17091081,7.92522509 5,7.48257173 5,7 C5,5.8954305 5.8954305,5 7,5 C8.1045695,5 9,5.8954305 9,7 C9,7.29132711 8.93771154,7.56810597 8.82572597,7.81774523 L10.0162477,9.00826695 C10.3067199,8.84385147 10.6423999,8.75 11,8.75 C11.263774,8.75 11.5156215,8.80106339 11.7461964,8.89384419 L11.7461964,8.89384419 Z M3,11.75 C2.58578644,11.75 2.25,12.0857864 2.25,12.5 C2.25,12.9142136 2.58578644,13.25 3,13.25 C3.41421356,13.25 3.75,12.9142136 3.75,12.5 C3.75,12.0857864 3.41421356,11.75 3,11.75 Z M7,6.25 C6.58578644,6.25 6.25,6.58578644 6.25,7 C6.25,7.41421356 6.58578644,7.75 7,7.75 C7.41421356,7.75 7.75,7.41421356 7.75,7 C7.75,6.58578644 7.41421356,6.25 7,6.25 Z M11,10 C10.5857864,10 10.25,10.3357864 10.25,10.75 C10.25,11.1642136 10.5857864,11.5 11,11.5 C11.4142136,11.5 11.75,11.1642136 11.75,10.75 C11.75,10.3357864 11.4142136,10 11,10 Z M15,5.25 C14.5857864,5.25 14.25,5.58578644 14.25,6 C14.25,6.41421356 14.5857864,6.75 15,6.75 C15.4142136,6.75 15.75,6.41421356 15.75,6 C15.75,5.58578644 15.4142136,5.25 15,5.25 Z" id="shape" fill="#1F1F1F"></path>
    </g>
</svg>