<?xml version="1.0" encoding="UTF-8"?>
<svg width="18px" height="18px" viewBox="0 0 18 18" version="1.1" xmlns="http://www.w3.org/2000/svg" xmlns:xlink="http://www.w3.org/1999/xlink">
    <!-- Generator: Sketch 53.2 (72643) - https://sketchapp.com -->
    <title>编辑 / list</title>
    <desc>Created with Sketch.</desc>
    <g id="编辑-/-list" stroke="none" stroke-width="1" fill="none" fill-rule="evenodd">
        <path d="M7.50043583,4 L14.4995642,4 C14.7692032,4 15,4.22595492 15,4.50468445 L15,5.49531555 C15,5.78596497 14.7759472,6 14.4995642,6 L7.50043583,6 C7.23079681,6 7,5.77404508 7,5.49531555 L7,4.50468445 C7,4.21403503 7.22405275,4 7.50043583,4 Z M3.50468445,4 L4.49531555,4 C4.78596497,4 5,4.22595492 5,4.50468445 L5,5.49531555 C5,5.78596497 4.77404508,6 4.49531555,6 L3.50468445,6 C3.21403503,6 3,5.77404508 3,5.49531555 L3,4.50468445 C3,4.21403503 3.22595492,4 3.50468445,4 Z M7.50043583,8 L14.4995642,8 C14.7692032,8 15,8.22595492 15,8.50468445 L15,9.49531555 C15,9.78596497 14.7759472,10 14.4995642,10 L7.50043583,10 C7.23079681,10 7,9.77404508 7,9.49531555 L7,8.50468445 C7,8.21403503 7.22405275,8 7.50043583,8 Z M3.50468445,8 L4.49531555,8 C4.78596497,8 5,8.22595492 5,8.50468445 L5,9.49531555 C5,9.78596497 4.77404508,10 4.49531555,10 L3.50468445,10 C3.21403503,10 3,9.77404508 3,9.49531555 L3,8.50468445 C3,8.21403503 3.22595492,8 3.50468445,8 Z M7.50043583,12 L14.4995642,12 C14.7692032,12 15,12.2259549 15,12.5046844 L15,13.4953156 C15,13.785965 14.7759472,14 14.4995642,14 L7.50043583,14 C7.23079681,14 7,13.7740451 7,13.4953156 L7,12.5046844 C7,12.214035 7.22405275,12 7.50043583,12 Z M3.50468445,12 L4.49531555,12 C4.78596497,12 5,12.2259549 5,12.5046844 L5,13.4953156 C5,13.785965 4.77404508,14 4.49531555,14 L3.50468445,14 C3.21403503,14 3,13.7740451 3,13.4953156 L3,12.5046844 C3,12.214035 3.22595492,12 3.50468445,12 Z" id="shape" fill="#1F1F1F"></path>
    </g>
</svg>