<?xml version="1.0" encoding="UTF-8"?>
<svg width="18px" height="18px" viewBox="0 0 18 18" version="1.1" xmlns="http://www.w3.org/2000/svg" xmlns:xlink="http://www.w3.org/1999/xlink">
    <!-- Generator: Sketch 53.2 (72643) - https://sketchapp.com -->
    <title>工具 / location-outlined</title>
    <desc>Created with Sketch.</desc>
    <g id="工具-/-location-outlined" stroke="none" stroke-width="1" fill="none" fill-rule="evenodd">
        <path d="M9.39065814,16.5151852 C9.36746408,16.5442198 9.34110556,16.5705783 9.31207092,16.5937724 C9.09630896,16.7661318 8.78167446,16.730947 8.60931507,16.5151851 L8.60933138,16.5151721 C5.20311046,12.2512158 3.5,9.12115844 3.5,7.125 C3.5,4.01839828 5.96243388,1.5 9,1.5 C12.0375661,1.5 14.5,4.01839828 14.5,7.125 C14.5,9.12116049 12.796886,12.2512222 9.39065814,16.5151852 Z M8.96,14.5 C11.6,10.9313651 12.92,8.41803174 12.92,6.96 C12.92,4.77295239 11.1470476,3 8.96,3 C6.77295239,3 5,4.77295239 5,6.96 C5,8.41803174 6.32,10.9313651 8.96,14.5 Z M9,9.25 C7.75735931,9.25 6.75,8.24264069 6.75,7 C6.75,5.75735931 7.75735931,4.75 9,4.75 C10.2426407,4.75 11.25,5.75735931 11.25,7 C11.25,8.24264069 10.2426407,9.25 9,9.25 Z M9,8 C9.55228475,8 10,7.55228475 10,7 C10,6.44771525 9.55228475,6 9,6 C8.44771525,6 8,6.44771525 8,7 C8,7.55228475 8.44771525,8 9,8 Z" id="shape" fill="#1F1F1F"></path>
    </g>
</svg>