<?xml version="1.0" encoding="UTF-8"?>
<svg width="18px" height="18px" viewBox="0 0 18 18" version="1.1" xmlns="http://www.w3.org/2000/svg" xmlns:xlink="http://www.w3.org/1999/xlink">
    <!-- Generator: Sketch 53.2 (72643) - https://sketchapp.com -->
    <title>工具 / location</title>
    <desc>Created with Sketch.</desc>
    <g id="工具-/-location" stroke="none" stroke-width="1" fill="none" fill-rule="evenodd">
        <path d="M9.39065814,16.5151852 C9.36746408,16.5442198 9.34110556,16.5705783 9.31207092,16.5937724 C9.09630896,16.7661318 8.78167446,16.730947 8.60931507,16.5151851 L8.60933138,16.5151721 C5.20311046,12.2512158 3.5,9.12115844 3.5,7.125 C3.5,4.01839828 5.96243388,1.5 9,1.5 C12.0375661,1.5 14.5,4.01839828 14.5,7.125 C14.5,9.12116049 12.796886,12.2512222 9.39065814,16.5151852 Z M9,8.25 C9.96649831,8.25 10.75,7.46649831 10.75,6.5 C10.75,5.53350169 9.96649831,4.75 9,4.75 C8.03350169,4.75 7.25,5.53350169 7.25,6.5 C7.25,7.46649831 8.03350169,8.25 9,8.25 Z" id="shape" fill="#1F1F1F"></path>
    </g>
</svg>