<?xml version="1.0" encoding="UTF-8"?>
<svg width="18px" height="18px" viewBox="0 0 18 18" version="1.1" xmlns="http://www.w3.org/2000/svg" xmlns:xlink="http://www.w3.org/1999/xlink">
    <!-- Generator: Sketch 53.2 (72643) - https://sketchapp.com -->
    <title>工具 / mail-outlined</title>
    <desc>Created with Sketch.</desc>
    <g id="工具-/-mail-outlined" stroke="none" stroke-width="1" fill="none" fill-rule="evenodd">
        <path d="M13.0767696,5.5 L4.7818118,5.5 L8.9292907,8.98014801 L13.0767696,5.5 L13.0767696,5.5 Z M14.5,6.26387883 L8.93418141,10.9341552 L8.9292907,10.9283266 L8.92439999,10.9341552 L3.5,6.38254312 L3.5,13.5 L14.5,13.5 L14.5,6.26387883 Z M2.5,4 L15.5,4 C15.7761424,4 16,4.22385763 16,4.5 L16,14.5 C16,14.7761424 15.7761424,15 15.5,15 L2.5,15 C2.22385763,15 2,14.7761424 2,14.5 L2,4.5 C2,4.22385763 2.22385763,4 2.5,4 Z" id="shape" fill="#1F1F1F"></path>
    </g>
</svg>