<?xml version="1.0" encoding="UTF-8"?>
<svg width="18px" height="18px" viewBox="0 0 18 18" version="1.1" xmlns="http://www.w3.org/2000/svg" xmlns:xlink="http://www.w3.org/1999/xlink">
    <!-- Generator: Sketch 53.2 (72643) - https://sketchapp.com -->
    <title>生活 / makeup</title>
    <desc>Created with Sketch.</desc>
    <g id="生活-/-makeup" stroke="none" stroke-width="1" fill="none" fill-rule="evenodd">
        <path d="M11,6.5 L11,7.5 L14.5,7.5 C14.7761424,7.5 15,7.72385763 15,8 L15,16 C15,16.2761424 14.7761424,16.5 14.5,16.5 L3.5,16.5 C3.22385763,16.5 3,16.2761424 3,16 L3,8 C3,7.72385763 3.22385763,7.5 3.5,7.5 L7,7.5 L7,6.5 L5.5,6.5 C5.22385763,6.5 5,6.27614237 5,6 L5,3 C5,2.72385763 5.22385763,2.5 5.5,2.5 L12.5,2.5 C12.7761424,2.5 13,2.72385763 13,3 L13,6 C13,6.27614237 12.7761424,6.5 12.5,6.5 L11,6.5 Z M6,10.5 L6,11.75 L12,11.75 L12,10.5 L6,10.5 Z" id="shape" fill="#1F1F1F"></path>
    </g>
</svg>