<?xml version="1.0" encoding="UTF-8"?>
<svg width="18px" height="18px" viewBox="0 0 18 18" version="1.1" xmlns="http://www.w3.org/2000/svg" xmlns:xlink="http://www.w3.org/1999/xlink">
    <!-- Generator: Sketch 53.2 (72643) - https://sketchapp.com -->
    <title>生活 / male</title>
    <desc>Created with Sketch.</desc>
    <g id="生活-/-male" stroke="none" stroke-width="1" fill="none" fill-rule="evenodd">
        <path d="M9.75,7.57182731 C11.7395082,7.92606056 13.25,9.66456351 13.25,11.7558607 C13.25,14.1030709 11.3472102,16.0058607 9,16.0058607 C6.65278981,16.0058607 4.75,14.1030709 4.75,11.7558607 C4.75,9.66456351 6.26049181,7.92606056 8.25,7.57182731 L8.25,4.53635557 L6.80716769,5.93711118 C6.60440565,6.13396016 6.2898076,6.12591886 6.0917107,5.93156025 L5.78353719,5.62920228 C5.58509256,5.4345025 5.58458276,5.12221133 5.78162184,4.93091841 L8.28716094,2.49844726 C8.30008406,2.48232978 8.31413986,2.46677389 8.3293203,2.45187992 L8.63749473,2.14952103 C8.70446295,2.08381657 8.78527113,2.04004081 8.87052425,2.01822765 C9.04203515,1.97076055 9.23217047,2.01650992 9.3677415,2.14952258 L9.675915,2.45188054 C9.69086335,2.46654679 9.70468856,2.48188029 9.71739081,2.49777904 L12.2236177,4.93091774 C12.4263799,5.12776685 12.419799,5.4348437 12.2217015,5.62920291 L11.9135271,5.93156179 C11.7150819,6.12626216 11.395108,6.12840661 11.1980688,5.93711358 L9.75,4.53127431 L9.75,7.57182731 L9.75,7.57182731 Z M9,14.5058607 C10.5187831,14.5058607 11.75,13.2746438 11.75,11.7558607 C11.75,10.2370777 10.5187831,9.00586074 9,9.00586074 C7.48121694,9.00586074 6.25,10.2370777 6.25,11.7558607 C6.25,13.2746438 7.48121694,14.5058607 9,14.5058607 Z" id="shape" fill="#1F1F1F"></path>
    </g>
</svg>