<?xml version="1.0" encoding="UTF-8"?>
<svg width="18px" height="18px" viewBox="0 0 18 18" version="1.1" xmlns="http://www.w3.org/2000/svg" xmlns:xlink="http://www.w3.org/1999/xlink">
    <!-- Generator: Sketch 53.2 (72643) - https://sketchapp.com -->
    <title>工具 / map-outlined</title>
    <desc>Created with Sketch.</desc>
    <g id="工具-/-map-outlined" stroke="none" stroke-width="1" fill="none" fill-rule="evenodd">
        <path d="M10.75,5.45 L7.25,4.05 L7.25,12.55 L10.75,13.95 L10.75,5.45 Z M12.25,5.42857143 L12.25,13.9285714 L15,12.75 L15,4.25 L12.25,5.42857143 Z M5.75,4.07142857 L3,5.25 L3,13.75 L5.75,12.5714286 L5.75,4.07142857 Z M1.81430466,3.87427814 L6.31430466,2.07427814 C6.43351018,2.02659593 6.56648982,2.02659593 6.68569534,2.07427814 L11.3143863,3.92575452 C11.4335432,3.97341726 11.5664649,3.97343741 11.6856362,3.9258108 L15.8188452,2.27398074 C16.075268,2.17150178 16.3662154,2.29629795 16.4686944,2.55272079 C16.4922816,2.61174074 16.5043997,2.67471665 16.5043997,2.73827537 L16.5043997,13.661373 C16.5043997,13.8658805 16.3798578,14.049773 16.1899543,14.1256676 L11.6856362,15.9258108 C11.5664649,15.9734374 11.4335432,15.9734173 11.3143863,15.9257545 L6.68569534,14.0742781 C6.56648982,14.0265959 6.43351018,14.0265959 6.31430466,14.0742781 L2.18569534,15.7257219 C1.92930358,15.8282786 1.63831836,15.7035706 1.53576165,15.4471789 C1.5121376,15.3881187 1.5,15.3250932 1.5,15.2614835 L1.5,4.33851648 C1.5,4.13406419 1.62447547,3.95020981 1.81430466,3.87427814 Z" id="shape" fill="#1F1F1F"></path>
    </g>
</svg>