<?xml version="1.0" encoding="UTF-8"?>
<svg width="18px" height="18px" viewBox="0 0 18 18" version="1.1" xmlns="http://www.w3.org/2000/svg" xmlns:xlink="http://www.w3.org/1999/xlink">
    <!-- Generator: Sketch 53.2 (72643) - https://sketchapp.com -->
    <title>生活 / maternal-baby</title>
    <desc>Created with Sketch.</desc>
    <g id="生活-/-maternal-baby" stroke="none" stroke-width="1" fill="none" fill-rule="evenodd">
        <path d="M5,5.5 L13,5.5 C13.5522847,5.5 14,5.94771525 14,6.5 L14,16 C14,16.5522847 13.5522847,17 13,17 L5,17 C4.44771525,17 4,16.5522847 4,16 L4,6.5 C4,5.94771525 4.44771525,5.5 5,5.5 Z M6,9.5 L6,11 L9,11 L9,9.5 L6,9.5 Z M6,12 L6,13.5 L9,13.5 L9,12 L6,12 Z M7.5,3 L7.5,2.5 C7.5,1.67157288 8.17157288,1 9,1 C9.82842712,1 10.5,1.67157288 10.5,2.5 L10.5,3 L11.5,3 C12.0522847,3 12.5,3.44771525 12.5,4 L12.5,4.75 L5.5,4.75 L5.5,4 C5.5,3.44771525 5.94771525,3 6.5,3 L7.5,3 Z" id="shape" fill="#1F1F1F"></path>
    </g>
</svg>