<?xml version="1.0" encoding="UTF-8"?>
<svg width="18px" height="18px" viewBox="0 0 18 18" version="1.1" xmlns="http://www.w3.org/2000/svg" xmlns:xlink="http://www.w3.org/1999/xlink">
    <!-- Generator: Sketch 53.2 (72643) - https://sketchapp.com -->
    <title>生活 / maternal-baby-outlined</title>
    <desc>Created with Sketch.</desc>
    <g id="生活-/-maternal-baby-outlined" stroke="none" stroke-width="1" fill="none" fill-rule="evenodd">
        <path d="M5.5,5.5 L5.5,4 C5.5,3.44771525 5.94771525,3 6.5,3 L7,3 C7,1.8954305 7.8954305,1 9,1 C10.1045695,1 11,1.8954305 11,3 L11.5,3 C12.0522847,3 12.5,3.44771525 12.5,4 L12.5,5.5 L13,5.5 C13.5522847,5.5 14,5.94771525 14,6.5 L14,16 C14,16.5522847 13.5522847,17 13,17 L5,17 C4.44771525,17 4,16.5522847 4,16 L4,6.5 C4,5.94771525 4.44771525,5.5 5,5.5 L5.5,5.5 Z M7,5.5 L11,5.5 L11,4.5 L9.5,4.5 L9.5,3 C9.5,2.72385763 9.27614237,2.5 9,2.5 C8.72385763,2.5 8.5,2.72385763 8.5,3 L8.5,4.5 L7,4.5 L7,5.5 Z M12.5,7 L5.5,7 L5.5,15.5 L12.5,15.5 L12.5,7 Z M7,9.5 L9,9.5 L9,11 L7,11 L7,9.5 Z M7,12 L9,12 L9,13.5 L7,13.5 L7,12 Z" id="shape" fill="#1F1F1F"></path>
    </g>
</svg>