<?xml version="1.0" encoding="UTF-8"?>
<svg width="18px" height="18px" viewBox="0 0 18 18" version="1.1" xmlns="http://www.w3.org/2000/svg" xmlns:xlink="http://www.w3.org/1999/xlink">
    <!-- Generator: Sketch 53.2 (72643) - https://sketchapp.com -->
    <title>生活 / medical-outlined</title>
    <desc>Created with Sketch.</desc>
    <g id="生活-/-medical-outlined" stroke="none" stroke-width="1" fill="none" fill-rule="evenodd">
        <path d="M5.5,5 L5.5,2.75 C5.5,2.33578644 5.83578644,2 6.25,2 L11.75,2 C12.1642136,2 12.5,2.33578644 12.5,2.75 L12.5,5 L15.5,5 C15.7761424,5 16,5.22385763 16,5.5 L16,15.5 C16,15.7761424 15.7761424,16 15.5,16 L2.5,16 C2.22385763,16 2,15.7761424 2,15.5 L2,5.5 C2,5.22385763 2.22385763,5 2.5,5 L5.5,5 Z M7,5 L11,5 L11,3.5 L7,3.5 L7,5 Z M14.5,6.5 L3.5,6.5 L3.5,14.5 L14.5,14.5 L14.5,6.5 Z M9.75,9.75 L11.5,9.75 L11.5,11.25 L9.75,11.25 L9.75,13 L8.25,13 L8.25,11.25 L6.5,11.25 L6.5,9.75 L8.25,9.75 L8.25,8 L9.75,8 L9.75,9.75 Z" id="shape" fill="#1F1F1F"></path>
    </g>
</svg>