<?xml version="1.0" encoding="UTF-8"?>
<svg width="18px" height="18px" viewBox="0 0 18 18" version="1.1" xmlns="http://www.w3.org/2000/svg" xmlns:xlink="http://www.w3.org/1999/xlink">
    <!-- Generator: Sketch 53.2 (72643) - https://sketchapp.com -->
    <title>工具 / mic</title>
    <desc>Created with Sketch.</desc>
    <g id="工具-/-mic" stroke="none" stroke-width="1" fill="none" fill-rule="evenodd">
        <path d="M8.25,14.5 L8.25,13 L5.5,13 C4.94771525,13 4.5,12.5522847 4.5,12 L4.5,3 C4.5,2.44771525 4.94771525,2 5.5,2 L12.5,2 C13.0522847,2 13.5,2.44771525 13.5,3 L13.5,12 C13.5,12.5522847 13.0522847,13 12.5,13 L9.75,13 L9.75,14.5 L12.75,14.5 C12.8880712,14.5 13,14.6119288 13,14.75 L13,15.75 C13,15.8880712 12.8880712,16 12.75,16 L5.25,16 C5.11192881,16 5,15.8880712 5,15.75 L5,14.75 C5,14.6119288 5.11192881,14.5 5.25,14.5 L8.25,14.5 Z M9.5,9.5 L9.5,10.75 L12,10.75 L12,9.5 L9.5,9.5 Z M9.5,7 L9.5,8.25 L12,8.25 L12,7 L9.5,7 Z M9.5,4.5 L9.5,5.75 L12,5.75 L12,4.5 L9.5,4.5 Z" id="shape" fill="#1F1F1F"></path>
    </g>
</svg>