<?xml version="1.0" encoding="UTF-8"?>
<svg width="18px" height="18px" viewBox="0 0 18 18" version="1.1" xmlns="http://www.w3.org/2000/svg" xmlns:xlink="http://www.w3.org/1999/xlink">
    <!-- Generator: Sketch 55.1 (78136) - https://sketchapp.com -->
    <title>工具 / mini-program</title>
    <desc>Created with Sketch.</desc>
    <g id="工具-/-mini-program" stroke="none" stroke-width="1" fill="none" fill-rule="evenodd">
        <path d="M9.93333333,3.56419136 C8.8145,4.21631481 8.06666667,5.36893827 8.06666667,6.68364198 L8.06666667,12.1496914 C8.06666667,13.1340556 7.12633333,13.9320988 5.96666667,13.9320988 C4.80676667,13.9320988 3.86666667,13.1340556 3.86666667,12.1496914 C3.86666667,11.4490864 4.34406667,10.8447315 5.03683333,10.5533673 C5.08676667,10.5324537 5.1374,10.5124907 5.18943333,10.4949043 C5.62553333,10.3166636 5.99956667,9.9820463 6.1384,9.59348148 C6.3435,9.01978395 5.96176667,8.5549321 5.28603333,8.5549321 C5.11756667,8.5549321 4.94676667,8.58392593 4.78203333,8.63620988 C3.80273333,8.92258333 2.98723333,9.54904012 2.4977,10.367284 C2.18153333,10.8960648 2,11.5032716 2,12.1496914 C2,14.1809228 3.7794,15.8333333 5.96666667,15.8333333 C6.7383,15.8333333 7.45673333,15.6244352 8.06666667,15.269142 C9.1855,14.6170185 9.93333333,13.4643951 9.93333333,12.1496914 L9.93333333,6.68364198 C9.93333333,5.69927778 10.8734333,4.90123457 12.0333333,4.90123457 C13.193,4.90123457 14.1333333,5.69927778 14.1333333,6.68364198 C14.1333333,7.41419136 13.6155667,8.04207407 12.8742667,8.31727778 C12.3961667,8.4805463 12.0044,8.83298765 11.8550667,9.2505463 C11.6511333,9.82139198 12.031,10.2843426 12.7037,10.2843426 C12.8560667,10.2843426 13.0100667,10.2577253 13.1601,10.2144722 C13.1846,10.2075802 13.2088667,10.1999753 13.2331333,10.192608 C14.2042667,9.90528395 15.0148667,9.2807284 15.5020667,8.46604938 C15.8184667,7.93750617 16,7.33006173 16,6.68364198 C16,4.65241049 14.2206,3 12.0333333,3 C11.2617,3 10.5432667,3.20889815 9.93333333,3.56419136 Z" id="Page-1-path" fill="#1F1F1F"></path>
    </g>
</svg>