<?xml version="1.0" encoding="UTF-8"?>
<svg width="18px" height="18px" viewBox="0 0 18 18" version="1.1" xmlns="http://www.w3.org/2000/svg" xmlns:xlink="http://www.w3.org/1999/xlink">
    <!-- Generator: Sketch 53.2 (72643) - https://sketchapp.com -->
    <title>工具 / mobile</title>
    <desc>Created with Sketch.</desc>
    <g id="工具-/-mobile" stroke="none" stroke-width="1" fill="none" fill-rule="evenodd">
        <path d="M5,1.5 L13,1.5 C13.5522847,1.5 14,1.94771525 14,2.5 L14,15.5 C14,16.0522847 13.5522847,16.5 13,16.5 L5,16.5 C4.44771525,16.5 4,16.0522847 4,15.5 L4,2.5 C4,1.94771525 4.44771525,1.5 5,1.5 Z M9,14 C8.58578644,14 8.25,14.3357864 8.25,14.75 C8.25,15.1642136 8.58578644,15.5 9,15.5 C9.41421356,15.5 9.75,15.1642136 9.75,14.75 C9.75,14.3357864 9.41421356,14 9,14 Z M5.5,3 L5.5,13 L12.5,13 L12.5,3 L5.5,3 Z" id="shape" fill="#1F1F1F"></path>
    </g>
</svg>