<?xml version="1.0" encoding="UTF-8"?>
<svg width="18px" height="18px" viewBox="0 0 18 18" version="1.1" xmlns="http://www.w3.org/2000/svg" xmlns:xlink="http://www.w3.org/1999/xlink">
    <!-- Generator: Sketch 53.2 (72643) - https://sketchapp.com -->
    <title>导航 / more-vert</title>
    <desc>Created with Sketch.</desc>
    <g id="导航-/-more-vert" stroke="none" stroke-width="1" fill="none" fill-rule="evenodd">
        <path d="M3.5,10.5 C2.67157288,10.5 2,9.82842712 2,9 C2,8.17157288 2.67157288,7.5 3.5,7.5 C4.32842712,7.5 5,8.17157288 5,9 C5,9.82842712 4.32842712,10.5 3.5,10.5 Z M14.5,10.5 C13.6715729,10.5 13,9.82842712 13,9 C13,8.17157288 13.6715729,7.5 14.5,7.5 C15.3284271,7.5 16,8.17157288 16,9 C16,9.82842712 15.3284271,10.5 14.5,10.5 Z M9,10.5 C8.17157288,10.5 7.5,9.82842712 7.5,9 C7.5,8.17157288 8.17157288,7.5 9,7.5 C9.82842712,7.5 10.5,8.17157288 10.5,9 C10.5,9.82842712 9.82842712,10.5 9,10.5 Z" id="shape" fill="#1F1F1F" transform="translate(9.000000, 9.000000) rotate(90.000000) translate(-9.000000, -9.000000) "></path>
    </g>
</svg>