<?xml version="1.0" encoding="UTF-8"?>
<svg width="18px" height="18px" viewBox="0 0 18 18" version="1.1" xmlns="http://www.w3.org/2000/svg" xmlns:xlink="http://www.w3.org/1999/xlink">
    <!-- Generator: Sketch 53.2 (72643) - https://sketchapp.com -->
    <title>导航 / more-horiz</title>
    <desc>Created with Sketch.</desc>
    <g id="导航-/-more-horiz" stroke="none" stroke-width="1" fill="none" fill-rule="evenodd">
        <path d="M4,10.5 C3.17157288,10.5 2.5,9.82842712 2.5,9 C2.5,8.17157288 3.17157288,7.5 4,7.5 C4.82842712,7.5 5.5,8.17157288 5.5,9 C5.5,9.82842712 4.82842712,10.5 4,10.5 Z M14,10.5 C13.1715729,10.5 12.5,9.82842712 12.5,9 C12.5,8.17157288 13.1715729,7.5 14,7.5 C14.8284271,7.5 15.5,8.17157288 15.5,9 C15.5,9.82842712 14.8284271,10.5 14,10.5 Z M9,10.5 C8.17157288,10.5 7.5,9.82842712 7.5,9 C7.5,8.17157288 8.17157288,7.5 9,7.5 C9.82842712,7.5 10.5,8.17157288 10.5,9 C10.5,9.82842712 9.82842712,10.5 9,10.5 Z" id="shape" fill="#1F1F1F"></path>
    </g>
</svg>