<?xml version="1.0" encoding="UTF-8"?>
<svg width="18px" height="18px" viewBox="0 0 18 18" version="1.1" xmlns="http://www.w3.org/2000/svg" xmlns:xlink="http://www.w3.org/1999/xlink">
    <!-- Generator: Sketch 53.2 (72643) - https://sketchapp.com -->
    <title>生活 / music</title>
    <desc>Created with Sketch.</desc>
    <g id="生活-/-music" stroke="none" stroke-width="1" fill="none" fill-rule="evenodd">
        <path d="M5.5,3 L14.5,3 C14.7761424,3 15,3.22385763 15,3.5 L15,14 C15,14.9664983 13.9926407,15.75 12.75,15.75 C11.5073593,15.75 10.5,14.9664983 10.5,14 C10.5,13.0335017 11.5073593,12.25 12.75,12.25 C13.0129766,12.25 13.2654158,12.28509 13.5,12.3495783 L13.5,8.5 L6.5,8.5 L6.5,14 C6.5,14.9664983 5.49264069,15.75 4.25,15.75 C3.00735931,15.75 2,14.9664983 2,14 C2,13.0335017 3.00735931,12.25 4.25,12.25 C4.51297657,12.25 4.76541581,12.28509 5,12.3495783 L5,3.5 C5,3.22385763 5.22385763,3 5.5,3 Z M13.5,4.5 L6.5,4.5 L6.5,7 L13.5,7 L13.5,4.5 Z" id="shape" fill="#1F1F1F"></path>
    </g>
</svg>