<?xml version="1.0" encoding="UTF-8"?>
<svg width="18px" height="18px" viewBox="0 0 18 18" version="1.1" xmlns="http://www.w3.org/2000/svg" xmlns:xlink="http://www.w3.org/1999/xlink">
    <!-- Generator: Sketch 53.2 (72643) - https://sketchapp.com -->
    <title>编辑 / pause</title>
    <desc>Created with Sketch.</desc>
    <g id="编辑-/-pause" stroke="none" stroke-width="1" fill="none" fill-rule="evenodd">
        <path d="M10.5,4.50964952 C10.5,4.22817786 10.714035,4 11.0046844,4 L11.9953156,4 C12.2740451,4 12.5,4.22765279 12.5,4.50964952 L12.5,13.4903505 C12.5,13.7718221 12.285965,14 11.9953156,14 L11.0046844,14 C10.7259549,14 10.5,13.7723472 10.5,13.4903505 L10.5,4.50964952 Z M6.99531555,4 C7.27404508,4 7.5,4.22765279 7.5,4.50964952 L7.5,13.4903505 C7.5,13.7718221 7.28596497,14 6.99531555,14 L6.00468445,14 C5.72595492,14 5.5,13.7723472 5.5,13.4903505 L5.5,4.50964952 C5.5,4.22817786 5.71403503,4 6.00468445,4 L6.99531555,4 Z" id="shape" fill="#1F1F1F"></path>
    </g>
</svg>