<?xml version="1.0" encoding="UTF-8"?>
<svg width="18px" height="18px" viewBox="0 0 18 18" version="1.1" xmlns="http://www.w3.org/2000/svg" xmlns:xlink="http://www.w3.org/1999/xlink">
    <!-- Generator: Sketch 53.2 (72643) - https://sketchapp.com -->
    <title>生活 / people</title>
    <desc>Created with Sketch.</desc>
    <g id="生活-/-people" stroke="none" stroke-width="1" fill="none" fill-rule="evenodd">
        <path d="M12.5,15 L12.5,13.9090909 C12.5,12.3141168 11.7393551,10.8968009 10.561029,10.0001068 C10.5709806,10.0000357 10.5809407,10 10.5909091,10 L12.4090909,10 C14.6684376,10 16.5,11.8315624 16.5,14.0909091 L16.5,14.75 C16.5,14.8880712 16.3880712,15 16.25,15 L12.5,15 Z M9.40032489,7.7850205 C9.77972433,7.19889641 10,6.50017227 10,5.75 C10,4.99982773 9.77972433,4.30110359 9.40032489,3.7149795 C9.8887624,3.27076648 10.5377608,3 11.25,3 C12.7687831,3 14,4.23121694 14,5.75 C14,7.26878306 12.7687831,8.5 11.25,8.5 C10.5377608,8.5 9.8887624,8.22923352 9.40032489,7.7850205 L9.40032489,7.7850205 Z M5.59090909,10 L7.40909091,10 C9.66843761,10 11.5,11.8315624 11.5,14.0909091 L11.5,14.75 C11.5,14.8880712 11.3880712,15 11.25,15 L1.75,15 C1.61192881,15 1.5,14.8880712 1.5,14.75 L1.5,14.0909091 C1.5,11.8315624 3.33156239,10 5.59090909,10 Z M6.25,8.5 C4.73121694,8.5 3.5,7.26878306 3.5,5.75 C3.5,4.23121694 4.73121694,3 6.25,3 C7.76878306,3 9,4.23121694 9,5.75 C9,7.26878306 7.76878306,8.5 6.25,8.5 Z" id="shape" fill="#1F1F1F"></path>
    </g>
</svg>