<?xml version="1.0" encoding="UTF-8"?>
<svg width="18px" height="18px" viewBox="0 0 18 18" version="1.1" xmlns="http://www.w3.org/2000/svg" xmlns:xlink="http://www.w3.org/1999/xlink">
    <!-- Generator: Sketch 53.2 (72643) - https://sketchapp.com -->
    <title>生活 / person</title>
    <desc>Created with Sketch.</desc>
    <g id="生活-/-person" stroke="none" stroke-width="1" fill="none" fill-rule="evenodd">
        <path d="M8,10 L10,10 C12.4852814,10 14.5,12.0147186 14.5,14.5 L14.5,14.75 C14.5,14.8880712 14.3880712,15 14.25,15 L3.75,15 C3.61192881,15 3.5,14.8880712 3.5,14.75 L3.5,14.5 C3.5,12.0147186 5.51471863,10 8,10 L8,10 Z M9,8.5 C7.48121694,8.5 6.25,7.26878306 6.25,5.75 C6.25,4.23121694 7.48121694,3 9,3 C10.5187831,3 11.75,4.23121694 11.75,5.75 C11.75,7.26878306 10.5187831,8.5 9,8.5 Z" id="shape" fill="#1F1F1F"></path>
    </g>
</svg>