<?xml version="1.0" encoding="UTF-8"?>
<svg width="18px" height="18px" viewBox="0 0 18 18" version="1.1" xmlns="http://www.w3.org/2000/svg" xmlns:xlink="http://www.w3.org/1999/xlink">
    <!-- Generator: Sketch 53.2 (72643) - https://sketchapp.com -->
    <title>工具 / phone-outlined</title>
    <desc>Created with Sketch.</desc>
    <g id="工具-/-phone-outlined" stroke="none" stroke-width="1" fill="none" fill-rule="evenodd">
        <path d="M1.12239267,6.87727598 L1.07981152,7.07906803 C0.960807868,7.64302631 0.975390141,8.22700431 1.12239267,8.78432026 L1.15738539,8.91689523 C1.28035969,9.38311537 1.58524271,9.78050621 2.00371402,10.0200175 C4.5133795,11.45642 6.67880816,12.1746212 8.5,12.1746212 C10.3211956,12.1746212 12.4866294,11.456417 14.9963014,10.0200087 L14.9963035,10.0200123 C15.4147806,9.78049733 15.7196677,9.38310079 15.8426438,8.91687406 L15.8776073,8.78432026 C16.0246099,8.22700431 16.0391921,7.64302631 15.9201885,7.07906803 L15.8776073,6.87727598 C15.7756945,6.39431128 15.3015576,6.08540768 14.8185929,6.18732047 C14.7629565,6.1990606 14.7085674,6.21608345 14.6561653,6.23815754 L12.0645541,7.3298593 C11.7923383,7.44452868 11.5937187,7.68547397 11.5330978,7.97456847 L11.290456,9.13163377 C11.2245322,9.44601759 10.9960445,9.70143235 10.6909158,9.80182938 C9.7455643,10.1128799 9.01525905,10.2684052 8.5,10.2684052 C7.98463401,10.2684052 7.25550293,10.1128154 6.31260675,9.80163568 L6.3126074,9.80163373 C6.00861143,9.70130733 5.78078794,9.44705401 5.71429608,9.13391224 L5.46776954,7.97290156 C5.40658401,7.68474977 5.20825718,7.44477951 4.93678398,7.33042294 L2.34383469,6.23815754 C1.88894653,6.04653844 1.36484884,6.25996019 1.17322974,6.71484836 C1.15115565,6.76725045 1.1341328,6.82163954 1.12239267,6.87727598 Z" id="shape" fill="#1F1F1F" transform="translate(8.500000, 9.174621) rotate(45.000000) translate(-8.500000, -9.174621) "></path>
    </g>
</svg>