<?xml version="1.0" encoding="UTF-8"?>
<svg width="18px" height="18px" viewBox="0 0 18 18" version="1.1" xmlns="http://www.w3.org/2000/svg" xmlns:xlink="http://www.w3.org/1999/xlink">
    <!-- Generator: Sketch 53.2 (72643) - https://sketchapp.com -->
    <title>工具 / phone</title>
    <desc>Created with Sketch.</desc>
    <g id="工具-/-phone" stroke="none" stroke-width="1" fill="none" fill-rule="evenodd">
        <path d="M1.12239267,7.12727598 L1.07981152,7.32906803 C0.960807868,7.89302631 0.975390141,8.47700431 1.12239267,9.03432026 L1.17474632,9.23276595 C1.28844795,9.66383155 1.55807098,10.0373661 1.93139907,10.2810292 C4.12093271,11.7100905 6.31046636,12.4246212 8.5,12.4246212 C10.6895366,12.4246212 12.8790732,11.7100886 15.0686098,10.2810234 L15.0686102,10.281024 C15.44194,10.0373595 15.7115642,9.66382306 15.8252663,9.23275538 L15.8776073,9.03432026 C16.0246099,8.47700431 16.0391921,7.89302631 15.9201885,7.32906803 L15.8776073,7.12727598 C15.7756945,6.64431128 15.3015576,6.33540768 14.8185929,6.43732047 C14.7629565,6.4490606 14.7085674,6.46608345 14.6561653,6.48815754 L12.0645541,7.5798593 C11.7923383,7.69452868 11.5937187,7.93547397 11.5330978,8.22456847 L11.2671572,9.49283833 C11.2130036,9.75109112 11.0482453,9.97256919 10.8164655,10.0986852 C10.043615,10.5192089 9.27145981,10.7294707 8.5,10.7294707 C7.72824864,10.7294707 6.95719318,10.5190499 6.18683362,10.0982084 L6.18683974,10.0981972 C5.95643715,9.97233 5.79248263,9.75212988 5.73795098,9.49531438 L5.46776954,8.22290156 C5.40658401,7.93474977 5.20825718,7.69477951 4.93678398,7.58042294 L2.34383469,6.48815754 C1.88894653,6.29653844 1.36484884,6.50996019 1.17322974,6.96484836 C1.15115565,7.01725045 1.1341328,7.07163954 1.12239267,7.12727598 Z" id="shape" fill="#1F1F1F" transform="translate(8.500000, 9.424621) rotate(45.000000) translate(-8.500000, -9.424621) "></path>
    </g>
</svg>