<?xml version="1.0" encoding="UTF-8"?>
<svg width="18px" height="18px" viewBox="0 0 18 18" version="1.1" xmlns="http://www.w3.org/2000/svg" xmlns:xlink="http://www.w3.org/1999/xlink">
    <!-- Generator: Sketch 53.2 (72643) - https://sketchapp.com -->
    <title>图表 / pie-chart-outlined</title>
    <desc>Created with Sketch.</desc>
    <g id="图表-/-pie-chart-outlined" stroke="none" stroke-width="1" fill="none" fill-rule="evenodd">
        <path d="M9.5,16.5 C5.63400675,16.5 2.5,13.3659932 2.5,9.5 L9.5,9.5 L9.5,2.5 C13.3659932,2.5 16.5,5.63400675 16.5,9.5 C16.5,13.3659932 13.3659932,16.5 9.5,16.5 Z M9.46074285,15 C12.5199901,15 15,12.5157548 15,9.45128294 C15,6.90322347 13.3275286,4.75119737 11,4.10233363 L11,11 L4.1273028,11 C4.83927012,13.2674871 6.980476,15 9.46074285,15 Z M8.5,1.5 L8.5,8 C8.5,8.27614237 8.27614237,8.5 8,8.5 L1.5,8.5 C1.5,4.63400675 4.63400675,1.5 8.5,1.5 Z M7,3.5 C5.44444444,3.5 3.5,5.44444444 3.5,7 C3.5,7 4.66666667,6.99617617 7,6.9885285 C7,4.66284283 7,3.5 7,3.5 Z" id="shape" fill="#1F1F1F"></path>
    </g>
</svg>