<?xml version="1.0" encoding="UTF-8"?>
<svg width="18px" height="18px" viewBox="0 0 18 18" version="1.1" xmlns="http://www.w3.org/2000/svg" xmlns:xlink="http://www.w3.org/1999/xlink">
    <!-- Generator: Sketch 53.2 (72643) - https://sketchapp.com -->
    <title>编辑 / qr-code</title>
    <desc>Created with Sketch.</desc>
    <g id="编辑-/-qr-code" stroke="none" stroke-width="1" fill="none" fill-rule="evenodd">
        <path d="M6,12 L8.25,12 L8.25,15.75 L7,15.75 L7,13.25 L4.75,13.25 L4.75,9.75 L8.25,9.75 L8.25,11 L6,11 L6,12 Z M2.75,2.25 L7.75,2.25 C8.02614237,2.25 8.25,2.47385763 8.25,2.75 L8.25,7.75 C8.25,8.02614237 8.02614237,8.25 7.75,8.25 L2.75,8.25 C2.47385763,8.25 2.25,8.02614237 2.25,7.75 L2.25,2.75 C2.25,2.47385763 2.47385763,2.25 2.75,2.25 Z M3.5,3.5 L3.5,7 L7,7 L7,3.5 L3.5,3.5 Z M4.5,4.5 L6,4.5 L6,6 L4.5,6 L4.5,4.5 Z M10.25,2.25 L15.25,2.25 C15.5261424,2.25 15.75,2.47385763 15.75,2.75 L15.75,7.75 C15.75,8.02614237 15.5261424,8.25 15.25,8.25 L10.25,8.25 C9.97385763,8.25 9.75,8.02614237 9.75,7.75 L9.75,2.75 C9.75,2.47385763 9.97385763,2.25 10.25,2.25 Z M11,3.5 L11,7 L14.5,7 L14.5,3.5 L11,3.5 Z M12,4.5 L13.5,4.5 L13.5,6 L12,6 L12,4.5 Z M10.25,9.75 L15.25,9.75 C15.5261424,9.75 15.75,9.97385763 15.75,10.25 L15.75,15.25 C15.75,15.5261424 15.5261424,15.75 15.25,15.75 L10.25,15.75 C9.97385763,15.75 9.75,15.5261424 9.75,15.25 L9.75,10.25 C9.75,9.97385763 9.97385763,9.75 10.25,9.75 Z M11,11 L11,14.5 L14.5,14.5 L14.5,11 L11,11 Z M12,12 L13.5,12 L13.5,13.5 L12,13.5 L12,12 Z M2.25,9.75 L3.5,9.75 L3.5,11 L2.25,11 L2.25,9.75 Z M3.5,14.5 L5.5,14.5 L5.5,15.75 L2.75,15.75 C2.47385763,15.75 2.25,15.5261424 2.25,15.25 L2.25,12 L3.5,12 L3.5,14.5 Z" id="shape" fill="#1F1F1F"></path>
    </g>
</svg>