<?xml version="1.0" encoding="UTF-8"?>
<svg width="18px" height="18px" viewBox="0 0 18 18" version="1.1" xmlns="http://www.w3.org/2000/svg" xmlns:xlink="http://www.w3.org/1999/xlink" style="background: #FFFFFF;">
    <!-- Generator: Sketch 63.1 (92452) - https://sketch.com -->
    <title>工具 / radar-outlined</title>
    <desc>Created with Sketch.</desc>
    <g id="radar-outlined" stroke="none" stroke-width="1" fill="none" fill-rule="evenodd">
        <rect fill="#FFFFFF" opacity="0" x="0" y="0" width="18" height="18"></rect>
        <path d="M9,1 C10.3911578,1 11.6993798,1.3550901 12.8389744,1.97957862 L11.7216633,3.09551541 C10.8937468,2.71325343 9.97177742,2.5 9,2.5 C5.41014913,2.5 2.5,5.41014913 2.5,9 C2.5,12.5898509 5.41014913,15.5 9,15.5 C12.5898509,15.5 15.5,12.5898509 15.5,9 C15.5,8.02822258 15.2867466,7.10625318 14.9044846,6.27833667 L16.0204214,5.16102561 C16.6449099,6.30062022 17,7.60884224 17,9 C17,13.418278 13.418278,17 9,17 C4.581722,17 1,13.418278 1,9 C1,4.581722 4.581722,1 9,1 Z M9,4 C9.54724241,4 10.0739511,4.08791546 10.5667727,4.25039309 L9.30457364,5.51306856 C9.20420031,5.50441608 9.10261587,5.5 9,5.5 C7.06700338,5.5 5.5,7.06700338 5.5,9 C5.5,10.9329966 7.06700338,12.5 9,12.5 C10.9329966,12.5 12.5,10.9329966 12.5,9 C12.5,8.89840688 12.4956715,8.79782473 12.4871889,8.69842792 L13.749937,7.43422907 C13.9122036,7.92676265 14,8.45312835 14,9 C14,11.7614237 11.7614237,14 9,14 C6.23857625,14 4,11.7614237 4,9 C4,6.23857625 6.23857625,4 9,4 Z M15,3 C15.2928932,3.29289322 15.2928932,3.76776695 15,4.06066017 L10.449458,8.61246161 C10.4824264,8.73608399 10.5,8.86598973 10.5,9 C10.5,9.82842712 9.82842712,10.5 9,10.5 C8.17157288,10.5 7.5,9.82842712 7.5,9 C7.5,8.17157288 8.17157288,7.5 9,7.5 C9.13401027,7.5 9.26391601,7.5175736 9.38753839,7.55054198 L13.9393398,3 C14.232233,2.70710678 14.7071068,2.70710678 15,3 Z" id="shape" fill="#000000"></path>
    </g>
</svg>