<?xml version="1.0" encoding="UTF-8"?>
<svg width="18px" height="18px" viewBox="0 0 18 18" version="1.1" xmlns="http://www.w3.org/2000/svg" xmlns:xlink="http://www.w3.org/1999/xlink">
    <!-- Generator: Sketch 53.2 (72643) - https://sketchapp.com -->
    <title>编辑 / refresh</title>
    <desc>Created with Sketch.</desc>
    <g id="编辑-/-refresh" stroke="none" stroke-width="1" fill="none" fill-rule="evenodd">
        <path d="M4.67588333,10.25 C5.21755557,12.1271409 6.94845357,13.5 9,13.5 C10.0314693,13.5 10.9818838,13.1529629 11.7408525,12.5692796 L12.8082817,13.6367088 C11.772335,14.4885564 10.4458945,15 9,15 C6.11494237,15 3.70547907,12.9637386 3.13039416,10.25 L1.75756836,10.25 C1.47241849,10.25 1.39607166,10.0773699 1.57626018,9.86441979 L3.67373982,7.38558021 C3.85214806,7.17473412 4.14607166,7.17263014 4.32626018,7.38558021 L6.42373982,9.86441979 C6.60214806,10.0752659 6.5227539,10.25 6.24243164,10.25 L4.67588333,10.25 Z M14.9170416,8 L16.2424316,8 C16.5227539,8 16.6021481,8.17473412 16.4237398,8.38558021 L14.3262602,10.8644198 C14.1460717,11.0773699 13.8521481,11.0752659 13.6737398,10.8644198 L11.5762602,8.38558021 C11.3960717,8.17263014 11.4724185,8 11.7575684,8 L13.3884918,8 C12.9337626,5.9960113 11.1415874,4.5 9,4.5 C7.71371983,4.5 6.55348813,5.03967763 5.73338246,5.90495533 L4.67243486,4.84400773 C5.76424165,3.70741401 7.29950813,3 9,3 C11.9729963,3 14.4409635,5.16228666 14.9170416,8 L14.9170416,8 Z" id="shape" fill="#1F1F1F"></path>
    </g>
</svg>