<?xml version="1.0" encoding="UTF-8"?>
<svg width="18px" height="18px" viewBox="0 0 18 18" version="1.1" xmlns="http://www.w3.org/2000/svg" xmlns:xlink="http://www.w3.org/1999/xlink">
    <!-- Generator: Sketch 56.3 (81716) - https://sketch.com -->
    <title>编辑 / refresh-circle</title>
    <desc>Created with Sketch.</desc>
    <g id="编辑-/-refresh-circle" stroke="none" stroke-width="1" fill="none" fill-rule="evenodd">
        <path d="M9,16 C5.13400675,16 2,12.8659932 2,9 C2,5.13400675 5.13400675,2 9,2 C12.8659932,2 16,5.13400675 16,9 C16,12.8659932 12.8659932,16 9,16 Z M6.33705105,10 L7.5662396,10 C7.62472372,10 7.68135695,9.97949595 7.7262857,9.94205532 C7.83235492,9.8536643 7.84668594,9.69602312 7.75829492,9.5899539 L5.79205532,7.23046638 C5.78237551,7.21885062 5.77166187,7.20813697 5.7600461,7.19845716 C5.65397688,7.11006614 5.4963357,7.12439716 5.40794468,7.23046638 L3.44170508,9.5899539 C3.40426446,9.63488265 3.3837604,9.69151587 3.3837604,9.75 C3.3837604,9.88807119 3.49568922,10 3.6337604,10 L4.96483913,10 C5.41249928,11.8124058 7.04931382,13.15625 9,13.15625 C9.79023146,13.15625 10.5494094,12.9347023 11.2052099,12.5235394 C11.2655432,12.4857126 11.3248916,12.4463443 11.3831968,12.4054778 L10.629874,11.3306936 C10.5899477,11.3586782 10.5493151,11.3856316 10.508017,11.411524 C10.0596676,11.6926227 9.54179919,11.84375 9,11.84375 C7.78136401,11.84375 6.74176202,11.0772143 6.33705105,10 Z M11.662949,8 L10.4337604,8 C10.2956892,8 10.1837604,8.11192881 10.1837604,8.25 C10.1837604,8.30848413 10.2042645,8.36511735 10.2417051,8.4100461 L12.2079447,10.7695336 C12.2963357,10.8756028 12.4539769,10.8899339 12.5600461,10.8015428 C12.5716619,10.791863 12.5823755,10.7811494 12.5920553,10.7695336 L14.5582949,8.4100461 C14.6466859,8.30397688 14.6323549,8.1463357 14.5262857,8.05794468 C14.4813569,8.02050405 14.4247237,8 14.3662396,8 L13.0351609,8 C12.5875007,6.18759425 10.9506862,4.84375 9,4.84375 C8.03041666,4.84375 7.110284,5.17761547 6.3742086,5.7781157 L7.20388959,6.79511408 C7.70778424,6.38403004 8.33554563,6.15625 9,6.15625 C10.218636,6.15625 11.258238,6.92278567 11.662949,8 L11.662949,8 Z" id="形状" fill="#000000"></path>
    </g>
</svg>