<?xml version="1.0" encoding="UTF-8"?>
<svg width="18px" height="18px" viewBox="0 0 18 18" version="1.1" xmlns="http://www.w3.org/2000/svg" xmlns:xlink="http://www.w3.org/1999/xlink">
    <!-- Generator: Sketch 53.2 (72643) - https://sketchapp.com -->
    <title>编辑 / replay</title>
    <desc>Created with Sketch.</desc>
    <g id="编辑-/-replay" stroke="none" stroke-width="1" fill="none" fill-rule="evenodd">
        <path d="M9,5.5 L9,6.99243164 C9,7.27758151 8.82736986,7.35392834 8.61441979,7.17373982 L6.13558021,5.07626018 C5.92473412,4.89785194 5.92263014,4.60392834 6.13558021,4.42373982 L8.61441979,2.32626018 C8.82526588,2.14785194 9,2.2272461 9,2.50756836 L9,4 C12.3137085,4 15,6.6862915 15,10 C15,13.3137085 12.3137085,16 9,16 C5.6862915,16 3,13.3137085 3,10 L4.5,10 C4.5,12.4852814 6.51471863,14.5 9,14.5 C11.4852814,14.5 13.5,12.4852814 13.5,10 C13.5,7.51471863 11.4852814,5.5 9,5.5 Z" id="shape" fill="#1F1F1F"></path>
    </g>
</svg>