<?xml version="1.0" encoding="UTF-8"?>
<svg width="18px" height="18px" viewBox="0 0 18 18" version="1.1" xmlns="http://www.w3.org/2000/svg" xmlns:xlink="http://www.w3.org/1999/xlink">
    <!-- Generator: Sketch 57 (83077) - https://sketch.com -->
    <title>编辑 / replace</title>
    <desc>Created with Sketch.</desc>
    <g id="编辑-/-replace" stroke="none" stroke-width="1" fill="none" fill-rule="evenodd">
        <path d="M3.5,3.5 L3.5,6.5 L6.5,6.5 L6.5,3.5 L3.5,3.5 Z M16,10 L16,16 L10,16 L10,10 L16,10 Z M3.5,9 L3.5,10.5 C3.5,11.7426407 4.50735931,12.75 5.75,12.75 L7,12.75 L7,11 L9.75,13.5 L7,16 L7,14.25 L5.75,14.25 C3.67893219,14.25 2,12.5710678 2,10.5 L2,9 L3.5,9 Z M14.5,11.5 L11.5,11.5 L11.5,14.5 L14.5,14.5 L14.5,11.5 Z M11,2 L11,3.75 L12.25,3.75 C14.3210678,3.75 16,5.42893219 16,7.5 L16,9 L14.5,9 L14.5,7.5 C14.5,6.25735931 13.4926407,5.25 12.25,5.25 L11,5.25 L11,7 L8.25,4.5 L11,2 Z M8,2 L8,8 L2,8 L2,2 L8,2 Z" id="shape" fill="#000000"></path>
    </g>
</svg>