<?xml version="1.0" encoding="UTF-8"?>
<svg width="18px" height="18px" viewBox="0 0 18 18" version="1.1" xmlns="http://www.w3.org/2000/svg" xmlns:xlink="http://www.w3.org/1999/xlink">
    <!-- Generator: Sketch 53.2 (72643) - https://sketchapp.com -->
    <title>工具 / report</title>
    <desc>Created with Sketch.</desc>
    <g id="工具-/-report" stroke="none" stroke-width="1" fill="none" fill-rule="evenodd">
        <path d="M2.5,14.9230769 L2.5,3.07692308 C2.5,2.21538462 2.71727273,2 3.59,2 L12.24295,2 C12.3873447,2 12.5799975,2.07999752 12.6786795,2.17867947 L15.3213205,4.82132053 C15.4258423,4.92584229 15.5,5.10982048 15.5,5.2452909 L15.5,14.9230769 C15.5,15.7846154 15.2827273,16 14.41,16 L3.59,16 C2.71727273,16 2.5,15.7846154 2.5,14.9230769 Z M5,5.5 L5,6.75 L10,6.75 L10,5.5 L5,5.5 Z M5,8.5 L5,9.75 L13,9.75 L13,8.5 L5,8.5 Z M5,11.5 L5,12.75 L13,12.75 L13,11.5 L5,11.5 Z" id="shape" fill="#1F1F1F"></path>
    </g>
</svg>