<?xml version="1.0" encoding="UTF-8"?>
<svg width="18px" height="18px" viewBox="0 0 18 18" version="1.1" xmlns="http://www.w3.org/2000/svg" xmlns:xlink="http://www.w3.org/1999/xlink">
    <!-- Generator: Sketch 53.2 (72643) - https://sketchapp.com -->
    <title>编辑 / revolve</title>
    <desc>Created with Sketch.</desc>
    <g id="编辑-/-revolve" stroke="none" stroke-width="1" fill="none" fill-rule="evenodd">
        <path d="M16.0526372,9.66790565 L16.8643932,12.6974201 C16.9358641,12.9641532 16.7775728,13.2383217 16.5108398,13.3097926 L4.91972988,16.4156211 C4.65299682,16.487092 4.37882835,16.3288008 4.30735744,16.0620677 L2.59404688,9.66790565 L1.62989747,9.66790565 C1.35116795,9.66790565 1.12521302,9.44657548 1.12521302,9.16007407 L1.12521302,8.67573722 C1.12521302,8.39526959 1.33924806,8.16790565 1.62989747,8.16790565 L2.19212309,8.16790565 L1.46034794,5.43688363 C1.38887704,5.17015058 1.54716828,4.8959821 1.81390134,4.8245112 L13.4050113,1.71868266 C13.6717443,1.64721175 13.9459128,1.80550299 14.0173837,2.07223605 L15.6507134,8.16790565 L16.6193007,8.16790565 C16.8987084,8.16790565 17.125213,8.38923581 17.125213,8.67573722 L17.125213,9.16007407 C17.125213,9.44054171 16.8945001,9.66790565 16.6193007,9.66790565 L16.0526372,9.66790565 L16.0526372,9.66790565 Z M3.16805573,6.01458089 L5.49742714,14.7079133 L15.1566854,12.1197229 L12.827314,3.42639044 L3.16805573,6.01458089 Z M4.37521302,8.16790565 L6.62521302,8.16790565 L6.62521302,9.66790565 L4.37521302,9.66790565 L4.37521302,8.16790565 Z M7.87521302,8.16790565 L10.125213,8.16790565 L10.125213,9.66790565 L7.87521302,9.66790565 L7.87521302,8.16790565 Z M11.375213,8.16790565 L13.625213,8.16790565 L13.625213,9.66790565 L11.375213,9.66790565 L11.375213,8.16790565 Z" id="shape" fill="#1F1F1F"></path>
    </g>
</svg>