<?xml version="1.0" encoding="UTF-8"?>
<svg width="18px" height="18px" viewBox="0 0 18 18" version="1.1" xmlns="http://www.w3.org/2000/svg" xmlns:xlink="http://www.w3.org/1999/xlink">
    <!-- Generator: Sketch 53.2 (72643) - https://sketchapp.com -->
    <title>工具 / ruler</title>
    <desc>Created with Sketch.</desc>
    <g id="工具-/-ruler" stroke="none" stroke-width="1" fill="none" fill-rule="evenodd">
        <path d="M1.5,5 L16.5,5 C16.7761424,5 17,5.22385763 17,5.5 L17,12.5 C17,12.7761424 16.7761424,13 16.5,13 L1.5,13 C1.22385763,13 1,12.7761424 1,12.5 L1,5.5 C1,5.22385763 1.22385763,5 1.5,5 Z M15.5,6.5 L2.5,6.5 L2.5,11.5 L15.5,11.5 L15.5,6.5 Z M4.5,6.5 L6,6.5 L6,9 L4.5,9 L4.5,6.5 Z M7,6.5 L8.5,6.5 L8.5,9 L7,9 L7,6.5 Z M9.5,6.5 L11,6.5 L11,9 L9.5,9 L9.5,6.5 Z M12,6.5 L13.5,6.5 L13.5,9 L12,9 L12,6.5 Z" id="shape" fill="#1F1F1F"></path>
    </g>
</svg>