<?xml version="1.0" encoding="UTF-8"?>
<svg width="18px" height="18px" viewBox="0 0 18 18" version="1.1" xmlns="http://www.w3.org/2000/svg" xmlns:xlink="http://www.w3.org/1999/xlink">
    <!-- Generator: Sketch 53.2 (72643) - https://sketchapp.com -->
    <title>编辑 / scan</title>
    <desc>Created with Sketch.</desc>
    <g id="编辑-/-scan" stroke="none" stroke-width="1" fill="none" fill-rule="evenodd">
        <path d="M14,14 L14,11.7502179 C14,11.6120264 14.1177025,11.5 14.2476945,11.5 L15.2523055,11.5 C15.3891034,11.5 15.5,11.6153984 15.5,11.7502179 L15.5,14.75 C15.5,15.1642136 15.171936,15.5 14.7406076,15.5 L10.7411604,15.5 C10.6079712,15.5 10.5,15.3822975 10.5,15.2523055 L10.5,14.2476945 C10.5,14.1108966 10.6044321,14 10.7411604,14 L14,14 Z M4,14 L7.25883961,14 C7.39202881,14 7.5,14.1177025 7.5,14.2476945 L7.5,15.2523055 C7.5,15.3891034 7.39556789,15.5 7.25883961,15.5 L3.25939238,15.5 C2.83999155,15.5 2.5,15.1671014 2.5,14.75 L2.5,11.7502179 C2.5,11.6120264 2.61770248,11.5 2.74769449,11.5 L3.75230551,11.5 C3.8891034,11.5 4,11.6153984 4,11.7502179 L4,14 Z M10.7411604,2.5 L14.75,2.5 C15.1642136,2.5 15.5,2.84103775 15.5,3.2523694 L15.5,6.24978209 C15.5,6.38797362 15.3822975,6.5 15.2523055,6.5 L14.2476945,6.5 C14.1108966,6.5 14,6.38460159 14,6.24978209 L14,4 L10.7411604,4 C10.6079712,4 10.5,3.88229752 10.5,3.75230551 L10.5,2.74769449 C10.5,2.6108966 10.6044321,2.5 10.7411604,2.5 Z M4,4 L4,6.24978209 C4,6.38797362 3.88229752,6.5 3.75230551,6.5 L2.74769449,6.5 C2.6108966,6.5 2.5,6.38460159 2.5,6.24978209 L2.5,3.25 C2.5,2.83578644 2.82806396,2.5 3.25939238,2.5 L7.25883961,2.5 C7.39202881,2.5 7.5,2.61770248 7.5,2.74769449 L7.5,3.75230551 C7.5,3.8891034 7.39556789,4 7.25883961,4 L4,4 Z M2,8.50468445 C2,8.22595492 2.21990657,8 2.49826741,8 L15.5017326,8 C15.7769181,8 16,8.21403503 16,8.50468445 L16,9.49531555 C16,9.77404508 15.7800934,10 15.5017326,10 L2.49826741,10 C2.22308192,10 2,9.78596497 2,9.49531555 L2,8.50468445 Z" id="shape" fill="#1F1F1F"></path>
    </g>
</svg>