<?xml version="1.0" encoding="UTF-8"?>
<svg width="18px" height="18px" viewBox="0 0 18 18" version="1.1" xmlns="http://www.w3.org/2000/svg" xmlns:xlink="http://www.w3.org/1999/xlink">
    <!-- Generator: Sketch 53.2 (72643) - https://sketchapp.com -->
    <title>编辑 / send</title>
    <desc>Created with Sketch.</desc>
    <g id="编辑-/-send" stroke="none" stroke-width="1" fill="none" fill-rule="evenodd">
        <path d="M9.70374613,2.51758463 L15.9639333,15.0366444 C16.0874383,15.2836285 15.9873387,15.5839692 15.7403546,15.7074742 C15.6360967,15.7596087 15.5168997,15.7736779 15.4033687,15.7472499 L10.3929764,14.5809186 C10.3107737,14.5617833 10.2494311,14.4931044 10.2396642,14.4092709 L9.77654991,10.4341726 C9.76480383,10.3333512 9.67939686,10.2573168 9.57789356,10.2573168 L8.93399531,10.2573168 C8.83249294,10.2573168 8.74708644,10.3333499 8.73533924,10.4341702 L8.27222642,14.4088336 C8.26245953,14.4926578 8.20112803,14.5613313 8.11893642,14.5804738 L3.10983958,15.7470979 C2.84089505,15.8097354 2.57209473,15.6424905 2.50945726,15.373546 C2.48301207,15.2599991 2.49707709,15.1407805 2.5492202,15.0365052 L8.80933772,2.51758463 C8.93284272,2.27060057 9.23318344,2.17050101 9.4801675,2.294006 C9.57691632,2.34238549 9.65536664,2.42083581 9.70374613,2.51758463 Z" id="shape" fill="#1F1F1F" transform="translate(9.256631, 9.000686) rotate(-270.000000) translate(-9.256631, -9.000686) "></path>
    </g>
</svg>