<?xml version="1.0" encoding="UTF-8"?>
<svg width="18px" height="18px" viewBox="0 0 18 18" version="1.1" xmlns="http://www.w3.org/2000/svg" xmlns:xlink="http://www.w3.org/1999/xlink">
    <!-- Generator: Sketch 53.2 (72643) - https://sketchapp.com -->
    <title>编辑 / send-outlined</title>
    <desc>Created with Sketch.</desc>
    <g id="编辑-/-send-outlined" stroke="none" stroke-width="1" fill="none" fill-rule="evenodd">
        <path d="M5.30750191,9.84424981 L4.50047176,13.25 L13.5,9 L4.5,4.75 L5.32117431,8.15711743 L8.56990074,8.48199007 C8.6721411,8.49221411 8.75,8.57824722 8.75,8.68099751 L8.75,9.31900249 C8.75,9.42175278 8.6721411,9.50778589 8.56990074,9.51800993 L5.30750191,9.84424981 L5.30750191,9.84424981 Z M15.7397322,9.4478006 L3.22038372,15.7081321 C2.97339966,15.8316371 2.67305893,15.7315375 2.54955393,15.4845535 C2.49743741,15.3803314 2.48335935,15.2611794 2.50975178,15.1476812 L3.93133535,9.0342973 L2.50697706,2.85123615 C2.44498721,2.58214161 2.61287873,2.31374469 2.88197327,2.25175484 C2.99518056,2.22567589 3.11393592,2.2398312 3.2178414,2.29178939 L15.7397322,8.55339219 C15.9867163,8.67689719 16.0868158,8.97723791 15.9633108,9.22422197 C15.9149313,9.32097079 15.836481,9.39942111 15.7397322,9.4478006 Z" id="shape" fill="#1F1F1F"></path>
    </g>
</svg>