<?xml version="1.0" encoding="UTF-8"?>
<svg width="18px" height="18px" viewBox="0 0 18 18" version="1.1" xmlns="http://www.w3.org/2000/svg" xmlns:xlink="http://www.w3.org/1999/xlink">
    <!-- Generator: Sketch 53.2 (72643) - https://sketchapp.com -->
    <title>编辑 / setting-outlined</title>
    <desc>Created with Sketch.</desc>
    <g id="编辑-/-setting-outlined" stroke="none" stroke-width="1" fill="none" fill-rule="evenodd">
        <path d="M3.43850503,10.4657758 L2.42582977,10.3138745 C2.18106979,10.2771605 2,10.0669045 2,9.81940629 L2,8.18059371 C2,7.9330955 2.18106979,7.72283953 2.42582977,7.68612553 L3.43850503,7.53422425 C3.56979998,7.03471471 3.76660681,6.56176249 4.01918522,6.12510787 L3.37627114,5.25528293 C3.22916041,5.05625077 3.24979815,4.77954167 3.42480582,4.60453401 L4.58362131,3.44571852 C4.75862897,3.27071086 5.03533807,3.25007312 5.23437023,3.39718384 L6.09758151,4.03520957 C6.541863,3.77492139 7.02420005,3.57256374 7.53422425,3.43850503 L7.68612553,2.42582977 C7.72283953,2.18106979 7.9330955,2 8.18059371,2 L9.81940629,2 C10.0669045,2 10.2771605,2.18106979 10.3138745,2.42582977 L10.4657758,3.43850503 C10.9668639,3.57021492 11.4412266,3.76785141 11.879031,4.02158158 L12.7238044,3.39718384 C12.9228365,3.25007312 13.1995456,3.27071086 13.3745533,3.44571852 L14.5333688,4.60453401 C14.7083764,4.77954167 14.7290142,5.05625077 14.5819035,5.25528293 L13.9623769,6.09346588 C14.2238279,6.5388837 14.4270222,7.02262475 14.561495,7.53422425 L15.5741702,7.68612553 C15.8189302,7.72283953 16,7.9330955 16,8.18059371 L16,9.81940629 C16,10.0669045 15.8189302,10.2771605 15.5741702,10.3138745 L14.561495,10.4657758 C14.4270222,10.9773753 14.2238279,11.4611163 13.9623769,11.9065341 L14.5819035,12.7447171 C14.7290142,12.9437492 14.7083764,13.2204583 14.5333688,13.395466 L13.3745533,14.5542815 C13.1995456,14.7292891 12.9228365,14.7499269 12.7238044,14.6028162 L11.879031,13.9784184 C11.4412266,14.2321486 10.9668639,14.4297851 10.4657758,14.561495 L10.3138745,15.5741702 C10.2771605,15.8189302 10.0669045,16 9.81940629,16 L8.18059371,16 C7.9330955,16 7.72283953,15.8189302 7.68612553,15.5741702 L7.53422425,14.561495 C7.02420005,14.4274363 6.541863,14.2250786 6.09758151,13.9647904 L5.23437023,14.6028162 C5.03533807,14.7499269 4.75862897,14.7292891 4.58362131,14.5542815 L3.42480582,13.395466 C3.24979815,13.2204583 3.22916041,12.9437492 3.37627114,12.7447171 L4.01918522,11.8748921 C3.76660681,11.4382375 3.56979998,10.9652853 3.43850503,10.4657758 L3.43850503,10.4657758 Z M9.6721695,13.2001372 C10.3469478,13.0990744 10.9727281,12.8481926 11.5145715,12.4824305 L12.7386213,13.4224466 L13.4015339,12.759534 L12.4972693,11.5820384 C12.945366,11.0293701 13.2651023,10.3683916 13.4111005,9.64448056 L14.75,9.46875 L14.75,8.53125 L13.483766,8.36505679 C13.4149513,7.5527719 13.1303675,6.80196948 12.6875505,6.17018543 L13.4015339,5.24046605 L12.7386213,4.57755344 L11.8453379,5.26355558 C11.2174312,4.75049824 10.448357,4.40370588 9.6052973,4.2903604 L9.46875,3.25 L8.53125,3.25 L8.3947027,4.2903604 C7.54257928,4.40492445 6.76604078,4.75798194 6.1344593,5.28016077 L5.21955334,4.57755344 L4.55664074,5.24046605 L5.29257731,6.19877195 C4.86112106,6.82456741 4.58401371,7.5649886 4.516234,8.36505679 L3.25,8.53125 L3.25,9.46875 L4.58889953,9.64448056 C4.73256287,10.3568147 5.04445195,11.0082132 5.4813313,11.5554405 L4.55664074,12.759534 L5.21955334,13.4224466 L6.46323581,12.4673534 C7.01015768,12.8412996 7.64382011,13.0976917 8.3278305,13.2001372 L8.53125,14.75 L9.46875,14.75 L9.6721695,13.2001372 L9.6721695,13.2001372 Z M9,11.25 C7.61928813,11.25 6.5,10.1307119 6.5,8.75 C6.5,7.36928813 7.61928813,6.25 9,6.25 C10.3807119,6.25 11.5,7.36928813 11.5,8.75 C11.5,10.1307119 10.3807119,11.25 9,11.25 Z M9,10 C9.69035594,10 10.25,9.44035594 10.25,8.75 C10.25,8.05964406 9.69035594,7.5 9,7.5 C8.30964406,7.5 7.75,8.05964406 7.75,8.75 C7.75,9.44035594 8.30964406,10 9,10 Z" id="shape" fill="#1F1F1F"></path>
    </g>
</svg>