<?xml version="1.0" encoding="UTF-8"?>
<svg width="18px" height="18px" viewBox="0 0 18 18" version="1.1" xmlns="http://www.w3.org/2000/svg" xmlns:xlink="http://www.w3.org/1999/xlink">
    <!-- Generator: Sketch 53.2 (72643) - https://sketchapp.com -->
    <title>编辑 / setting</title>
    <desc>Created with Sketch.</desc>
    <g id="编辑-/-setting" stroke="none" stroke-width="1" fill="none" fill-rule="evenodd">
        <path d="M13.9687234,6.10430506 C14.2271176,6.54672791 14.4281122,7.02677176 14.561495,7.53422425 L15.5741702,7.68612553 C15.8189302,7.72283953 16,7.9330955 16,8.18059371 L16,9.81940629 C16,10.0669045 15.8189302,10.2771605 15.5741702,10.3138745 L14.561495,10.4657758 C14.4281122,10.9732282 14.2271176,11.4532721 13.9687234,11.8956949 L14.5776899,12.7195908 C14.7248006,12.918623 14.7041629,13.1953321 14.5291552,13.3703397 L13.3703397,14.5291552 C13.1953321,14.7041629 12.918623,14.7248006 12.7195908,14.5776899 L11.8956949,13.9687234 C11.4532721,14.2271176 10.9732282,14.4281122 10.4657758,14.561495 L10.3138745,15.5741702 C10.2771605,15.8189302 10.0669045,16 9.81940629,16 L8.18059371,16 C7.9330955,16 7.72283953,15.8189302 7.68612553,15.5741702 L7.53422425,14.561495 C7.02677176,14.4281122 6.54672791,14.2271176 6.10430506,13.9687234 L5.2804092,14.5776899 C5.08137704,14.7248006 4.80466794,14.7041629 4.62966028,14.5291552 L3.47084479,13.3703397 C3.29583712,13.1953321 3.27519938,12.918623 3.42231011,12.7195908 L4.03127662,11.8956949 C3.77288242,11.4532721 3.57188777,10.9732282 3.43850503,10.4657758 L2.42582977,10.3138745 C2.18106979,10.2771605 2,10.0669045 2,9.81940629 L2,8.18059371 C2,7.9330955 2.18106979,7.72283953 2.42582977,7.68612553 L3.43850503,7.53422425 C3.57188777,7.02677176 3.77288242,6.54672791 4.03127662,6.10430506 L3.42231011,5.2804092 C3.27519938,5.08137704 3.29583712,4.80466794 3.47084479,4.62966028 L4.62966028,3.47084479 C4.80466794,3.29583712 5.08137704,3.27519938 5.2804092,3.42231011 L6.10430506,4.03127662 C6.54672791,3.77288242 7.02677176,3.57188777 7.53422425,3.43850503 L7.68612553,2.42582977 C7.72283953,2.18106979 7.9330955,2 8.18059371,2 L9.81940629,2 C10.0669045,2 10.2771605,2.18106979 10.3138745,2.42582977 L10.4657758,3.43850503 C10.9732282,3.57188777 11.4532721,3.77288242 11.8956949,4.03127662 L12.7195908,3.42231011 C12.918623,3.27519938 13.1953321,3.29583712 13.3703397,3.47084479 L14.5291552,4.62966028 C14.7041629,4.80466794 14.7248006,5.08137704 14.5776899,5.2804092 L13.9687234,6.10430506 L13.9687234,6.10430506 Z M9,11.5 C10.3807119,11.5 11.5,10.3807119 11.5,9 C11.5,7.61928813 10.3807119,6.5 9,6.5 C7.61928813,6.5 6.5,7.61928813 6.5,9 C6.5,10.3807119 7.61928813,11.5 9,11.5 Z" id="shape" fill="#1F1F1F"></path>
    </g>
</svg>