<?xml version="1.0" encoding="UTF-8"?>
<svg width="18px" height="18px" viewBox="0 0 18 18" version="1.1" xmlns="http://www.w3.org/2000/svg" xmlns:xlink="http://www.w3.org/1999/xlink">
    <!-- Generator: Sketch 53.2 (72643) - https://sketchapp.com -->
    <title>编辑 / share</title>
    <desc>Created with Sketch.</desc>
    <g id="编辑-/-share" stroke="none" stroke-width="1" fill="none" fill-rule="evenodd">
        <path d="M2.5,5 L4.75,5 C4.88807119,5 5,5.11192881 5,5.25 L5,6.25 C5,6.38807119 4.88807119,6.5 4.75,6.5 L3.5,6.5 L3.5,14.5 L14.5,14.5 L14.5,9.25 C14.5,9.11192881 14.6119288,9 14.75,9 L15.75,9 C15.8880712,9 16,9.11192881 16,9.25 L16,15.5 C16,15.7761424 15.7761424,16 15.5,16 L2.5,16 C2.22385763,16 2,15.7761424 2,15.5 L2,5.5 C2,5.22385763 2.22385763,5 2.5,5 Z M12.3922119,2.32299805 L15.8577881,5.17700195 C16.0781312,5.35846096 16.0744007,5.64461115 15.8577881,5.82299805 L12.3922119,8.67700195 C12.1718688,8.85846096 12,8.77417584 12,8.49560761 L12,6.25 L9.26193062,6.25 C8.98826171,6.25 8.75488073,6.46964055 8.75488073,6.74058089 L8.75488073,11.7567363 C8.75488073,11.8837975 8.6436233,12.0039775 8.50638029,12.0039775 L7.49850045,12.0039775 C7.36808547,12.0039775 7.25,11.8959202 7.25,11.7626247 L7.25,6.25302884 C7.25,5.41943445 7.92288454,4.75 8.75292969,4.75 L12,4.75 L12,2.50439239 C12,2.21578789 12.1755993,2.14461115 12.3922119,2.32299805 Z" id="shape" fill="#1F1F1F"></path>
    </g>
</svg>