<?xml version="1.0" encoding="UTF-8"?>
<svg width="18px" height="18px" viewBox="0 0 18 18" version="1.1" xmlns="http://www.w3.org/2000/svg" xmlns:xlink="http://www.w3.org/1999/xlink">
    <!-- Generator: Sketch 53.2 (72643) - https://sketchapp.com -->
    <title>生活 / shopping-outlined</title>
    <desc>Created with Sketch.</desc>
    <g id="生活-/-shopping-outlined" stroke="none" stroke-width="1" fill="none" fill-rule="evenodd">
        <path d="M6,5 L6,4 C6,2.34314575 7.34314575,1 9,1 C10.6568542,1 12,2.34314575 12,4 L12,5 L14.5,5 C14.7761424,5 15,5.22385763 15,5.5 L15,16 C15,16.2761424 14.7761424,16.5 14.5,16.5 L3.5,16.5 C3.22385763,16.5 3,16.2761424 3,16 L3,5.5 C3,5.22385763 3.22385763,5 3.5,5 L6,5 Z M7.5,5 L10.5,5 L10.5,4 C10.5,3.17157288 9.82842712,2.5 9,2.5 C8.17157288,2.5 7.5,3.17157288 7.5,4 L7.5,5 L7.5,5 Z M6,6.5 L4.5,6.5 L4.5,15 L13.5,15 L13.5,6.5 L12,6.5 L12,8.5 L10.5,8.5 L10.5,6.5 L9.39613583,6.5 C9.26651676,6.50069247 9.13428878,6.5 9,6.5 C8.79301151,6.5 8.59091913,6.50278018 8.39573001,6.5 L7.5,6.5 L7.5,8.5 L6,8.5 L6,6.5 Z" id="shape" fill="#1F1F1F"></path>
    </g>
</svg>