<?xml version="1.0" encoding="UTF-8"?>
<svg width="18px" height="18px" viewBox="0 0 18 18" version="1.1" xmlns="http://www.w3.org/2000/svg" xmlns:xlink="http://www.w3.org/1999/xlink">
    <!-- Generator: Sketch 53.2 (72643) - https://sketchapp.com -->
    <title>生活 / shopping</title>
    <desc>Created with Sketch.</desc>
    <g id="生活-/-shopping" stroke="none" stroke-width="1" fill="none" fill-rule="evenodd">
        <path d="M12,5 L14.5,5 C14.7761424,5 15,5.22385763 15,5.5 L15,16 C15,16.2761424 14.7761424,16.5 14.5,16.5 L3.5,16.5 C3.22385763,16.5 3,16.2761424 3,16 L3,5.5 C3,5.22385763 3.22385763,5 3.5,5 L6,5 L6,4 C6,2.34314575 7.34314575,1 9,1 C10.6568542,1 12,2.34314575 12,4 L12,5 Z M10.5,4 C10.5,3.17157288 9.82842712,2.5 9,2.5 C8.17157288,2.5 7.5,3.17157288 7.5,4 C7.5,4.20395139 7.5,4.53728472 7.5,5 L10.5,5 C10.5,4.49533477 10.5,4.16200143 10.5,4 Z" id="shape" fill="#1F1F1F"></path>
    </g>
</svg>