<?xml version="1.0" encoding="UTF-8"?>
<svg width="18px" height="18px" viewBox="0 0 18 18" version="1.1" xmlns="http://www.w3.org/2000/svg" xmlns:xlink="http://www.w3.org/1999/xlink">
    <!-- Generator: Sketch 53.2 (72643) - https://sketchapp.com -->
    <title>工具 / speaker-outlined</title>
    <desc>Created with Sketch.</desc>
    <g id="工具-/-speaker-outlined" stroke="none" stroke-width="1" fill="none" fill-rule="evenodd">
        <path d="M6.5,5.5 L13.7995906,2.30642912 C14.0525804,2.19574606 14.3473956,2.31110851 14.4580787,2.56409837 C14.485727,2.6272946 14.5,2.69552812 14.5,2.76450779 L14.5,15.2354922 C14.5,15.5116346 14.2761424,15.7354922 14,15.7354922 C13.9310203,15.7354922 13.8627868,15.7212192 13.7995906,15.6935709 L6.5,12.5 L3,12.5 C2.44771525,12.5 2,12.0522847 2,11.5 L2,6.5 C2,5.94771525 2.44771525,5.5 3,5.5 L6.5,5.5 L6.5,5.5 Z M3.5,7 L3.5,11 L5,11 L5,7 L3.5,7 Z M6.5,7 L6.5,11 L13,13.8271372 L13,4.1557458 L6.5,7 Z" id="shape" fill="#1F1F1F"></path>
    </g>
</svg>