<?xml version="1.0" encoding="UTF-8"?>
<svg width="18px" height="18px" viewBox="0 0 18 18" version="1.1" xmlns="http://www.w3.org/2000/svg" xmlns:xlink="http://www.w3.org/1999/xlink">
    <!-- Generator: Sketch 53.2 (72643) - https://sketchapp.com -->
    <title>生活 / sport-outlined</title>
    <desc>Created with Sketch.</desc>
    <g id="生活-/-sport-outlined" stroke="none" stroke-width="1" fill="none" fill-rule="evenodd">
        <path d="M13.891351,6.48258953 C13.4837389,6.9853113 13.1956122,7.58885708 13.0701979,8.25 L14.4492906,8.25 C14.3634932,7.62075655 14.1712693,7.02537566 13.891351,6.48258953 L13.891351,6.48258953 Z M13,5.2250619 C12.1590984,4.33434625 11.0239487,3.72441237 9.75,3.55070937 L9.75,8.25 L11.5507094,8.25 C11.7093647,7.08641171 12.2319445,6.03861609 13,5.2250619 L13,5.2250619 Z M13.891351,11.5174105 C14.1712693,10.9746243 14.3634932,10.3792434 14.4492906,9.75 L13.0701979,9.75 C13.1956122,10.4111429 13.4837389,11.0146887 13.891351,11.5174105 L13.891351,11.5174105 Z M13,12.7749381 C12.2319445,11.9613839 11.7093647,10.9135883 11.5507094,9.75 L9.75,9.75 L9.75,14.4492906 C11.0239487,14.2755876 12.1590984,13.6656537 13,12.7749381 L13,12.7749381 Z M4.10864898,11.5174105 C4.51626109,11.0146887 4.80438776,10.4111429 4.92980211,9.75 L3.55070937,9.75 C3.63650676,10.3792434 3.82873069,10.9746243 4.10864898,11.5174105 L4.10864898,11.5174105 Z M5.00170574,12.7767441 C5.84243639,13.6664782 6.97691251,14.2757051 8.25,14.4492906 L8.25,9.75 L6.45038294,9.75 C6.29415774,10.9180238 5.77636547,11.9626454 5.00170574,12.7767441 L5.00170574,12.7767441 Z M4.10864898,6.48258953 C3.82873069,7.02537566 3.63650676,7.62075655 3.55070937,8.25 L4.92980211,8.25 C4.80438776,7.58885708 4.51626109,6.9853113 4.10864898,6.48258953 L4.10864898,6.48258953 Z M5.00361187,5.2212397 C5.76981321,6.03516817 6.29104666,7.08640499 6.44936472,8.25 L8.25,8.25 L8.25,3.55070937 C6.97787438,3.72416379 5.84415076,4.33260148 5.00361187,5.22123971 L5.00361187,5.2212397 Z M9,16 C5.13400675,16 2,12.8659932 2,9 C2,5.13400675 5.13400675,2 9,2 C12.8659932,2 16,5.13400675 16,9 C16,12.8659932 12.8659932,16 9,16 Z" id="shape" fill="#1F1F1F"></path>
    </g>
</svg>