<?xml version="1.0" encoding="UTF-8"?>
<svg width="18px" height="18px" viewBox="0 0 18 18" version="1.1" xmlns="http://www.w3.org/2000/svg" xmlns:xlink="http://www.w3.org/1999/xlink">
    <!-- Generator: Sketch 53.2 (72643) - https://sketchapp.com -->
    <title>编辑 / star-outlined</title>
    <desc>Created with Sketch.</desc>
    <g id="编辑-/-star-outlined" stroke="none" stroke-width="1" fill="none" fill-rule="evenodd">
        <path d="M9.05844356,13.1203358 L5.54679024,14.9665212 C5.30236795,15.0950216 5.00005437,15.0010483 4.87155397,14.756626 C4.82038443,14.6592958 4.8027271,14.5478118 4.82131552,14.4394329 L5.49198162,10.5291495 L2.65099441,7.75987141 C2.45325262,7.5671208 2.44920647,7.25056417 2.64195707,7.05282238 C2.71871138,6.97408056 2.81928258,6.92283698 2.9281011,6.90702472 L6.85424886,6.33652206 L8.61007552,2.77882866 C8.73228667,2.53120183 9.03209958,2.42953233 9.27972641,2.55174348 C9.37833272,2.6004086 9.45814648,2.68022236 9.5068116,2.77882866 L11.2626383,6.33652206 L15.188786,6.90702472 C15.4620584,6.94673353 15.6513992,7.20045495 15.6116904,7.47372739 C15.5958781,7.5825459 15.5446345,7.68311711 15.4658927,7.75987141 L12.6249055,10.5291495 L13.2955716,14.4394329 C13.3422521,14.7116012 13.1594582,14.9700791 12.88729,15.0167596 C12.7789112,15.0353481 12.6674271,15.0176907 12.5700969,14.9665212 L9.05844356,13.1203358 Z M9.05844356,11.7453358 L11.8504235,13.2131665 L11.3172028,10.1042511 L13.575962,7.90250506 L10.4544335,7.44892042 L9.05844356,4.62033578 L7.66245358,7.44892042 L4.54092511,7.90250506 L6.79968433,10.1042511 L6.26646361,13.2131665 L9.05844356,11.7453358 Z" id="shape" fill="#1F1F1F"></path>
    </g>
</svg>