<?xml version="1.0" encoding="UTF-8"?>
<svg width="18px" height="18px" viewBox="0 0 18 18" version="1.1" xmlns="http://www.w3.org/2000/svg" xmlns:xlink="http://www.w3.org/1999/xlink">
    <!-- Generator: Sketch 53.2 (72643) - https://sketchapp.com -->
    <title>编辑 / star</title>
    <desc>Created with Sketch.</desc>
    <g id="编辑-/-star" stroke="none" stroke-width="1" fill="none" fill-rule="evenodd">
        <path d="M9,13.25 L5.48834668,15.0961854 C5.24392439,15.2246858 4.94161081,15.1307125 4.81311041,14.8862903 C4.76194087,14.78896 4.74428354,14.677476 4.76287196,14.5690972 L5.43353806,10.6588137 L2.59255085,7.88953562 C2.39480906,7.69678502 2.39076291,7.38022839 2.58351352,7.1824866 C2.66026782,7.10374478 2.76083902,7.05250119 2.86965754,7.03668894 L6.7958053,6.46618627 L8.55163196,2.90849288 C8.67384311,2.66086605 8.97365603,2.55919655 9.22128286,2.68140769 C9.31988916,2.73007281 9.39970292,2.80988657 9.44836804,2.90849288 L11.2041947,6.46618627 L15.1303425,7.03668894 C15.4036149,7.07639774 15.5929556,7.33011917 15.5532468,7.6033916 C15.5374346,7.71221012 15.486191,7.81278132 15.4074491,7.88953562 L12.5664619,10.6588137 L13.237128,14.5690972 C13.2838085,14.8412654 13.1010146,15.0997433 12.8288464,15.1464239 C12.7204676,15.1650123 12.6089836,15.1473549 12.5116533,15.0961854 L9,13.25 Z" id="shape" fill="#1F1F1F"></path>
    </g>
</svg>