<?xml version="1.0" encoding="UTF-8"?>
<svg width="18px" height="18px" viewBox="0 0 18 18" version="1.1" xmlns="http://www.w3.org/2000/svg" xmlns:xlink="http://www.w3.org/1999/xlink">
    <!-- Generator: Sketch 53.2 (72643) - https://sketchapp.com -->
    <title>生活 / store-outlined</title>
    <desc>Created with Sketch.</desc>
    <g id="生活-/-store-outlined" stroke="none" stroke-width="1" fill="none" fill-rule="evenodd">
        <path d="M11.2903678,5.9 L9.73,5.9 L9.73,8.5 L11.655774,8.5 L11.2903678,5.9 L11.2903678,5.9 Z M12.7546178,5.9 L13.1200239,8.5 L15,8.5 L14,5.9 L12.7546178,5.9 L12.7546178,5.9 Z M6.70221331,5.9 L6.33680714,8.5 L8.28,8.5 L8.28,5.9 L6.70221331,5.9 L6.70221331,5.9 Z M5.23796333,5.9 L4,5.9 L3,8.5 L4.87255716,8.5 L5.23796333,5.9 Z M4,4.5 L14,4.5 L14,3.5 L4,3.5 L4,4.5 Z M2.5,10 L1.21385,10 C0.937707621,10 0.713849996,9.77614237 0.713849996,9.5 C0.713849996,9.44172374 0.724037777,9.38389611 0.743953284,9.32912847 L2.5,4.5 L2.5,2.5 C2.5,2.22385763 2.72385763,2 3,2 L15,2 C15.2761424,2 15.5,2.22385763 15.5,2.5 L15.5,4.5 L17.2560467,9.32912847 C17.3504165,9.58864526 17.2165383,9.87552697 16.9570215,9.96989671 C16.9022539,9.98981222 16.8444263,10 16.78615,10 L15.5,10 L15.5,16 C15.5,16.2761424 15.2761424,16.5 15,16.5 L3,16.5 C2.72385763,16.5 2.5,16.2761424 2.5,16 L2.5,10 Z M4,10 L4,15 L14,15 L14,10 L4,10 Z M7.5,15 L7.5,12.5 L6.5,12.5 L6.5,15 L5,15 L5,11 L9,11 L9,15 L7.5,15 Z" id="shape" fill="#1F1F1F"></path>
    </g>
</svg>