<?xml version="1.0" encoding="UTF-8"?>
<svg width="18px" height="18px" viewBox="0 0 18 18" version="1.1" xmlns="http://www.w3.org/2000/svg" xmlns:xlink="http://www.w3.org/1999/xlink">
    <!-- Generator: Sketch 53.2 (72643) - https://sketchapp.com -->
    <title>工具 / storage-outlined</title>
    <desc>Created with Sketch.</desc>
    <g id="工具-/-storage-outlined" stroke="none" stroke-width="1" fill="none" fill-rule="evenodd">
        <path d="M2.5,2 L15.5,2 C15.7761424,2 16,2.22385763 16,2.5 L16,15.75 C16,16.0261424 15.7761424,16.25 15.5,16.25 L2.5,16.25 C2.22385763,16.25 2,16.0261424 2,15.75 L2,2.5 C2,2.22385763 2.22385763,2 2.5,2 Z M3.25,3.25 L3.25,6.5 L14.75,6.5 L14.75,3.25 L3.25,3.25 Z M3.25,7.5 L3.25,10.75 L14.75,10.75 L14.75,7.5 L3.25,7.5 Z M3.25,11.75 L3.25,15 L14.75,15 L14.75,11.75 L3.25,11.75 Z M4.5,4.25 L5.75,4.25 L5.75,5.5 L4.5,5.5 L4.5,4.25 Z M7,4.25 L13.5,4.25 L13.5,5.5 L7,5.5 L7,4.25 Z M4.5,8.5 L5.75,8.5 L5.75,9.75 L4.5,9.75 L4.5,8.5 Z M7,8.5 L13.5,8.5 L13.5,9.75 L7,9.75 L7,8.5 Z M4.5,12.75 L5.75,12.75 L5.75,14 L4.5,14 L4.5,12.75 Z M7,12.75 L13.5,12.75 L13.5,14 L7,14 L7,12.75 Z" id="shape" fill="#1F1F1F"></path>
    </g>
</svg>