<?xml version="1.0" encoding="UTF-8"?>
<svg width="18px" height="18px" viewBox="0 0 18 18" version="1.1" xmlns="http://www.w3.org/2000/svg" xmlns:xlink="http://www.w3.org/1999/xlink">
    <!-- Generator: Sketch 53.2 (72643) - https://sketchapp.com -->
    <title>工具 / tag-outlined</title>
    <desc>Created with Sketch.</desc>
    <g id="工具-/-tag-outlined" stroke="none" stroke-width="1" fill="none" fill-rule="evenodd">
        <path d="M2.16842712,8.14528137 C2.07465894,8.05151319 2.02198052,7.92433623 2.02198052,7.79172798 L2.02198052,2.84198052 C2.02198052,2.56583814 2.24583814,2.34198052 2.52198052,2.34198052 L7.47172798,2.34198052 C7.60433623,2.34198052 7.73151319,2.39465894 7.82528137,2.48842712 L15.8105627,10.4737085 C16.0058249,10.6689706 16.0058249,10.9855531 15.8105627,11.1808153 L10.8608153,16.1305627 C10.6655531,16.3258249 10.3489706,16.3258249 10.1537085,16.1305627 L2.16842712,8.14528137 Z M3.40899688,7.26453079 L10.5072619,14.3627958 L14.0427958,10.8272619 L6.94453079,3.72899688 L3.40899688,3.72899688 L3.40899688,7.26453079 Z M4.85040764,5.17040764 C5.14330086,4.87751442 5.61817459,4.87751442 5.91106781,5.17040764 C6.20396103,5.46330086 6.20396103,5.93817459 5.91106781,6.23106781 C5.61817459,6.52396103 5.14330086,6.52396103 4.85040764,6.23106781 C4.55751442,5.93817459 4.55751442,5.46330086 4.85040764,5.17040764 Z" id="shape" fill="#1F1F1F"></path>
    </g>
</svg>