<?xml version="1.0" encoding="UTF-8"?>
<svg width="18px" height="18px" viewBox="0 0 18 18" version="1.1" xmlns="http://www.w3.org/2000/svg" xmlns:xlink="http://www.w3.org/1999/xlink">
    <!-- Generator: Sketch 53.2 (72643) - https://sketchapp.com -->
    <title>工具 / tag</title>
    <desc>Created with Sketch.</desc>
    <g id="工具-/-tag" stroke="none" stroke-width="1" fill="none" fill-rule="evenodd">
        <path d="M2.33842712,8.20528137 C2.24465894,8.11151319 2.19198052,7.98433623 2.19198052,7.85172798 L2.19198052,2.90198052 C2.19198052,2.62583814 2.41583814,2.40198052 2.69198052,2.40198052 L7.64172798,2.40198052 C7.77433623,2.40198052 7.90151319,2.45465894 7.99528137,2.54842712 L15.9805627,10.5337085 C16.1758249,10.7289706 16.1758249,11.0455531 15.9805627,11.2408153 L11.0308153,16.1905627 C10.8355531,16.3858249 10.5189706,16.3858249 10.3237085,16.1905627 L2.33842712,8.20528137 Z M5.02040764,5.23040764 C4.62988335,5.62093193 4.62988335,6.25409691 5.02040764,6.6446212 C5.41093193,7.03514549 6.04409691,7.03514549 6.4346212,6.6446212 C6.82514549,6.25409691 6.82514549,5.62093193 6.4346212,5.23040764 C6.04409691,4.83988335 5.41093193,4.83988335 5.02040764,5.23040764 Z" id="shape" fill="#1F1F1F"></path>
    </g>
</svg>