<?xml version="1.0" encoding="UTF-8"?>
<svg width="18px" height="18px" viewBox="0 0 18 18" version="1.1" xmlns="http://www.w3.org/2000/svg" xmlns:xlink="http://www.w3.org/1999/xlink">
    <!-- Generator: Sketch 53.2 (72643) - https://sketchapp.com -->
    <title>工具 / text</title>
    <desc>Created with Sketch.</desc>
    <g id="工具-/-text" stroke="none" stroke-width="1" fill="none" fill-rule="evenodd">
        <path d="M8,5 L5,5 L5,5.75 C5,5.88807119 4.88807119,6 4.75,6 L3.75,6 C3.61192881,6 3.5,5.88807119 3.5,5.75 L3.5,3.25 C3.5,3.11192881 3.61192881,3 3.75,3 L14.25,3 C14.3880712,3 14.5,3.11192881 14.5,3.25 L14.5,5.75 C14.5,5.88807119 14.3880712,6 14.25,6 L13.25,6 C13.1119288,6 13,5.88807119 13,5.75 L13,5 L10,5 L10,13.5 L11.25,13.5 C11.3880712,13.5 11.5,13.6119288 11.5,13.75 L11.5,14.75 C11.5,14.8880712 11.3880712,15 11.25,15 L6.75,15 C6.61192881,15 6.5,14.8880712 6.5,14.75 L6.5,13.75 C6.5,13.6119288 6.61192881,13.5 6.75,13.5 L8,13.5 L8,5 Z" id="shape" fill="#1F1F1F"></path>
    </g>
</svg>