<?xml version="1.0" encoding="UTF-8"?>
<svg width="18px" height="18px" viewBox="0 0 18 18" version="1.1" xmlns="http://www.w3.org/2000/svg" xmlns:xlink="http://www.w3.org/1999/xlink">
    <!-- Generator: Sketch 53.2 (72643) - https://sketchapp.com -->
    <title>工具 / ticket-outlined</title>
    <desc>Created with Sketch.</desc>
    <g id="工具-/-ticket-outlined" stroke="none" stroke-width="1" fill="none" fill-rule="evenodd">
        <path d="M13,15 C13,14.4477153 12.5522847,14 12,14 C11.4477153,14 11,14.4477153 11,15 L1.5,15 C1.22385763,15 1,14.7761424 1,14.5 L1,4.5 C1,4.22385763 1.22385763,4 1.5,4 L16.5,4 C16.7761424,4 17,4.22385763 17,4.5 L17,14.5 C17,14.7761424 16.7761424,15 16.5,15 L13,15 L13,15 Z M9.99981691,13.5 C10.4559201,12.8927766 11.1820911,12.5 12,12.5 C12.8179089,12.5 13.5440799,12.8927766 14.0001831,13.5 L15.5,13.5 L15.5,5.5 L14.0001831,5.5 C13.5440799,6.10722335 12.8179089,6.5 12,6.5 C11.1820911,6.5 10.4559201,6.10722335 9.99981691,5.5 L2.5,5.5 L2.5,13.5 L9.99981691,13.5 L9.99981691,13.5 Z M4.5,7.5 L8.75,7.5 L8.75,9 L4.5,9 L4.5,7.5 Z M4.5,10 L8.75,10 L8.75,11.5 L4.5,11.5 L4.5,10 Z M11.25,10 L12.75,10 L12.75,11.5 L11.25,11.5 L11.25,10 Z M11.25,7.5 L12.75,7.5 L12.75,9 L11.25,9 L11.25,7.5 Z M12,5 C12.5522847,5 13,4.55228475 13,4 C13,4 11,4 11,4 C11,4.55228475 11.4477153,5 12,5 Z" id="shape" fill="#1F1F1F"></path>
    </g>
</svg>