<?xml version="1.0" encoding="UTF-8"?>
<svg width="18px" height="18px" viewBox="0 0 18 18" version="1.1" xmlns="http://www.w3.org/2000/svg" xmlns:xlink="http://www.w3.org/1999/xlink">
    <!-- Generator: Sketch 53.2 (72643) - https://sketchapp.com -->
    <title>工具 / time-outlined</title>
    <desc>Created with Sketch.</desc>
    <g id="工具-/-time-outlined" stroke="none" stroke-width="1" fill="none" fill-rule="evenodd">
        <path d="M9.75,9.1830127 L12.4641016,10.75 L11.7141016,12.0490381 L8.25,10.0490381 L8.27831216,10 L8.25,10 L8.25,5 L9.75,5 L9.75,9.1830127 L9.75,9.1830127 Z M9,16 C5.13400675,16 2,12.8659932 2,9 C2,5.13400675 5.13400675,2 9,2 C12.8659932,2 16,5.13400675 16,9 C16,12.8659932 12.8659932,16 9,16 Z M9,14.5 C12.0375661,14.5 14.5,12.0375661 14.5,9 C14.5,5.96243388 12.0375661,3.5 9,3.5 C5.96243388,3.5 3.5,5.96243388 3.5,9 C3.5,12.0375661 5.96243388,14.5 9,14.5 Z" id="shape" fill="#1F1F1F"></path>
    </g>
</svg>