<?xml version="1.0" encoding="UTF-8"?>
<svg width="18px" height="18px" viewBox="0 0 18 18" version="1.1" xmlns="http://www.w3.org/2000/svg" xmlns:xlink="http://www.w3.org/1999/xlink">
    <!-- Generator: Sketch 53.2 (72643) - https://sketchapp.com -->
    <title>导航 / top</title>
    <desc>Created with Sketch.</desc>
    <g id="导航-/-top" stroke="none" stroke-width="1" fill="none" fill-rule="evenodd">
        <path d="M9.75,7.54005905 L9.75,14.5 C9.75,14.7761424 9.52614237,15 9.25,15 L8.75,15 C8.47385763,15 8.25,14.7761424 8.25,14.5 L8.25,7.54518345 L5.39820755,10.3373234 C5.2050955,10.526396 4.87764163,10.5322241 4.67879707,10.3386131 L4.36946045,10.0374183 C4.17026685,9.84346747 4.17031621,9.5293245 4.36879109,9.33500123 L8.27140404,5.51402137 C8.2883195,5.49010982 8.30766341,5.46737519 8.32945666,5.44615554 L8.6387942,5.14495977 C8.7633954,5.02363807 8.93594771,4.97856506 9.09628575,5.00938293 C9.19535067,5.02595365 9.29032001,5.07084375 9.36644156,5.14496178 L9.67577818,5.44615663 C9.69794482,5.46773985 9.7176441,5.49081148 9.73487716,5.51504077 L13.6364489,9.33500102 C13.8295611,9.52407377 13.8346239,9.84380782 13.6357787,10.0374194 L13.3264412,10.3386151 C13.127247,10.5325666 12.8055044,10.5316496 12.6070294,10.3373262 L9.75,7.54005905 Z M4.5,3 L13.5,3 C13.7761424,3 14,3.22385763 14,3.5 L14,4 C14,4.27614237 13.7761424,4.5 13.5,4.5 L4.5,4.5 C4.22385763,4.5 4,4.27614237 4,4 L4,3.5 C4,3.22385763 4.22385763,3 4.5,3 Z" id="shape" fill="#1F1F1F"></path>
    </g>
</svg>