<?xml version="1.0" encoding="UTF-8"?>
<svg width="18px" height="18px" viewBox="0 0 18 18" version="1.1" xmlns="http://www.w3.org/2000/svg" xmlns:xlink="http://www.w3.org/1999/xlink">
    <!-- Generator: Sketch 53.2 (72643) - https://sketchapp.com -->
    <title>生活 / travel</title>
    <desc>Created with Sketch.</desc>
    <g id="生活-/-travel" stroke="none" stroke-width="1" fill="none" fill-rule="evenodd">
        <path d="M9.75,2.5 L9.75,3.5 L14,3.5 C14.5522847,3.5 15,3.94771525 15,4.5 L15,15 C15,15.5522847 14.5522847,16 14,16 L13,16 C13,16.5522847 12.5522847,17 12,17 C11.4477153,17 11,16.5522847 11,16 L7,16 C7,16.5522847 6.55228475,17 6,17 C5.44771525,17 5,16.5522847 5,16 L4,16 C3.44771525,16 3,15.5522847 3,15 L3,4.5 C3,3.94771525 3.44771525,3.5 4,3.5 L8.25,3.5 L8.25,2.5 L6.75,2.5 C6.33578644,2.5 6,2.16421356 6,1.75 C6,1.33578644 6.33578644,1 6.75,1 L11.25,1 C11.6642136,1 12,1.33578644 12,1.75 C12,2.16421356 11.6642136,2.5 11.25,2.5 L9.75,2.5 Z M6.75,7 L6.75,13 L8,13 L8,7 L6.75,7 Z M10,7 L10,13 L11.25,13 L11.25,7 L10,7 Z" id="shape" fill="#1F1F1F"></path>
    </g>
</svg>