<?xml version="1.0" encoding="UTF-8"?>
<svg width="18px" height="18px" viewBox="0 0 18 18" version="1.1" xmlns="http://www.w3.org/2000/svg" xmlns:xlink="http://www.w3.org/1999/xlink">
    <!-- Generator: Sketch 53.2 (72643) - https://sketchapp.com -->
    <title>图表 / tree-chart-square</title>
    <desc>Created with Sketch.</desc>
    <g id="图表-/-tree-chart-square" stroke="none" stroke-width="1" fill="none" fill-rule="evenodd">
        <path d="M13.25,9.25 L13.25,11.75 L14,11.75 L14,13.75 L11.5,13.75 L11.5,11.75 L12.25,11.75 L12.25,10 L9.5,10 L9.5,11.75 L10.25,11.75 L10.25,13.75 L7.75,13.75 L7.75,11.75 L8.5,11.75 L8.5,10 L5.75,10 L5.75,11.75 L6.5,11.75 L6.5,13.75 L4,13.75 L4,11.75 L4.75,11.75 L4.75,9.25 C4.75,9.11192881 4.86192881,9 5,9 L8.5,9 L8.5,7.25 L7.75,7.25 L7.75,5.25 L10.25,5.25 L10.25,7.25 L9.5,7.25 L9.5,9 L13,9 C13.1380712,9 13.25,9.11192881 13.25,9.25 Z M2,3 L16,3 C16.2761424,3 16.5,3.22385763 16.5,3.5 L16.5,15.5 C16.5,15.7761424 16.2761424,16 16,16 L2,16 C1.72385763,16 1.5,15.7761424 1.5,15.5 L1.5,3.5 C1.5,3.22385763 1.72385763,3 2,3 Z M2.75,4.25 L2.75,14.75 L15.25,14.75 L15.25,4.25 L2.75,4.25 Z" id="shape" fill="#1F1F1F"></path>
    </g>
</svg>