<?xml version="1.0" encoding="UTF-8"?>
<svg width="18px" height="18px" viewBox="0 0 18 18" version="1.1" xmlns="http://www.w3.org/2000/svg" xmlns:xlink="http://www.w3.org/1999/xlink">
    <!-- Generator: Sketch 53.2 (72643) - https://sketchapp.com -->
    <title>图表 / tree-chart</title>
    <desc>Created with Sketch.</desc>
    <g id="图表-/-tree-chart" stroke="none" stroke-width="1" fill="none" fill-rule="evenodd">
        <path d="M4.25,9.5 L4.25,11 L5.25,11 C5.38807119,11 5.5,11.1119288 5.5,11.25 L5.5,13.75 C5.5,13.8880712 5.38807119,14 5.25,14 L2.25,14 C2.11192881,14 2,13.8880712 2,13.75 L2,11.25 C2,11.1119288 2.11192881,11 2.25,11 L3.25,11 L3.25,9 C3.25,8.72385763 3.47385763,8.5 3.75,8.5 L8.5,8.5 L8.5,7 L7.5,7 C7.36192881,7 7.25,6.88807119 7.25,6.75 L7.25,4.25 C7.25,4.11192881 7.36192881,4 7.5,4 L10.5,4 C10.6380712,4 10.75,4.11192881 10.75,4.25 L10.75,6.75 C10.75,6.88807119 10.6380712,7 10.5,7 L9.5,7 L9.5,8.5 L14.25,8.5 C14.5261424,8.5 14.75,8.72385763 14.75,9 L14.75,11 L15.75,11 C15.8880712,11 16,11.1119288 16,11.25 L16,13.75 C16,13.8880712 15.8880712,14 15.75,14 L12.75,14 C12.6119288,14 12.5,13.8880712 12.5,13.75 L12.5,11.25 C12.5,11.1119288 12.6119288,11 12.75,11 L13.75,11 L13.75,9.5 L9.5,9.5 L9.5,11 L10.5,11 C10.6380712,11 10.75,11.1119288 10.75,11.25 L10.75,13.75 C10.75,13.8880712 10.6380712,14 10.5,14 L7.5,14 C7.36192881,14 7.25,13.8880712 7.25,13.75 L7.25,11.25 C7.25,11.1119288 7.36192881,11 7.5,11 L8.5,11 L8.5,9.5 L4.25,9.5 Z" id="shape" fill="#1F1F1F"></path>
    </g>
</svg>