<?xml version="1.0" encoding="UTF-8"?>
<svg width="18px" height="18px" viewBox="0 0 18 18" version="1.1" xmlns="http://www.w3.org/2000/svg" xmlns:xlink="http://www.w3.org/1999/xlink">
    <!-- Generator: Sketch 53.2 (72643) - https://sketchapp.com -->
    <title>图表 / tree-chart-outlined</title>
    <desc>Created with Sketch.</desc>
    <g id="图表-/-tree-chart-outlined" stroke="none" stroke-width="1" fill="none" fill-rule="evenodd">
        <path d="M15.13,11 L16.25,11 C16.5261424,11 16.75,11.2238576 16.75,11.5 L16.75,14.5 C16.75,14.7761424 16.5261424,15 16.25,15 L12.75,15 C12.4738576,15 12.25,14.7761424 12.25,14.5 L12.25,11.5 C12.25,11.2238576 12.4738576,11 12.75,11 L13.88,11 L13.88,9.75 L9.62,9.75 L9.62,11 L10.75,11 C11.0261424,11 11.25,11.2238576 11.25,11.5 L11.25,14.5 C11.25,14.7761424 11.0261424,15 10.75,15 L7.25,15 C6.97385763,15 6.75,14.7761424 6.75,14.5 L6.75,11.5 C6.75,11.2238576 6.97385763,11 7.25,11 L8.37,11 L8.37,9.75 L4.12,9.75 L4.12,11 L5.25,11 C5.52614237,11 5.75,11.2238576 5.75,11.5 L5.75,14.5 C5.75,14.7761424 5.52614237,15 5.25,15 L1.75,15 C1.47385763,15 1.25,14.7761424 1.25,14.5 L1.25,11.5 C1.25,11.2238576 1.47385763,11 1.75,11 L2.87,11 L2.87,9.5 C2.87,8.94771525 3.31771525,8.5 3.87,8.5 L8.37,8.5 L8.37,7 L7.25,7 C6.97385763,7 6.75,6.77614237 6.75,6.5 L6.75,3.5 C6.75,3.22385763 6.97385763,3 7.25,3 L10.75,3 C11.0261424,3 11.25,3.22385763 11.25,3.5 L11.25,6.5 C11.25,6.77614237 11.0261424,7 10.75,7 L9.62,7 L9.62,8.5 L14.13,8.5 C14.6822847,8.5 15.13,8.94771525 15.13,9.5 L15.13,11 Z M8,4.25 L8,5.75 L10,5.75 L10,4.25 L8,4.25 Z M8,12.25 L8,13.75 L10,13.75 L10,12.25 L8,12.25 Z M2.5,12.25 L2.5,13.75 L4.5,13.75 L4.5,12.25 L2.5,12.25 Z M13.5,12.25 L13.5,13.75 L15.5,13.75 L15.5,12.25 L13.5,12.25 Z" id="shape" fill="#1F1F1F"></path>
    </g>
</svg>