<?xml version="1.0" encoding="UTF-8"?>
<svg width="18px" height="18px" viewBox="0 0 18 18" version="1.1" xmlns="http://www.w3.org/2000/svg" xmlns:xlink="http://www.w3.org/1999/xlink">
    <!-- Generator: Sketch 53.2 (72643) - https://sketchapp.com -->
    <title>图表 / trending-down</title>
    <desc>Created with Sketch.</desc>
    <g id="图表-/-trending-down" stroke="none" stroke-width="1" fill="none" fill-rule="evenodd">
        <path d="M12.5286066,10.0430451 L10.929753,8.31093196 L9.62019218,9.45679771 C9.24379796,9.78614265 8.67651423,9.76725416 8.32286136,9.41360129 L4.44425216,5.53499209 L5.50491233,4.47433192 L9.01967677,7.98909636 L10.3450538,6.82939149 C10.7325067,6.49037018 11.3195004,6.52167281 11.6687005,6.89997763 L13.5901152,8.98153648 L14.2940879,8.27756373 C14.6861267,7.88552497 15.050581,8.01878304 15.1129758,8.57034753 L15.4526322,11.5728794 C15.4845022,11.8546073 15.2852977,12.0468397 15.0092791,12.0162325 L12.0007055,11.6826179 C11.4488302,11.6214216 11.3160476,11.2556041 11.7059121,10.8657396 L12.5286066,10.0430451 Z M3.5,13.5 L15.5,13.5 C15.7761424,13.5 16,13.7238576 16,14 L16,14.5 C16,14.7761424 15.7761424,15 15.5,15 L2.5,15 C2.22385763,15 2,14.7761424 2,14.5 L2,3.5 C2,3.22385763 2.22385763,3 2.5,3 L3,3 C3.27614237,3 3.5,3.22385763 3.5,3.5 L3.5,13.5 Z" id="shape" fill="#1F1F1F"></path>
    </g>
</svg>