<?xml version="1.0" encoding="UTF-8"?>
<svg width="18px" height="18px" viewBox="0 0 18 18" version="1.1" xmlns="http://www.w3.org/2000/svg" xmlns:xlink="http://www.w3.org/1999/xlink">
    <!-- Generator: Sketch 53.2 (72643) - https://sketchapp.com -->
    <title>图表 / trending-up</title>
    <desc>Created with Sketch.</desc>
    <g id="图表-/-trending-up" stroke="none" stroke-width="1" fill="none" fill-rule="evenodd">
        <path d="M12.4624952,6.96249517 L11.7059121,6.20591205 C11.3160476,5.81604759 11.4488302,5.45023012 12.0007055,5.38903379 L15.0092791,5.05541915 C15.2852977,5.024812 15.4845022,5.21704435 15.4526322,5.49877232 L15.1129758,8.50130415 C15.050581,9.05286864 14.6861267,9.18612671 14.2940879,8.79408795 L13.5231553,8.02315535 L11.1327094,10.4136013 C10.7790565,10.7672542 10.2117728,10.7861427 9.83537858,10.4567977 L8.52581772,9.31093196 L5.51247128,12.5754317 L4.41025973,11.5580185 L7.7868703,7.89997763 C8.13607035,7.52167281 8.72306408,7.49037018 9.110517,7.82939149 L10.435894,8.98909636 L12.4624952,6.96249517 L12.4624952,6.96249517 Z M3.5,13.5 L15.5,13.5 C15.7761424,13.5 16,13.7238576 16,14 L16,14.5 C16,14.7761424 15.7761424,15 15.5,15 L2.5,15 C2.22385763,15 2,14.7761424 2,14.5 L2,3.5 C2,3.22385763 2.22385763,3 2.5,3 L3,3 C3.27614237,3 3.5,3.22385763 3.5,3.5 L3.5,13.5 Z" id="shape" fill="#1F1F1F"></path>
    </g>
</svg>