<?xml version="1.0" encoding="UTF-8"?>
<svg width="18px" height="18px" viewBox="0 0 18 18" version="1.1" xmlns="http://www.w3.org/2000/svg" xmlns:xlink="http://www.w3.org/1999/xlink">
    <!-- Generator: Sketch 53.2 (72643) - https://sketchapp.com -->
    <title>编辑 / upload</title>
    <desc>Created with Sketch.</desc>
    <g id="编辑-/-upload" stroke="none" stroke-width="1" fill="none" fill-rule="evenodd">
        <path d="M3.5,14.5 L14.5,14.5 L14.5,9.5 L13.25,9.5 C13.1119288,9.5 13,9.38807119 13,9.25 L13,8.25 C13,8.11192881 13.1119288,8 13.25,8 L15.5,8 C15.7761424,8 16,8.22385763 16,8.5 L16,15.5 C16,15.7761424 15.7761424,16 15.5,16 L2.5,16 C2.22385763,16 2,15.7761424 2,15.5 L2,8.5 C2,8.22385763 2.22385763,8 2.5,8 L4.75,8 C4.88807119,8 5,8.11192881 5,8.25 L5,9.25 C5,9.38807119 4.88807119,9.5 4.75,9.5 L3.5,9.5 L3.5,14.5 L3.5,14.5 Z M6.06162366,5.61646318 L8.68837634,2.38353682 C8.86035156,2.171875 9.13951867,2.17171528 9.31162366,2.38353682 L11.9383763,5.61646318 C12.1103516,5.828125 12.0234953,6 11.7440877,6 L9.75,6 L9.75,11.7421875 C9.75,11.8958588 9.6391034,12 9.50230551,12 L8.49769449,12 C8.36770248,12 8.25,11.8845734 8.25,11.7421875 L8.25,6 L6.2559123,6 C5.98071289,6 5.88951867,5.82828472 6.06162366,5.61646318 Z" id="shape" fill="#1F1F1F"></path>
    </g>
</svg>