<?xml version="1.0" encoding="UTF-8"?>
<svg width="18px" height="18px" viewBox="0 0 18 18" version="1.1" xmlns="http://www.w3.org/2000/svg" xmlns:xlink="http://www.w3.org/1999/xlink">
    <!-- Generator: Sketch 53.2 (72643) - https://sketchapp.com -->
    <title>编辑 / view-outlined</title>
    <desc>Created with Sketch.</desc>
    <g id="编辑-/-view-outlined" stroke="none" stroke-width="1" fill="none" fill-rule="evenodd">
        <path d="M9,14 C6.14374695,14 3.54970048,12.4328212 1.21786056,9.29846356 C1.08609201,9.121346 1.08609144,8.87876968 1.21785917,8.70165152 L1.21780496,8.70161119 C3.54965924,5.56720373 6.14372425,4 9,4 C11.856253,4 14.4502995,5.56717881 16.7821394,8.70153644 C16.913908,8.878654 16.9139086,9.12123032 16.7821408,9.29834848 L16.782195,9.29838881 C14.4503408,12.4327963 11.8562757,14 9,14 Z M9,12.5 C11.0618631,12.5 13.0618631,11.3333333 15,9 C13.0618631,6.66666667 11.0618631,5.5 9,5.5 C6.93813693,5.5 4.93813693,6.66666667 3,9 C4.93813693,11.3333333 6.93813693,12.5 9,12.5 Z M9,11.75 C7.48121694,11.75 6.25,10.5187831 6.25,9 C6.25,7.48121694 7.48121694,6.25 9,6.25 C10.5187831,6.25 11.75,7.48121694 11.75,9 C11.75,10.5187831 10.5187831,11.75 9,11.75 Z M9,10.25 C9.69035594,10.25 10.25,9.69035594 10.25,9 C10.25,8.30964406 9.69035594,7.75 9,7.75 C8.30964406,7.75 7.75,8.30964406 7.75,9 C7.75,9.69035594 8.30964406,10.25 9,10.25 Z" id="shape" fill="#1F1F1F"></path>
    </g>
</svg>