<?xml version="1.0" encoding="UTF-8"?>
<svg width="18px" height="18px" viewBox="0 0 18 18" version="1.1" xmlns="http://www.w3.org/2000/svg" xmlns:xlink="http://www.w3.org/1999/xlink">
    <!-- Generator: Sketch 53.2 (72643) - https://sketchapp.com -->
    <title>编辑 / view</title>
    <desc>Created with Sketch.</desc>
    <g id="编辑-/-view" stroke="none" stroke-width="1" fill="none" fill-rule="evenodd">
        <path d="M9,14 C6.14374695,14 3.54970048,12.4328212 1.21786056,9.29846356 C1.08609201,9.121346 1.08609144,8.87876968 1.21785917,8.70165152 L1.21780496,8.70161119 C3.54965924,5.56720373 6.14372425,4 9,4 C11.856253,4 14.4502995,5.56717881 16.7821394,8.70153644 C16.913908,8.878654 16.9139086,9.12123032 16.7821408,9.29834848 L16.782195,9.29838881 C14.4503408,12.4327963 11.8562757,14 9,14 Z M9,12.5 C10.9329966,12.5 12.5,10.9329966 12.5,9 C12.5,7.06700338 10.9329966,5.5 9,5.5 C7.06700338,5.5 5.5,7.06700338 5.5,9 C5.5,10.9329966 7.06700338,12.5 9,12.5 Z M9,11 C7.8954305,11 7,10.1045695 7,9 C7,7.8954305 7.8954305,7 9,7 C10.1045695,7 11,7.8954305 11,9 C11,10.1045695 10.1045695,11 9,11 Z" id="shape" fill="#1F1F1F"></path>
    </g>
</svg>