<?xml version="1.0" encoding="UTF-8"?>
<svg width="18px" height="18px" viewBox="0 0 18 18" version="1.1" xmlns="http://www.w3.org/2000/svg" xmlns:xlink="http://www.w3.org/1999/xlink">
    <!-- Generator: Sketch 53.2 (72643) - https://sketchapp.com -->
    <title>工具 / wallet-outlined</title>
    <desc>Created with Sketch.</desc>
    <g id="工具-/-wallet-outlined" stroke="none" stroke-width="1" fill="none" fill-rule="evenodd">
        <path d="M15,6.5 L15,5.5 L3,5.5 L3,13.5 L15,13.5 L15,12.5 L11,12.5 C9.34314575,12.5 8,11.1568542 8,9.5 C8,7.84314575 9.34314575,6.5 11,6.5 L15,6.5 Z M2,4 L16,4 C16.2761424,4 16.5,4.22385763 16.5,4.5 L16.5,14.5 C16.5,14.7761424 16.2761424,15 16,15 L2,15 C1.72385763,15 1.5,14.7761424 1.5,14.5 L1.5,4.5 C1.5,4.22385763 1.72385763,4 2,4 Z M11,8 C10.1715729,8 9.5,8.67157288 9.5,9.5 C9.5,10.3284271 10.1715729,11 11,11 L15,11 L15,8 L11,8 Z M11,10.25 C10.5857864,10.25 10.25,9.91421356 10.25,9.5 C10.25,9.08578644 10.5857864,8.75 11,8.75 C11.4142136,8.75 11.75,9.08578644 11.75,9.5 C11.75,9.91421356 11.4142136,10.25 11,10.25 Z" id="shape" fill="#1F1F1F"></path>
    </g>
</svg>