<?xml version="1.0" encoding="UTF-8"?>
<svg width="18px" height="18px" viewBox="0 0 18 18" version="1.1" xmlns="http://www.w3.org/2000/svg" xmlns:xlink="http://www.w3.org/1999/xlink">
    <!-- Generator: Sketch 53.2 (72643) - https://sketchapp.com -->
    <title>反馈 / warning</title>
    <desc>Created with Sketch.</desc>
    <g id="反馈-/-warning" stroke="none" stroke-width="1" fill="none" fill-rule="evenodd">
        <path d="M9.43412157,2.75971275 L16.5725317,15.2519305 C16.7095367,15.4916893 16.6262384,15.7971166 16.3864796,15.9341216 C16.3109308,15.9772923 16.2254236,16 16.1384102,16 L1.86158984,16 C1.58544746,16 1.36158984,15.7761424 1.36158984,15.5 C1.36158984,15.4129865 1.3842975,15.3274794 1.42746827,15.2519305 L8.56587843,2.75971275 C8.70288341,2.51995403 9.00831075,2.43665566 9.24806947,2.57366065 C9.32558511,2.6179553 9.38982692,2.68219711 9.43412157,2.75971275 Z M8.25,6.5 L8.25,12 L9.75,12 L9.75,6.5 L8.25,6.5 Z M8.25,14.5 L9.75,14.5 L9.75,13 L8.25,13 L8.25,14.5 Z" id="shape" fill="#1F1F1F"></path>
    </g>
</svg>