<?xml version="1.0" encoding="UTF-8"?>
<svg width="18px" height="18px" viewBox="0 0 18 18" version="1.1" xmlns="http://www.w3.org/2000/svg" xmlns:xlink="http://www.w3.org/1999/xlink">
    <!-- Generator: Sketch 53.2 (72643) - https://sketchapp.com -->
    <title>生活 / watch-outlined</title>
    <desc>Created with Sketch.</desc>
    <g id="生活-/-watch-outlined" stroke="none" stroke-width="1" fill="none" fill-rule="evenodd">
        <path d="M13,13.472213 L13,16.5 C13,16.7761424 12.7761424,17 12.5,17 L5.5,17 C5.22385763,17 5,16.7761424 5,16.5 L5,13.472213 C3.77250128,12.3735719 3,10.7769996 3,9 C3,7.22300037 3.77250128,5.62642809 5,4.52778699 L5,1.5 C5,1.22385763 5.22385763,1 5.5,1 L12.5,1 C12.7761424,1 13,1.22385763 13,1.5 L13,4.52778699 C14.2274987,5.62642809 15,7.22300037 15,9 C15,10.7769996 14.2274987,12.3735719 13,13.472213 L13,13.472213 Z M6.59828971,14.5 L6.5,14.5 L6.5,15.5 L11.5,15.5 L11.5,14.5 L11.4017103,14.5 C10.6663045,14.8215865 9.85398762,15 9,15 C8.14601238,15 7.33369545,14.8215865 6.59828971,14.5 L6.59828971,14.5 Z M11.5,3.54404222 L11.5,2.5 L6.5,2.5 L6.5,3.54404222 C7.26105673,3.19474334 8.10778599,3 9,3 C9.89221401,3 10.7389433,3.19474334 11.5,3.54404222 L11.5,3.54404222 Z M9,13.5 C11.4852814,13.5 13.5,11.4852814 13.5,9 C13.5,6.51471863 11.4852814,4.5 9,4.5 C6.51471863,4.5 4.5,6.51471863 4.5,9 C4.5,11.4852814 6.51471863,13.5 9,13.5 Z M9.61,9.27084392 L11.5830762,10.41 L10.9580762,11.4925318 L8.37293538,10 L8.36,10 L8.36,6 L9.61,6 L9.61,9.27084392 Z" id="shape" fill="#1F1F1F"></path>
    </g>
</svg>