<?xml version="1.0" encoding="UTF-8"?>
<svg width="18px" height="18px" viewBox="0 0 18 18" version="1.1" xmlns="http://www.w3.org/2000/svg" xmlns:xlink="http://www.w3.org/1999/xlink">
    <!-- Generator: Sketch 53.2 (72643) - https://sketchapp.com -->
    <title>工具 / website</title>
    <desc>Created with Sketch.</desc>
    <g id="工具-/-website" stroke="none" stroke-width="1" fill="none" fill-rule="evenodd">
        <path d="M2,2 L16,2 C16.2761424,2 16.5,2.22385763 16.5,2.5 L16.5,15.5 C16.5,15.7761424 16.2761424,16 16,16 L2,16 C1.72385763,16 1.5,15.7761424 1.5,15.5 L1.5,2.5 C1.5,2.22385763 1.72385763,2 2,2 Z M15,7 L3,7 L3,14.5 L15,14.5 L15,7 Z M4.5,9 L8,9 L8,13 L4.5,13 L4.5,9 Z M9.5,9 L13.5,9 L13.5,10.5 L9.5,10.5 L9.5,9 Z M9.5,11.5 L13.5,11.5 L13.5,13 L9.5,13 L9.5,11.5 Z M3.625,5.5 C3.97017797,5.5 4.25,5.22017797 4.25,4.875 C4.25,4.52982203 3.97017797,4.25 3.625,4.25 C3.27982203,4.25 3,4.52982203 3,4.875 C3,5.22017797 3.27982203,5.5 3.625,5.5 Z M5.875,5.5 C6.22017797,5.5 6.5,5.22017797 6.5,4.875 C6.5,4.52982203 6.22017797,4.25 5.875,4.25 C5.52982203,4.25 5.25,4.52982203 5.25,4.875 C5.25,5.22017797 5.52982203,5.5 5.875,5.5 Z" id="shape" fill="#1F1F1F"></path>
    </g>
</svg>