<?xml version="1.0" encoding="UTF-8"?>
<svg width="18px" height="18px" viewBox="0 0 18 18" version="1.1" xmlns="http://www.w3.org/2000/svg" xmlns:xlink="http://www.w3.org/1999/xlink">
    <!-- Generator: Sketch 53.2 (72643) - https://sketchapp.com -->
    <title>编辑 / zoom-out</title>
    <desc>Created with Sketch.</desc>
    <g id="编辑-/-zoom-out" stroke="none" stroke-width="1" fill="none" fill-rule="evenodd">
        <path d="M11.4547885,10.3941283 L15.1899679,14.1293077 C15.3865667,14.3259066 15.3894375,14.6417854 15.1868504,14.8443725 L14.8443725,15.1868504 C14.646052,15.385171 14.3205944,15.3812546 14.1293077,15.1899679 L10.3941283,11.4547885 C9.51769292,12.1111973 8.42925133,12.5 7.25,12.5 C4.35050506,12.5 2,10.1494949 2,7.25 C2,4.35050506 4.35050506,2 7.25,2 C10.1494949,2 12.5,4.35050506 12.5,7.25 C12.5,8.42925133 12.1111973,9.51769292 11.4547885,10.3941283 L11.4547885,10.3941283 Z M7.25,11 C9.32106781,11 11,9.32106781 11,7.25 C11,5.17893219 9.32106781,3.5 7.25,3.5 C5.17893219,3.5 3.5,5.17893219 3.5,7.25 C3.5,9.32106781 5.17893219,11 7.25,11 Z M4.75,6.5 L9.75,6.5 L9.75,8 L4.75,8 L4.75,6.5 Z" id="shape" fill="#1F1F1F"></path>
    </g>
</svg>